<svg width="91" height="90" viewBox="0 0 91 90" fill="none" xmlns="http://www.w3.org/2000/svg">
<g filter="url(#filter0_d_3909_452)">
<rect x="10.5" y="8" width="70" height="70" rx="20" fill="white"/>
<g clip-path="url(#clip0_3909_452)">
<path d="M58.775 49.2145C58.9132 49.3575 58.989 49.5496 58.9856 49.7485C58.9823 49.9474 58.9 50.1368 58.757 50.275L54.7025 54.196C54.1625 54.7285 53.45 54.997 52.736 54.997C52.022 54.997 51.3125 54.7315 50.768 54.199L48.722 52.1815C48.6501 52.1128 48.5925 52.0304 48.5527 51.9393C48.5129 51.8481 48.4916 51.7499 48.4901 51.6504C48.4886 51.5509 48.5069 51.4521 48.544 51.3598C48.581 51.2675 48.6361 51.1834 48.706 51.1126C48.7758 51.0417 48.8591 50.9855 48.9509 50.9471C49.0427 50.9088 49.1412 50.8891 49.2407 50.8891C49.3402 50.8892 49.4386 50.9091 49.5304 50.9476C49.6221 50.9861 49.7053 51.0425 49.775 51.1135L51.8195 53.1295C52.0657 53.3679 52.3953 53.5007 52.738 53.4996C53.0807 53.4985 53.4094 53.3635 53.654 53.1235L57.713 49.198C57.856 49.0598 58.0481 48.984 58.247 48.9874C58.4459 48.9907 58.6353 49.073 58.7735 49.216L58.775 49.2145ZM63.5 51.25C63.5 56.626 59.126 61 53.75 61C48.374 61 44 56.626 44 51.25C44 45.874 48.374 41.5 53.75 41.5C59.126 41.5 63.5 45.874 63.5 51.25ZM62 51.25C62 46.7005 58.2995 43 53.75 43C49.2005 43 45.5 46.7005 45.5 51.25C45.5 55.7995 49.2005 59.5 53.75 59.5C58.2995 59.5 62 55.7995 62 51.25ZM63.5 31.75V33.25C63.5 34.474 62.9105 35.563 62 36.2485V39.25C62 39.4489 61.921 39.6397 61.7803 39.7803C61.6397 39.921 61.4489 40 61.25 40C61.0511 40 60.8603 39.921 60.7197 39.7803C60.579 39.6397 60.5 39.4489 60.5 39.25V36.925C60.257 36.9745 60.0065 37 59.75 37H31.25C30.9935 37 30.743 36.9745 30.5 36.925V54.25C30.5 57.145 32.855 59.5 35.75 59.5H43.25C43.4489 59.5 43.6397 59.579 43.7803 59.7197C43.921 59.8603 44 60.0511 44 60.25C44 60.4489 43.921 60.6397 43.7803 60.7803C43.6397 60.921 43.4489 61 43.25 61H35.75C33.9604 60.998 32.2447 60.2862 30.9792 59.0208C29.7138 57.7553 29.002 56.0396 29 54.25V36.2485C28.5344 35.8994 28.1564 35.4467 27.8961 34.9263C27.6357 34.4059 27.5001 33.8319 27.5 33.25V31.75C27.5 28.0285 30.5285 25 34.25 25H56.75C60.4715 25 63.5 28.0285 63.5 31.75ZM62 31.75C62 28.855 59.645 26.5 56.75 26.5H34.25C31.355 26.5 29 28.855 29 31.75V33.25C29 34.4905 30.0095 35.5 31.25 35.5H59.75C60.9905 35.5 62 34.4905 62 33.25V31.75Z" fill="#007BFF"/>
</g>
</g>
<defs>
<filter id="filter0_d_3909_452" x="0.5" y="0" width="90" height="90" filterUnits="userSpaceOnUse" color-interpolation-filters="sRGB">
<feFlood flood-opacity="0" result="BackgroundImageFix"/>
<feColorMatrix in="SourceAlpha" type="matrix" values="0 0 0 0 0 0 0 0 0 0 0 0 0 0 0 0 0 0 127 0" result="hardAlpha"/>
<feOffset dy="2"/>
<feGaussianBlur stdDeviation="5"/>
<feComposite in2="hardAlpha" operator="out"/>
<feColorMatrix type="matrix" values="0 0 0 0 0 0 0 0 0 0 0 0 0 0 0 0 0 0 0.15 0"/>
<feBlend mode="normal" in2="BackgroundImageFix" result="effect1_dropShadow_3909_452"/>
<feBlend mode="normal" in="SourceGraphic" in2="effect1_dropShadow_3909_452" result="shape"/>
</filter>
<clipPath id="clip0_3909_452">
<rect width="36" height="36" fill="white" transform="translate(27.5 25)"/>
</clipPath>
</defs>
</svg>
