<svg width="90" height="90" viewBox="0 0 90 90" fill="none" xmlns="http://www.w3.org/2000/svg">
<g filter="url(#filter0_d_3722_6476)">
<rect x="10" y="8" width="70" height="70" rx="20" fill="white"/>
<path d="M36.818 47.5817C37.6362 47.5817 38.2908 48.2908 38.2908 49.109C38.2908 49.4363 38.5089 49.6544 38.8362 49.6544C39.1635 49.6544 39.3817 49.4363 39.3817 49.109C39.3817 47.8544 38.5089 46.8181 37.3635 46.5454V45.8363C37.3635 45.509 37.1453 45.2908 36.818 45.2908C36.4908 45.2908 36.2726 45.509 36.2726 45.8363V46.5454C35.1271 46.8181 34.2544 47.8544 34.2544 49.109C34.2544 50.5817 35.3998 51.7272 36.818 51.7272C37.6362 51.7272 38.2908 52.4363 38.2908 53.2544C38.2908 54.1272 37.6362 54.7817 36.818 54.7817C35.9998 54.7817 35.3453 54.0726 35.3453 53.2544C35.3453 52.9272 35.1271 52.709 34.7998 52.709C34.4726 52.709 34.2544 52.9272 34.2544 53.2544C34.2544 54.509 35.1271 55.5454 36.2726 55.8181V56.6363C36.2726 56.9635 36.4908 57.1817 36.818 57.1817C37.1453 57.1817 37.3635 56.9635 37.3635 56.6363V55.9272C38.5089 55.6544 39.3817 54.6181 39.3817 53.3635C39.3817 51.8908 38.2362 50.7454 36.818 50.7454C35.9998 50.7454 35.3453 50.0363 35.3453 49.2181C35.3998 48.2908 36.0544 47.5817 36.818 47.5817ZM47.0726 52.9817H42.1635C41.8362 52.9817 41.618 53.1999 41.618 53.5272C41.618 53.8544 41.8362 54.0726 42.1635 54.0726H47.0726C47.3999 54.0726 47.618 53.8544 47.618 53.5272C47.618 53.1999 47.3453 52.9817 47.0726 52.9817ZM34.8544 32.1454H55.1453C55.4726 32.1454 55.6908 31.9272 55.6908 31.5999C55.6908 31.2726 55.4726 31.0544 55.1453 31.0544H34.8544C34.5271 31.0544 34.3089 31.2726 34.3089 31.5999C34.3089 31.8726 34.5271 32.1454 34.8544 32.1454ZM34.8544 37.5999H55.1453C55.4726 37.5999 55.6908 37.3817 55.6908 37.0544C55.6908 36.7272 55.4726 36.509 55.1453 36.509H34.8544C34.5271 36.509 34.3089 36.7272 34.3089 37.0544C34.3089 37.3817 34.5271 37.5999 34.8544 37.5999ZM34.8544 43.0544H55.1453C55.4726 43.0544 55.6908 42.8363 55.6908 42.509C55.6908 42.1817 55.4726 41.9635 55.1453 41.9635H34.8544C34.5271 41.9635 34.3089 42.1817 34.3089 42.509C34.3089 42.8363 34.5271 43.0544 34.8544 43.0544ZM55.0908 47.4181H42.4908C42.1635 47.4181 41.9453 47.6363 41.9453 47.9635C41.9453 48.2908 42.1635 48.509 42.4908 48.509H55.0908C55.418 48.509 55.6362 48.2908 55.6362 47.9635C55.6362 47.6363 55.418 47.4181 55.0908 47.4181Z" fill="#007BFF"/>
<path d="M57.5999 25.5454H32.3999C30.9272 25.5454 29.7817 26.7454 29.7817 28.1636V57.7818C29.7817 59.2545 30.9817 60.4 32.3999 60.4H51.2726C51.4363 60.4 51.5999 60.3454 51.709 60.2363L60.0545 52.709C60.1636 52.6 60.2726 52.4363 60.2726 52.2727V28.1636C60.2181 26.7454 59.0726 25.5454 57.5999 25.5454ZM30.8726 57.8363V28.1636C30.8726 27.3454 31.5272 26.6363 32.3999 26.6363H57.5999C58.4726 26.6363 59.1272 27.3454 59.1272 28.1636V51.7818H51.3272C50.9999 51.7818 50.7817 52 50.7817 52.3272V59.3636H32.3999C31.5272 59.3636 30.8726 58.6545 30.8726 57.8363ZM58.2545 52.8727L51.8726 58.6545V52.8727H58.2545Z" fill="#007BFF"/>
</g>
<defs>
<filter id="filter0_d_3722_6476" x="0" y="0" width="90" height="90" filterUnits="userSpaceOnUse" color-interpolation-filters="sRGB">
<feFlood flood-opacity="0" result="BackgroundImageFix"/>
<feColorMatrix in="SourceAlpha" type="matrix" values="0 0 0 0 0 0 0 0 0 0 0 0 0 0 0 0 0 0 127 0" result="hardAlpha"/>
<feOffset dy="2"/>
<feGaussianBlur stdDeviation="5"/>
<feComposite in2="hardAlpha" operator="out"/>
<feColorMatrix type="matrix" values="0 0 0 0 0 0 0 0 0 0 0 0 0 0 0 0 0 0 0.15 0"/>
<feBlend mode="normal" in2="BackgroundImageFix" result="effect1_dropShadow_3722_6476"/>
<feBlend mode="normal" in="SourceGraphic" in2="effect1_dropShadow_3722_6476" result="shape"/>
</filter>
</defs>
</svg>
