<svg width="90" height="90" viewBox="0 0 90 90" fill="none" xmlns="http://www.w3.org/2000/svg">
<g filter="url(#filter0_d_3426_445)">
<rect x="10" y="8" width="70" height="70" rx="20" fill="white"/>
<g clip-path="url(#clip0_3426_445)">
<path d="M40.5 38.5C40.5 38.1022 40.658 37.7206 40.9393 37.4393C41.2206 37.158 41.6022 37 42 37H43.5V35.5C43.5 35.1022 43.658 34.7206 43.9393 34.4393C44.2206 34.158 44.6022 34 45 34C45.3978 34 45.7794 34.158 46.0607 34.4393C46.342 34.7206 46.5 35.1022 46.5 35.5V37H48C48.3978 37 48.7794 37.158 49.0607 37.4393C49.342 37.7206 49.5 38.1022 49.5 38.5C49.5 38.8978 49.342 39.2794 49.0607 39.5607C48.7794 39.842 48.3978 40 48 40H46.5V41.5C46.5 41.8978 46.342 42.2794 46.0607 42.5607C45.7794 42.842 45.3978 43 45 43C44.6022 43 44.2206 42.842 43.9393 42.5607C43.658 42.2794 43.5 41.8978 43.5 41.5V40H42C41.6022 40 41.2206 39.842 40.9393 39.5607C40.658 39.2794 40.5 38.8978 40.5 38.5ZM51 46H39C38.6022 46 38.2206 46.158 37.9393 46.4393C37.658 46.7206 37.5 47.1022 37.5 47.5C37.5 47.8978 37.658 48.2794 37.9393 48.5607C38.2206 48.842 38.6022 49 39 49H51C51.3978 49 51.7794 48.842 52.0607 48.5607C52.342 48.2794 52.5 47.8978 52.5 47.5C52.5 47.1022 52.342 46.7206 52.0607 46.4393C51.7794 46.158 51.3978 46 51 46ZM45 52H39C38.6022 52 38.2206 52.158 37.9393 52.4393C37.658 52.7206 37.5 53.1022 37.5 53.5C37.5 53.8978 37.658 54.2794 37.9393 54.5607C38.2206 54.842 38.6022 55 39 55H45C45.3978 55 45.7794 54.842 46.0607 54.5607C46.342 54.2794 46.5 53.8978 46.5 53.5C46.5 53.1022 46.342 52.7206 46.0607 52.4393C45.7794 52.158 45.3978 52 45 52ZM58.5 35.5V53.5C58.4976 55.4884 57.7067 57.3947 56.3007 58.8007C54.8947 60.2067 52.9884 60.9976 51 61H39C37.0116 60.9976 35.1053 60.2067 33.6993 58.8007C32.2933 57.3947 31.5024 55.4884 31.5 53.5V35.5C31.5024 33.5116 32.2933 31.6053 33.6993 30.1993C35.1053 28.7933 37.0116 28.0024 39 28H39.2565C39.5679 27.1232 40.1429 26.3643 40.9026 25.8272C41.6623 25.2901 42.5696 25.0011 43.5 25H46.5C47.4304 25.0011 48.3377 25.2901 49.0974 25.8272C49.8571 26.3643 50.4321 27.1232 50.7435 28H51C52.9884 28.0024 54.8947 28.7933 56.3007 30.1993C57.7067 31.6053 58.4976 33.5116 58.5 35.5ZM55.5 35.5C55.5 34.3065 55.0259 33.1619 54.182 32.318C53.3381 31.4741 52.1935 31 51 31H49.5C49.1022 31 48.7206 30.842 48.4393 30.5607C48.158 30.2794 48 29.8978 48 29.5C48 29.1022 47.842 28.7206 47.5607 28.4393C47.2794 28.158 46.8978 28 46.5 28H43.5C43.1022 28 42.7206 28.158 42.4393 28.4393C42.158 28.7206 42 29.1022 42 29.5C42 29.8978 41.842 30.2794 41.5607 30.5607C41.2794 30.842 40.8978 31 40.5 31H39C37.8065 31 36.6619 31.4741 35.818 32.318C34.9741 33.1619 34.5 34.3065 34.5 35.5V53.5C34.5 54.6935 34.9741 55.8381 35.818 56.682C36.6619 57.5259 37.8065 58 39 58H51C52.1935 58 53.3381 57.5259 54.182 56.682C55.0259 55.8381 55.5 54.6935 55.5 53.5V35.5Z" fill="#007BFF"/>
</g>
</g>
<defs>
<filter id="filter0_d_3426_445" x="0" y="0" width="90" height="90" filterUnits="userSpaceOnUse" color-interpolation-filters="sRGB">
<feFlood flood-opacity="0" result="BackgroundImageFix"/>
<feColorMatrix in="SourceAlpha" type="matrix" values="0 0 0 0 0 0 0 0 0 0 0 0 0 0 0 0 0 0 127 0" result="hardAlpha"/>
<feOffset dy="2"/>
<feGaussianBlur stdDeviation="5"/>
<feComposite in2="hardAlpha" operator="out"/>
<feColorMatrix type="matrix" values="0 0 0 0 0 0 0 0 0 0 0 0 0 0 0 0 0 0 0.15 0"/>
<feBlend mode="normal" in2="BackgroundImageFix" result="effect1_dropShadow_3426_445"/>
<feBlend mode="normal" in="SourceGraphic" in2="effect1_dropShadow_3426_445" result="shape"/>
</filter>
<clipPath id="clip0_3426_445">
<rect width="36" height="36" fill="white" transform="translate(27 25)"/>
</clipPath>
</defs>
</svg>
