<svg width="18" height="18" viewBox="0 0 18 18" fill="none" xmlns="http://www.w3.org/2000/svg">
<path d="M15.2905 1.62179C14.9256 1.2561 14.4403 1.05469 13.9239 1.05469H13.0518V0.878906C13.0518 0.394277 12.6575 0 12.1729 0H5.84473C5.3601 0 4.96582 0.394277 4.96582 0.878906V1.05469H4.09054C3.02667 1.05469 2.16018 1.92115 2.15898 2.98614L2.14453 16.0643C2.14397 16.5811 2.34461 17.0672 2.70949 17.4329C3.07442 17.7986 3.55975 18 4.07609 18H13.9094C14.9733 18 15.8398 17.1335 15.841 16.0686L15.8555 2.99043C15.8561 2.47352 15.6554 1.98745 15.2905 1.62179ZM6.02051 1.05469H11.9971V2.10938H6.02051V1.05469ZM14.7874 16.0674C14.7869 16.5515 14.393 16.9453 13.9094 16.9453H4.07609C3.84138 16.9453 3.62078 16.8538 3.45491 16.6875C3.28904 16.5213 3.19785 16.3004 3.1981 16.0655L3.21254 2.98733C3.21307 2.5032 3.60693 2.10938 4.09054 2.10938H4.96582V2.28516C4.96582 2.76979 5.3601 3.16406 5.84473 3.16406H12.1729C12.6575 3.16406 13.0518 2.76979 13.0518 2.28516V2.10938H13.9239C14.1586 2.10938 14.3792 2.20092 14.5451 2.36714C14.711 2.53336 14.8022 2.75432 14.8019 2.98923L14.7874 16.0674Z" fill="white" fill-opacity="0.7"/>
<path d="M9.17931 7.03126H12.9259C13.2172 7.03126 13.4533 6.79515 13.4533 6.50392C13.4533 6.21268 13.2172 5.97657 12.9259 5.97657H9.17931C8.88807 5.97657 8.65196 6.21268 8.65196 6.50392C8.65196 6.79515 8.88807 7.03126 9.17931 7.03126ZM9.17931 10.5469H12.9259C13.2172 10.5469 13.4533 10.3108 13.4533 10.0195C13.4533 9.72831 13.2172 9.4922 12.9259 9.4922H9.17931C8.88807 9.4922 8.65196 9.72831 8.65196 10.0195C8.65196 10.3108 8.88807 10.5469 9.17931 10.5469ZM12.941 13.0078H9.17931C8.88807 13.0078 8.65196 13.2439 8.65196 13.5352C8.65196 13.8264 8.88807 14.0625 9.17931 14.0625H12.941C13.2323 14.0625 13.4684 13.8264 13.4684 13.5352C13.4684 13.2439 13.2323 13.0078 12.941 13.0078ZM6.93483 5.06803L5.7187 6.28415L5.43197 5.99738C5.22602 5.79144 4.89214 5.79144 4.6862 5.99738C4.48025 6.20329 4.48025 6.53721 4.6862 6.74315L5.34583 7.40283C5.44473 7.50172 5.57886 7.55728 5.71872 7.55728C5.85858 7.55728 5.99271 7.50172 6.0916 7.40283L7.68063 5.81383C7.88658 5.60792 7.88658 5.27401 7.68063 5.06806C7.47469 4.86208 7.14081 4.86208 6.93483 5.06803ZM6.93483 8.85214L5.7187 10.0683L5.43197 9.78153C5.22602 9.57559 4.89214 9.57559 4.6862 9.78153C4.48025 9.98744 4.48025 10.3213 4.6862 10.5273L5.34583 11.187C5.44473 11.2859 5.57886 11.3414 5.71872 11.3414C5.85858 11.3414 5.99271 11.2859 6.0916 11.187L7.68063 9.59795C7.88658 9.39204 7.88658 9.05812 7.68063 8.85218C7.47469 8.64623 7.14077 8.64623 6.93483 8.85214ZM6.93483 12.3678L5.7187 13.5839L5.43197 13.2972C5.22602 13.0912 4.89214 13.0912 4.6862 13.2972C4.48025 13.5031 4.48025 13.8369 4.6862 14.0429L5.34583 14.7026C5.44473 14.8015 5.57886 14.8571 5.71872 14.8571C5.85858 14.8571 5.99271 14.8015 6.0916 14.7026L7.68063 13.1136C7.88658 12.9077 7.88658 12.5737 7.68063 12.3678C7.47469 12.1619 7.14077 12.1619 6.93483 12.3678Z" fill="white" fill-opacity="0.7"/>
</svg>
