<svg width="90" height="90" viewBox="0 0 90 90" fill="none" xmlns="http://www.w3.org/2000/svg">
<g filter="url(#filter0_d_3426_543)">
<rect x="10" y="8" width="70" height="70" rx="20" fill="white"/>
<g clip-path="url(#clip0_3426_543)">
<path d="M36 26.5C36 26.1022 36.158 25.7206 36.4393 25.4393C36.7206 25.158 37.1022 25 37.5 25H52.5C52.8978 25 53.2794 25.158 53.5607 25.4393C53.842 25.7206 54 26.1022 54 26.5C54 26.8978 53.842 27.2794 53.5607 27.5607C53.2794 27.842 52.8978 28 52.5 28H37.5C37.1022 28 36.7206 27.842 36.4393 27.5607C36.158 27.2794 36 26.8978 36 26.5ZM33 35.5H57C57.3978 35.5 57.7794 35.342 58.0607 35.0607C58.342 34.7794 58.5 34.3978 58.5 34C58.5 33.6022 58.342 33.2206 58.0607 32.9393C57.7794 32.658 57.3978 32.5 57 32.5H33C32.6022 32.5 32.2206 32.658 31.9393 32.9393C31.658 33.2206 31.5 33.6022 31.5 34C31.5 34.3978 31.658 34.7794 31.9393 35.0607C32.2206 35.342 32.6022 35.5 33 35.5ZM56.25 49H54V46.75C54 46.3522 53.842 45.9706 53.5607 45.6893C53.2794 45.408 52.8978 45.25 52.5 45.25C52.1022 45.25 51.7206 45.408 51.4393 45.6893C51.158 45.9706 51 46.3522 51 46.75V49H48.75C48.3522 49 47.9706 49.158 47.6893 49.4393C47.408 49.7206 47.25 50.1022 47.25 50.5C47.25 50.8978 47.408 51.2794 47.6893 51.5607C47.9706 51.842 48.3522 52 48.75 52H51V54.25C51 54.6478 51.158 55.0294 51.4393 55.3107C51.7206 55.592 52.1022 55.75 52.5 55.75C52.8978 55.75 53.2794 55.592 53.5607 55.3107C53.842 55.0294 54 54.6478 54 54.25V52H56.25C56.6478 52 57.0294 51.842 57.3107 51.5607C57.592 51.2794 57.75 50.8978 57.75 50.5C57.75 50.1022 57.592 49.7206 57.3107 49.4393C57.0294 49.158 56.6478 49 56.25 49ZM63 50.5C63 56.2885 58.29 61 52.5 61C46.71 61 42 56.2885 42 50.5C42 44.7115 46.71 40 52.5 40C58.29 40 63 44.7115 63 50.5ZM60 50.5C60 46.3645 56.6355 43 52.5 43C48.3645 43 45 46.3645 45 50.5C45 54.6355 48.3645 58 52.5 58C56.6355 58 60 54.6355 60 50.5ZM40.5 58H34.5C32.019 58 30 55.981 30 53.5V47.5C30 45.019 32.019 43 34.5 43H40.5C40.8978 43 41.2794 42.842 41.5607 42.5607C41.842 42.2794 42 41.8978 42 41.5C42 41.1022 41.842 40.7206 41.5607 40.4393C41.2794 40.158 40.8978 40 40.5 40H34.5C30.3645 40 27 43.3645 27 47.5V53.5C27 57.6355 30.3645 61 34.5 61H40.5C40.8978 61 41.2794 60.842 41.5607 60.5607C41.842 60.2794 42 59.8978 42 59.5C42 59.1022 41.842 58.7206 41.5607 58.4393C41.2794 58.158 40.8978 58 40.5 58Z" fill="#007BFF"/>
</g>
</g>
<defs>
<filter id="filter0_d_3426_543" x="0" y="0" width="90" height="90" filterUnits="userSpaceOnUse" color-interpolation-filters="sRGB">
<feFlood flood-opacity="0" result="BackgroundImageFix"/>
<feColorMatrix in="SourceAlpha" type="matrix" values="0 0 0 0 0 0 0 0 0 0 0 0 0 0 0 0 0 0 127 0" result="hardAlpha"/>
<feOffset dy="2"/>
<feGaussianBlur stdDeviation="5"/>
<feComposite in2="hardAlpha" operator="out"/>
<feColorMatrix type="matrix" values="0 0 0 0 0 0 0 0 0 0 0 0 0 0 0 0 0 0 0.15 0"/>
<feBlend mode="normal" in2="BackgroundImageFix" result="effect1_dropShadow_3426_543"/>
<feBlend mode="normal" in="SourceGraphic" in2="effect1_dropShadow_3426_543" result="shape"/>
</filter>
<clipPath id="clip0_3426_543">
<rect width="36" height="36" fill="white" transform="translate(27 25)"/>
</clipPath>
</defs>
</svg>
