<svg width="90" height="90" viewBox="0 0 90 90" fill="none" xmlns="http://www.w3.org/2000/svg">
<g filter="url(#filter0_d_3722_6504)">
<rect x="10" y="8" width="70" height="70" rx="20" fill="white"/>
<g clip-path="url(#clip0_3722_6504)">
<path d="M41.2501 37H48.7501C48.949 37 49.1398 37.079 49.2804 37.2197C49.4211 37.3603 49.5001 37.5511 49.5001 37.75C49.5001 37.9489 49.4211 38.1397 49.2804 38.2803C49.1398 38.421 48.949 38.5 48.7501 38.5H41.2501C41.0512 38.5 40.8604 38.421 40.7197 38.2803C40.5791 38.1397 40.5001 37.9489 40.5001 37.75C40.5001 37.5511 40.5791 37.3603 40.7197 37.2197C40.8604 37.079 41.0512 37 41.2501 37ZM40.5001 52.75C40.5001 52.9489 40.5791 53.1397 40.7197 53.2803C40.8604 53.421 41.0512 53.5 41.2501 53.5H57.7501C57.949 53.5 58.1398 53.421 58.2804 53.2803C58.4211 53.1397 58.5001 52.9489 58.5001 52.75C58.5001 52.5511 58.4211 52.3603 58.2804 52.2197C58.1398 52.079 57.949 52 57.7501 52H41.2501C41.0512 52 40.8604 52.079 40.7197 52.2197C40.5791 52.3603 40.5001 52.5511 40.5001 52.75ZM40.5001 45.25C40.5001 45.4489 40.5791 45.6397 40.7197 45.7803C40.8604 45.921 41.0512 46 41.2501 46H53.2501C53.449 46 53.6398 45.921 53.7804 45.7803C53.9211 45.6397 54.0001 45.4489 54.0001 45.25C54.0001 45.0511 53.9211 44.8603 53.7804 44.7197C53.6398 44.579 53.449 44.5 53.2501 44.5H41.2501C41.0512 44.5 40.8604 44.579 40.7197 44.7197C40.5791 44.8603 40.5001 45.0511 40.5001 45.25ZM41.2501 31.879C41.3983 31.879 41.5432 31.835 41.6665 31.7527C41.7897 31.6704 41.8858 31.5534 41.9426 31.4165C41.9995 31.2796 42.0144 31.1289 41.9857 30.9835C41.9569 30.8381 41.8857 30.7045 41.7811 30.5995L36.8416 25.6585C36.4191 25.2378 35.8471 25.0016 35.2508 25.0016C34.6546 25.0016 34.0826 25.2378 33.6601 25.6585L28.7191 30.598C28.5825 30.7395 28.5069 30.9289 28.5086 31.1256C28.5103 31.3222 28.5892 31.5103 28.7282 31.6494C28.8673 31.7884 29.0554 31.8673 29.252 31.869C29.4487 31.8707 29.6381 31.7951 29.7796 31.6585L34.5001 26.9395V60.25C34.5001 60.4489 34.5791 60.6397 34.7197 60.7803C34.8604 60.921 35.0512 61 35.2501 61C35.449 61 35.6398 60.921 35.7804 60.7803C35.9211 60.6397 36.0001 60.4489 36.0001 60.25V26.9395L40.7191 31.6585C40.7888 31.7282 40.8716 31.7835 40.9627 31.8211C41.0538 31.8587 41.1515 31.8793 41.2501 31.879ZM62.2501 59.5H41.2501C41.0512 59.5 40.8604 59.579 40.7197 59.7197C40.5791 59.8603 40.5001 60.0511 40.5001 60.25C40.5001 60.4489 40.5791 60.6397 40.7197 60.7803C40.8604 60.921 41.0512 61 41.2501 61H62.2501C62.449 61 62.6398 60.921 62.7804 60.7803C62.9211 60.6397 63.0001 60.4489 63.0001 60.25C63.0001 60.0511 62.9211 59.8603 62.7804 59.7197C62.6398 59.579 62.449 59.5 62.2501 59.5Z" fill="#007BFF"/>
</g>
</g>
<defs>
<filter id="filter0_d_3722_6504" x="0" y="0" width="90" height="90" filterUnits="userSpaceOnUse" color-interpolation-filters="sRGB">
<feFlood flood-opacity="0" result="BackgroundImageFix"/>
<feColorMatrix in="SourceAlpha" type="matrix" values="0 0 0 0 0 0 0 0 0 0 0 0 0 0 0 0 0 0 127 0" result="hardAlpha"/>
<feOffset dy="2"/>
<feGaussianBlur stdDeviation="5"/>
<feComposite in2="hardAlpha" operator="out"/>
<feColorMatrix type="matrix" values="0 0 0 0 0 0 0 0 0 0 0 0 0 0 0 0 0 0 0.15 0"/>
<feBlend mode="normal" in2="BackgroundImageFix" result="effect1_dropShadow_3722_6504"/>
<feBlend mode="normal" in="SourceGraphic" in2="effect1_dropShadow_3722_6504" result="shape"/>
</filter>
<clipPath id="clip0_3722_6504">
<rect width="36" height="36" fill="white" transform="translate(27 25)"/>
</clipPath>
</defs>
</svg>
