<svg width="18" height="18" viewBox="0 0 18 18" fill="none" xmlns="http://www.w3.org/2000/svg">
<path d="M11.2498 4.5C11.2498 2.01825 9.23152 0 6.74977 0C4.26802 0 2.24977 2.01825 2.24977 4.5C2.24977 6.98175 4.26802 9 6.74977 9C9.23152 9 11.2498 6.98175 11.2498 4.5ZM6.74977 7.5C5.09527 7.5 3.74977 6.1545 3.74977 4.5C3.74977 2.8455 5.09527 1.5 6.74977 1.5C8.40427 1.5 9.74977 2.8455 9.74977 4.5C9.74977 6.1545 8.40427 7.5 6.74977 7.5ZM6.74377 11.2035C6.75595 11.3013 6.74875 11.4005 6.72259 11.4954C6.69643 11.5904 6.65181 11.6793 6.59129 11.757C6.53076 11.8347 6.45552 11.8998 6.36985 11.9484C6.28419 11.9971 6.18978 12.0284 6.09202 12.0405C4.82373 12.2014 3.65763 12.8193 2.81214 13.7782C1.96666 14.7372 1.4998 15.9715 1.49902 17.25C1.49902 17.4489 1.42001 17.6397 1.27935 17.7803C1.1387 17.921 0.947936 18 0.749023 18C0.550111 18 0.359346 17.921 0.218693 17.7803C0.0780411 17.6397 -0.000976562 17.4489 -0.000976562 17.25C-0.000976562 13.8517 2.53852 10.9725 5.90602 10.5525C6.10334 10.5285 6.30213 10.5836 6.45897 10.7057C6.6158 10.8278 6.71792 11.0071 6.74302 11.2043L6.74377 11.2035ZM17.0218 14.3497L16.2913 13.9282C16.4158 13.5555 16.4998 13.164 16.4998 12.7493C16.4998 12.3345 16.4165 11.943 16.2913 11.5702L17.0218 11.1488C17.1926 11.0486 17.3169 10.8849 17.3676 10.6934C17.4182 10.502 17.391 10.2982 17.292 10.1267C17.193 9.95521 17.0301 9.82983 16.839 9.77794C16.6478 9.72605 16.4439 9.75186 16.2718 9.84975L15.542 10.2712C15.0091 9.66159 14.2923 9.24195 13.4998 9.07575V8.25C13.4998 8.05109 13.4208 7.86032 13.2801 7.71967C13.1395 7.57902 12.9487 7.5 12.7498 7.5C12.5509 7.5 12.3601 7.57902 12.2194 7.71967C12.0788 7.86032 11.9998 8.05109 11.9998 8.25V9.07575C11.2075 9.24251 10.4908 9.66205 9.95752 10.2712L9.22777 9.84975C9.0556 9.75186 8.85171 9.72605 8.66057 9.77794C8.46944 9.82983 8.3066 9.95521 8.20757 10.1267C8.10854 10.2982 8.08137 10.502 8.132 10.6934C8.18262 10.8849 8.30692 11.0486 8.47777 11.1488L9.20827 11.5702C9.08377 11.943 8.99977 12.3345 8.99977 12.7493C8.99977 13.164 9.08302 13.5555 9.20827 13.9282L8.47777 14.3497C8.30692 14.4499 8.18262 14.6136 8.132 14.8051C8.08137 14.9965 8.10854 15.2003 8.20757 15.3718C8.3066 15.5433 8.46944 15.6687 8.66057 15.7206C8.85171 15.7725 9.0556 15.7466 9.22777 15.6488L9.95752 15.2272C10.4904 15.8369 11.2073 16.2565 11.9998 16.4227V17.2485C11.9998 17.4474 12.0788 17.6382 12.2194 17.7788C12.3601 17.9195 12.5509 17.9985 12.7498 17.9985C12.9487 17.9985 13.1395 17.9195 13.2801 17.7788C13.4208 17.6382 13.4998 17.4474 13.4998 17.2485V16.4227C14.292 16.256 15.0087 15.8364 15.542 15.2272L16.2718 15.6488C16.357 15.6983 16.4512 15.7305 16.5489 15.7435C16.6466 15.7565 16.7459 15.7501 16.8411 15.7246C16.9363 15.6991 17.0256 15.655 17.1037 15.5949C17.1818 15.5347 17.2472 15.4598 17.2963 15.3743C17.3957 15.202 17.4227 14.9973 17.3712 14.8052C17.3197 14.613 17.194 14.4492 17.0218 14.3497ZM12.7498 14.9993C11.5093 14.9993 10.4998 13.9898 10.4998 12.7493C10.4998 11.5087 11.5093 10.4992 12.7498 10.4992C13.9903 10.4992 14.9998 11.5087 14.9998 12.7493C14.9998 13.9898 13.9903 14.9993 12.7498 14.9993Z" fill="white"/>
</svg>
