<svg width="90" height="90" viewBox="0 0 90 90" fill="none" xmlns="http://www.w3.org/2000/svg">
<g filter="url(#filter0_d_3426_531)">
<rect x="10" y="8" width="70" height="70" rx="20" fill="white"/>
<g clip-path="url(#clip0_3426_531)">
<path d="M37.5 31H63V34H37.5V31ZM37.5 41.5H63V44.5H37.5V41.5ZM37.5 52H63V55H37.5V52Z" fill="#007BFF"/>
<path d="M30 35.5C31.6569 35.5 33 34.1569 33 32.5C33 30.8431 31.6569 29.5 30 29.5C28.3431 29.5 27 30.8431 27 32.5C27 34.1569 28.3431 35.5 30 35.5Z" fill="#007BFF"/>
<path d="M30 46C31.6569 46 33 44.6569 33 43C33 41.3431 31.6569 40 30 40C28.3431 40 27 41.3431 27 43C27 44.6569 28.3431 46 30 46Z" fill="#007BFF"/>
<path d="M30 56.5C31.6569 56.5 33 55.1569 33 53.5C33 51.8431 31.6569 50.5 30 50.5C28.3431 50.5 27 51.8431 27 53.5C27 55.1569 28.3431 56.5 30 56.5Z" fill="#007BFF"/>
</g>
</g>
<defs>
<filter id="filter0_d_3426_531" x="0" y="0" width="90" height="90" filterUnits="userSpaceOnUse" color-interpolation-filters="sRGB">
<feFlood flood-opacity="0" result="BackgroundImageFix"/>
<feColorMatrix in="SourceAlpha" type="matrix" values="0 0 0 0 0 0 0 0 0 0 0 0 0 0 0 0 0 0 127 0" result="hardAlpha"/>
<feOffset dy="2"/>
<feGaussianBlur stdDeviation="5"/>
<feComposite in2="hardAlpha" operator="out"/>
<feColorMatrix type="matrix" values="0 0 0 0 0 0 0 0 0 0 0 0 0 0 0 0 0 0 0.15 0"/>
<feBlend mode="normal" in2="BackgroundImageFix" result="effect1_dropShadow_3426_531"/>
<feBlend mode="normal" in="SourceGraphic" in2="effect1_dropShadow_3426_531" result="shape"/>
</filter>
<clipPath id="clip0_3426_531">
<rect width="36" height="36" fill="white" transform="translate(27 25)"/>
</clipPath>
</defs>
</svg>
