<svg width="90" height="90" viewBox="0 0 90 90" fill="none" xmlns="http://www.w3.org/2000/svg">
<g filter="url(#filter0_d_3722_6466)">
<rect x="10" y="8" width="70" height="70" rx="20" fill="white"/>
<path d="M58.9914 32.9533L51.567 25.5292C51.5018 25.4637 51.3919 25.4219 51.3081 25.4219H34.3099C32.4303 25.4219 30.9011 26.9509 30.9011 28.8304V57.1694C30.9011 59.0489 32.4303 60.5781 34.3099 60.5781H44.9999C45.4841 60.5781 45.4847 59.8457 44.9999 59.8457H34.3099C32.8342 59.8457 31.6336 58.6451 31.6336 57.1694V28.8304C31.6336 27.3548 32.8342 26.1543 34.3099 26.1543H50.9419V30.1674C50.9419 32.0483 52.472 33.5785 54.3529 33.5785C54.595 33.5785 54.7162 33.3954 54.7163 33.2124H56.3245C56.3244 33.3954 56.4455 33.5785 56.6879 33.5785H58.3662V57.1694C58.3662 58.6451 57.1657 59.8457 55.6899 59.8457H49.8568C49.3726 59.8457 49.372 60.5781 49.8568 60.5781H55.6899C57.5695 60.5781 59.0987 59.0489 59.0987 57.1694V33.2123C59.0987 33.1399 59.0599 33.0218 58.9914 32.9533Z" fill="#007BFF"/>
<path d="M36.6056 48.9429H53.396C53.8803 48.9429 53.8808 48.2104 53.396 48.2104H36.6056C36.1214 48.2104 36.1207 48.9429 36.6056 48.9429ZM36.6056 52.6846H53.396C53.8803 52.6846 53.8808 51.9521 53.396 51.9521H36.6056C36.1214 51.9521 36.1207 52.6846 36.6056 52.6846ZM36.6056 56.4262H53.396C53.8803 56.4262 53.8808 55.6938 53.396 55.6938H36.6056C36.1214 55.6938 36.1207 56.4262 36.6056 56.4262ZM50.0184 43.2156C50.7871 42.1549 51.1934 40.9 51.1934 39.5863C51.1934 36.1716 48.4154 33.3936 45.0007 33.3936C41.5861 33.3936 38.8082 36.1716 38.8082 39.5863C38.8082 43.0009 41.5861 45.779 45.0007 45.779C45.485 45.779 45.4855 45.0465 45.0007 45.0465C41.99 45.0465 39.5406 42.5971 39.5406 39.5863C39.5406 36.5754 41.99 34.126 45.0007 34.126C48.0116 34.126 50.461 36.5754 50.461 39.5863C50.461 40.7446 50.1028 41.851 49.4255 42.7858C49.1404 43.179 49.735 43.6068 50.0184 43.2156Z" fill="#007BFF"/>
<path d="M45.3668 42.117V39.9525H47.5315C48.0158 39.9525 48.0163 39.22 47.5315 39.22H45.3668V37.0553C45.3668 36.5711 44.6344 36.5704 44.6344 37.0553V39.22H42.4698C41.9856 39.22 41.985 39.9525 42.4698 39.9525H44.6344V42.117C44.6344 42.6013 45.3668 42.6019 45.3668 42.117Z" fill="#007BFF"/>
</g>
<defs>
<filter id="filter0_d_3722_6466" x="0" y="0" width="90" height="90" filterUnits="userSpaceOnUse" color-interpolation-filters="sRGB">
<feFlood flood-opacity="0" result="BackgroundImageFix"/>
<feColorMatrix in="SourceAlpha" type="matrix" values="0 0 0 0 0 0 0 0 0 0 0 0 0 0 0 0 0 0 127 0" result="hardAlpha"/>
<feOffset dy="2"/>
<feGaussianBlur stdDeviation="5"/>
<feComposite in2="hardAlpha" operator="out"/>
<feColorMatrix type="matrix" values="0 0 0 0 0 0 0 0 0 0 0 0 0 0 0 0 0 0 0.15 0"/>
<feBlend mode="normal" in2="BackgroundImageFix" result="effect1_dropShadow_3722_6466"/>
<feBlend mode="normal" in="SourceGraphic" in2="effect1_dropShadow_3722_6466" result="shape"/>
</filter>
</defs>
</svg>
