<svg width="91" height="90" viewBox="0 0 91 90" fill="none" xmlns="http://www.w3.org/2000/svg">
<g filter="url(#filter0_d_3722_6511)">
<rect x="10.5" y="8" width="70" height="70" rx="20" fill="white"/>
<path fill-rule="evenodd" clip-rule="evenodd" d="M52.4173 55.6113L52.2351 56.7115C52.2045 56.9069 52.2524 57.1064 52.3682 57.2666C52.484 57.4269 52.6584 57.5349 52.8534 57.5672C53.0485 57.5996 53.2484 57.5536 53.4097 57.4392C53.571 57.3249 53.6807 57.1515 53.7148 56.9568L54.1768 54.1713C54.1929 54.0741 54.1897 53.9746 54.1673 53.8787C54.145 53.7827 54.1039 53.6921 54.0465 53.612C53.9891 53.5319 53.9165 53.4639 53.8328 53.4118C53.7492 53.3598 53.656 53.3248 53.5588 53.3088L50.7733 52.8468C50.6761 52.8307 50.5767 52.8339 50.4807 52.8562C50.3847 52.8785 50.2941 52.9195 50.214 52.9769C50.1338 53.0342 50.0658 53.1068 50.0137 53.1905C49.9616 53.2741 49.9265 53.3672 49.9104 53.4644C49.8943 53.5616 49.8975 53.6611 49.9199 53.757C49.9422 53.853 49.9832 53.9436 50.0405 54.0238C50.0979 54.1039 50.1705 54.1719 50.2541 54.224C50.3378 54.2761 50.4308 54.3112 50.5281 54.3273L51.3793 54.4683C49.81 55.2917 48.0848 55.7752 46.3161 55.8873C39.3418 56.3373 33.3133 51.0408 32.8633 44.0665C32.8505 43.868 32.7593 43.6827 32.6099 43.5514C32.4604 43.4201 32.2649 43.3536 32.0664 43.3664C31.8679 43.3792 31.6826 43.4704 31.5513 43.6198C31.42 43.7693 31.3535 43.9648 31.3663 44.1633C31.8703 51.964 38.6121 57.8875 46.4128 57.3843C48.5219 57.2507 50.5739 56.6447 52.4173 55.6113ZM53.3098 38.2375C53.3098 36.6925 52.0573 35.4408 50.5131 35.4408H40.4871C39.7453 35.4408 39.034 35.7354 38.5095 36.2599C37.985 36.7844 37.6903 37.4958 37.6903 38.2375V48.2628C37.6903 49.8078 38.9428 51.0595 40.4871 51.0595H50.5131C51.2548 51.0595 51.9662 50.7649 52.4907 50.2404C53.0152 49.7159 53.3098 49.0045 53.3098 48.2628V38.2375ZM48.8511 36.9408V40.2625C48.8509 40.5088 48.7861 40.7506 48.6632 40.964C48.5402 41.1773 48.3634 41.3546 48.1504 41.4781C47.9374 41.6017 47.6957 41.6671 47.4495 41.6679C47.2032 41.6688 46.9611 41.6049 46.7473 41.4828L45.5001 40.7695L44.2528 41.4828C44.039 41.6049 43.7969 41.6688 43.5507 41.6679C43.3044 41.6671 43.0627 41.6017 42.8497 41.4781C42.6367 41.3546 42.4599 41.1773 42.337 40.964C42.214 40.7506 42.1492 40.5088 42.1491 40.2625V36.9408H40.4871C39.7708 36.9408 39.1903 37.5213 39.1903 38.2375V48.2628C39.1903 48.979 39.7708 49.5595 40.4871 49.5595H50.5131C51.2293 49.5595 51.8098 48.979 51.8098 48.2628V38.2368C51.8098 37.5213 51.2293 36.9408 50.5131 36.9408H48.8511ZM46.8006 48.6445H50.5161C50.715 48.6445 50.9057 48.5655 51.0464 48.4249C51.187 48.2842 51.2661 48.0934 51.2661 47.8945C51.2661 47.6956 51.187 47.5049 51.0464 47.3642C50.9057 47.2236 50.715 47.1445 50.5161 47.1445H46.8006C46.6016 47.1445 46.4109 47.2236 46.2702 47.3642C46.1296 47.5049 46.0506 47.6956 46.0506 47.8945C46.0506 48.0934 46.1296 48.2842 46.2702 48.4249C46.4109 48.5655 46.6016 48.6445 46.8006 48.6445ZM46.8006 46.5078H50.5161C50.715 46.5078 50.9057 46.4288 51.0464 46.2881C51.187 46.1475 51.2661 45.9567 51.2661 45.7578C51.2661 45.5589 51.187 45.3681 51.0464 45.2275C50.9057 45.0868 50.715 45.0078 50.5161 45.0078H46.8006C46.6074 45.0164 46.4251 45.0992 46.2915 45.2389C46.1579 45.3786 46.0834 45.5645 46.0834 45.7578C46.0834 45.9511 46.1579 46.1369 46.2915 46.2766C46.4251 46.4164 46.6074 46.4991 46.8006 46.5078ZM40.7811 31.4958C42.027 30.9965 43.3445 30.6985 44.6841 30.613C51.6583 30.1623 57.6868 35.4595 58.1368 42.4338C58.1496 42.6323 58.2408 42.8176 58.3902 42.9489C58.4642 43.0139 58.5503 43.0637 58.6436 43.0954C58.7368 43.1272 58.8354 43.1403 58.9337 43.1339C59.032 43.1276 59.1281 43.1019 59.2164 43.0584C59.3048 43.0149 59.3838 42.9545 59.4488 42.8805C59.5138 42.8065 59.5636 42.7204 59.5953 42.6272C59.6271 42.5339 59.6402 42.4353 59.6338 42.337C59.1298 34.5363 52.3881 28.612 44.5873 29.116C42.9591 29.221 41.4126 29.5983 39.9898 30.1998L40.1406 29.2878C40.1711 29.0924 40.1232 28.893 40.0074 28.7327C39.8916 28.5725 39.7172 28.4644 39.5222 28.4321C39.3271 28.3998 39.1272 28.4458 38.9659 28.5601C38.8046 28.6744 38.6949 28.8478 38.6608 29.0425L38.1996 31.8288C38.167 32.025 38.2138 32.2261 38.3296 32.3879C38.4453 32.5496 38.6206 32.6588 38.8168 32.6913L41.6031 33.1525C41.7949 33.1754 41.9881 33.1234 42.1426 33.0074C42.2971 32.8915 42.4009 32.7204 42.4325 32.5298C42.4641 32.3392 42.421 32.1438 42.3122 31.9842C42.2034 31.8246 42.0373 31.713 41.8483 31.6728L40.7811 31.4958ZM47.3511 40.0998L45.8721 39.2545C45.7587 39.19 45.6305 39.1561 45.5001 39.1561C45.3696 39.1561 45.2414 39.19 45.1281 39.2545L43.6491 40.0998V36.9408H47.3511V40.0998Z" fill="#007BFF"/>
</g>
<defs>
<filter id="filter0_d_3722_6511" x="0.5" y="0" width="90" height="90" filterUnits="userSpaceOnUse" color-interpolation-filters="sRGB">
<feFlood flood-opacity="0" result="BackgroundImageFix"/>
<feColorMatrix in="SourceAlpha" type="matrix" values="0 0 0 0 0 0 0 0 0 0 0 0 0 0 0 0 0 0 127 0" result="hardAlpha"/>
<feOffset dy="2"/>
<feGaussianBlur stdDeviation="5"/>
<feComposite in2="hardAlpha" operator="out"/>
<feColorMatrix type="matrix" values="0 0 0 0 0 0 0 0 0 0 0 0 0 0 0 0 0 0 0.15 0"/>
<feBlend mode="normal" in2="BackgroundImageFix" result="effect1_dropShadow_3722_6511"/>
<feBlend mode="normal" in="SourceGraphic" in2="effect1_dropShadow_3722_6511" result="shape"/>
</filter>
</defs>
</svg>
