<svg width="90" height="90" viewBox="0 0 90 90" fill="none" xmlns="http://www.w3.org/2000/svg">
<g filter="url(#filter0_d_3722_6444)">
<rect x="10" y="8" width="70" height="70" rx="20" fill="white"/>
<g clip-path="url(#clip0_3722_6444)">
<path d="M60.2266 47.5253C59.7313 47.5253 59.33 47.9266 59.33 48.4219V56.3826C59.3282 57.8675 58.1252 59.0709 56.6402 59.0724H31.4829C29.9979 59.0709 28.795 57.8675 28.7932 56.3826V33.0185C28.795 31.5338 29.998 30.3305 31.4829 30.3287H39.4437C39.9389 30.3287 40.3403 29.9273 40.3403 29.4321C40.3403 28.9372 39.9389 28.5355 39.4437 28.5355H31.4829C29.0082 28.5383 27.0028 30.5437 27 33.0185V56.383C27.0028 58.8576 29.0082 60.863 31.4829 60.8659H56.6402C59.1149 60.863 61.1204 58.8576 61.1232 56.383V48.4219C61.1232 47.9266 60.7218 47.5253 60.2266 47.5253Z" fill="#007BFF"/>
<path d="M60.7681 26.2285C59.1924 24.6528 56.6378 24.6528 55.0622 26.2285L39.0664 42.2242C38.9569 42.3337 38.8777 42.4697 38.8363 42.6189L36.7329 50.213C36.6904 50.3659 36.6893 50.5273 36.7297 50.6808C36.77 50.8342 36.8504 50.9742 36.9626 51.0865C37.0748 51.1987 37.2148 51.2791 37.3682 51.3195C37.5217 51.36 37.6831 51.3589 37.836 51.3165L45.4301 49.2127C45.5793 49.1714 45.7153 49.0921 45.8248 48.9826L61.8201 32.9866C63.3933 31.4098 63.3933 28.8574 61.8201 27.2806L60.7681 26.2285ZM41.02 42.807L54.1113 29.7154L58.3333 33.9374L45.2417 47.029L41.02 42.807ZM40.1767 44.4993L43.5496 47.8727L38.884 49.1654L40.1767 44.4993ZM60.5524 31.7187L59.6015 32.6695L55.3791 28.4471L56.3304 27.4963C57.2056 26.621 58.6247 26.621 59.4999 27.4963L60.5524 28.5483C61.4262 29.4246 61.4262 30.8428 60.5524 31.7187Z" fill="#007BFF"/>
</g>
</g>
<defs>
<filter id="filter0_d_3722_6444" x="0" y="0" width="90" height="90" filterUnits="userSpaceOnUse" color-interpolation-filters="sRGB">
<feFlood flood-opacity="0" result="BackgroundImageFix"/>
<feColorMatrix in="SourceAlpha" type="matrix" values="0 0 0 0 0 0 0 0 0 0 0 0 0 0 0 0 0 0 127 0" result="hardAlpha"/>
<feOffset dy="2"/>
<feGaussianBlur stdDeviation="5"/>
<feComposite in2="hardAlpha" operator="out"/>
<feColorMatrix type="matrix" values="0 0 0 0 0 0 0 0 0 0 0 0 0 0 0 0 0 0 0.15 0"/>
<feBlend mode="normal" in2="BackgroundImageFix" result="effect1_dropShadow_3722_6444"/>
<feBlend mode="normal" in="SourceGraphic" in2="effect1_dropShadow_3722_6444" result="shape"/>
</filter>
<clipPath id="clip0_3722_6444">
<rect width="36" height="36" fill="white" transform="translate(27 25)"/>
</clipPath>
</defs>
</svg>
