<svg width="31" height="30" viewBox="0 0 31 30" fill="none" xmlns="http://www.w3.org/2000/svg">
<g clip-path="url(#clip0_5747_2352)">
<path d="M20.3912 15.3667H1.47826C0.938261 15.3667 0.5 14.9284 0.5 14.3884C0.5 13.8484 0.938261 13.4102 1.47826 13.4102H20.3912C20.9312 13.4102 21.3695 13.8484 21.3695 14.3884C21.3695 14.9284 20.9312 15.3667 20.3912 15.3667Z" fill="white"/>
<path d="M15.1734 20.584C14.9228 20.584 14.6726 20.4889 14.4819 20.2972C14.0998 19.915 14.0998 19.2955 14.4819 18.9131L19.0081 14.3872L14.4819 9.86108C14.0998 9.47895 14.0998 8.85916 14.4819 8.47703C14.8643 8.0949 15.4838 8.0949 15.866 8.47703L21.0833 13.6946C21.4654 14.0767 21.4654 14.6963 21.0833 15.0784L15.866 20.2957C15.7754 20.3873 15.6675 20.4599 15.5486 20.5094C15.4297 20.5589 15.3022 20.5843 15.1734 20.584Z" fill="white"/>
<path d="M16.1527 28.7363C10.2165 28.7363 4.97577 25.1651 2.79883 19.637C2.60061 19.1362 2.84823 18.5676 3.35051 18.3693C3.85138 18.1737 4.42146 18.4176 4.61968 18.9224C6.49928 23.695 11.0267 26.7798 16.1527 26.7798C22.9847 26.7798 28.5441 21.2205 28.5441 14.3884C28.5441 7.55638 22.9847 1.99705 16.1527 1.99705C11.0266 1.99705 6.49928 5.08181 4.61968 9.85443C4.41999 10.3593 3.85138 10.6032 3.35051 10.4076C2.84823 10.2093 2.60061 9.64068 2.79883 9.13981C4.97577 3.61179 10.2165 0.0405273 16.1527 0.0405273C24.0636 0.0405273 30.5006 6.47754 30.5006 14.3884C30.5006 22.2993 24.0636 28.7363 16.1527 28.7363Z" fill="white"/>
</g>
<defs>
<clipPath id="clip0_5747_2352">
<rect width="30" height="30" fill="white" transform="translate(0.5)"/>
</clipPath>
</defs>
</svg>
