<svg width="202" height="107" viewBox="0 0 202 107" fill="none" xmlns="http://www.w3.org/2000/svg">
<rect x="67" width="68" height="68" rx="34" fill="#FA005A"/>
<path d="M101.5 23.6035L90.0417 43.3952H112.958L101.5 23.6035Z" stroke="white" stroke-width="2" stroke-linejoin="round"/>
<path d="M101.5 39.2279V39.7487M101.5 30.8945L101.504 36.1029" stroke="white" stroke-width="2" stroke-linecap="round"/>
<path d="M4.77117 101V87.22L10.7912 87.2C13.9112 87.2 15.3512 88.44 15.3512 90.48C15.3512 91.92 14.5512 92.96 13.3912 93.32L12.3112 93.24V93.54C14.5312 93.82 15.6712 95.08 15.6712 97.02C15.6712 99.3 14.0312 101 10.7112 101H4.77117ZM7.67117 98.88H10.3312C12.0912 98.88 12.7912 98.14 12.7912 96.86C12.7912 95.58 12.0912 94.82 10.3312 94.82H7.67117V98.88ZM7.67117 92.86H10.2512C11.7512 92.86 12.3912 92.16 12.3912 91.04C12.3912 89.96 11.7912 89.28 10.2512 89.28H7.67117V92.86ZM17.7595 101V87.2H27.1395V89.58H20.5395V92.82H26.1795V95.08H20.5395V98.64H27.2395V101H17.7595ZM29.322 101V87.2H32.322V98.32H38.342V101H29.322ZM45.3712 101.22C41.8112 101.22 39.7712 99.12 39.7712 95.34V87.2H42.7912V95.56C42.7912 97.56 43.7312 98.6 45.3912 98.6C47.0512 98.6 47.9912 97.58 47.9912 95.56V87.2H50.9512V95.34C50.9512 99.12 48.9112 101.22 45.3712 101.22ZM53.5993 101V87.2H58.2193L60.8193 96.36L60.9793 97.44H61.3793L61.5193 96.36L64.1393 87.2H68.5993V101H65.9193L66.0793 91.6V90.44H65.6793L65.4993 91.48L62.6593 101H59.5993L56.7593 91.48L56.5993 90.44H56.1793V91.6L56.3393 101H53.5993ZM76.0016 101V87.2H80.6216L83.2216 96.36L83.3816 97.44H83.7816L83.9216 96.36L86.5416 87.2H91.0016V101H88.3216L88.4816 91.6V90.44H88.0816L87.9016 91.48L85.0616 101H82.0016L79.1616 91.48L79.0016 90.44H78.5816V91.6L78.7416 101H76.0016ZM93.6384 101V87.2H103.018V89.58H96.4184V92.82H102.058V95.08H96.4184V98.64H103.118V101H93.6384ZM105.201 101V87.2H108.201V98.32H114.221V101H105.201ZM115.023 101V100.54L119.403 87.2H123.523L127.903 100.52V101H125.043L124.283 98.64H118.603L117.863 101H115.023ZM119.323 96.36H123.563L121.823 90.92L121.603 89.56H121.223L121.023 90.92L119.323 96.36ZM129.595 101V87.2H132.595L137.835 95.22L138.275 96.48H138.715L138.535 95.12L138.455 87.2H141.135V101H138.155L132.955 92.96L132.495 91.72H132.075L132.235 93.08L132.295 101H129.595ZM149.135 101.2C145.635 101.2 143.375 98.64 143.375 94.1C143.375 89.56 145.615 87 149.635 87C153.115 87 155.175 88.9 155.495 91.98H152.415C152.135 90.38 151.155 89.4 149.635 89.4C147.615 89.4 146.475 91.06 146.475 94.14C146.475 97.14 147.615 98.8 149.675 98.8C151.495 98.8 152.375 97.52 152.515 95.52H149.215V93.62H155.475V101H153.375V99.92L153.715 98.6H153.315C152.735 99.96 151.555 101.2 149.135 101.2ZM163.276 101.2C159.776 101.2 157.516 98.64 157.516 94.1C157.516 89.56 159.756 87 163.776 87C167.256 87 169.316 88.9 169.636 91.98H166.556C166.276 90.38 165.296 89.4 163.776 89.4C161.756 89.4 160.616 91.06 160.616 94.14C160.616 97.14 161.756 98.8 163.816 98.8C165.636 98.8 166.516 97.52 166.656 95.52H163.356V93.62H169.616V101H167.516V99.92L167.856 98.6H167.456C166.876 99.96 165.696 101.2 163.276 101.2ZM171.116 101V100.54L175.496 87.2H179.616L183.996 100.52V101H181.136L180.376 98.64H174.696L173.956 101H171.116ZM175.416 96.36H179.656L177.916 90.92L177.696 89.56H177.316L177.116 90.92L175.416 96.36ZM185.689 101V87.2H188.689L193.929 95.22L194.369 96.48H194.809L194.629 95.12L194.549 87.2H197.229V101H194.249L189.049 92.96L188.589 91.72H188.169L188.329 93.08L188.389 101H185.689Z" fill="#FA005A"/>
</svg>
