<svg width="202" height="126" viewBox="0 0 202 126" fill="none" xmlns="http://www.w3.org/2000/svg">
<rect x="67" width="68" height="68" rx="34" fill="#FA005A"/>
<path d="M101.5 23.6035L90.0417 43.3952H112.958L101.5 23.6035Z" stroke="white" stroke-width="2" stroke-linejoin="round"/>
<path d="M101.5 39.2279V39.7487M101.5 30.8945L101.504 36.1029" stroke="white" stroke-width="2" stroke-linecap="round"/>
<path d="M4.58711 101V89.66H0.707109V87.2H11.2671V89.66H7.40711V101H4.58711ZM13.0934 101V87.2H16.0934V101H13.0934ZM17.8741 101V100.54L22.2541 87.2H26.3741L30.7541 100.52V101H27.8941L27.1341 98.64H21.4541L20.7141 101H17.8741ZM22.1741 96.36H26.4141L24.6741 90.92L24.4541 89.56H24.0741L23.8741 90.92L22.1741 96.36ZM32.447 101V87.2H37.807C42.187 87.2 44.127 89.54 44.127 94.1C44.127 98.66 42.187 101 37.807 101H32.447ZM35.447 98.6H37.667C40.007 98.6 40.987 97.04 40.987 94.1C40.987 91.14 40.007 89.6 37.667 89.6H35.447V98.6ZM44.7296 101V100.54L49.1096 87.2H53.2296L57.6096 100.52V101H54.7496L53.9896 98.64H48.3096L47.5696 101H44.7296ZM49.0296 96.36H53.2696L51.5296 90.92L51.3096 89.56H50.9296L50.7296 90.92L49.0296 96.36ZM64.068 101V87.2H69.428C73.808 87.2 75.748 89.54 75.748 94.1C75.748 98.66 73.808 101 69.428 101H64.068ZM67.068 98.6H69.288C71.628 98.6 72.608 97.04 72.608 94.1C72.608 91.14 71.628 89.6 69.288 89.6H67.068V98.6ZM76.3507 101V100.54L80.7307 87.2H84.8507L89.2307 100.52V101H86.3707L85.6107 98.64H79.9307L79.1907 101H76.3507ZM80.6507 96.36H84.8907L83.1507 90.92L82.9307 89.56H82.5507L82.3507 90.92L80.6507 96.36ZM90.9235 101V87.2H93.9235V98.32H99.9435V101H90.9235ZM100.745 101V100.54L105.125 87.2H109.245L113.625 100.52V101H110.765L110.005 98.64H104.325L103.585 101H100.745ZM105.045 96.36H109.285L107.545 90.92L107.325 89.56H106.945L106.745 90.92L105.045 96.36ZM115.318 101V87.2H119.938L122.538 96.36L122.698 97.44H123.098L123.238 96.36L125.858 87.2H130.318V101H127.638L127.798 91.6V90.44H127.398L127.218 91.48L124.378 101H121.318L118.478 91.48L118.318 90.44H117.898V91.6L118.058 101H115.318ZM137.72 101V87.2H143.94C147.26 87.2 148.66 88.64 148.66 90.82C148.66 92.4 147.82 93.6 146.6 94.02L145.5 93.92V94.24C147.5 94.44 148.5 95.44 148.5 97.58V99.28C148.5 99.86 148.52 100.28 148.84 100.58V101H145.82C145.54 100.68 145.42 100.2 145.42 99.54V97.84C145.42 96.48 144.86 95.8 143.16 95.8H140.72V101H137.72ZM140.72 93.56H143.14C144.86 93.56 145.56 92.7 145.56 91.48C145.56 90.2 144.92 89.42 143.14 89.42H140.72V93.56ZM150.963 101V87.2H160.343V89.58H153.743V92.82H159.383V95.08H153.743V98.64H160.443V101H150.963ZM162.525 101V87.2H165.525V93.26H165.885L166.085 92.62L170.645 87.2H174.045V87.7L168.645 94.12L174.065 100.5V101H170.705L166.085 95.7L165.885 95.06H165.525V101H162.525ZM180.631 101.22C176.591 101.22 174.371 98.66 174.371 94.12C174.371 89.54 176.591 86.98 180.631 86.98C184.671 86.98 186.871 89.54 186.871 94.12C186.871 98.66 184.691 101.22 180.631 101.22ZM177.491 94.12C177.491 97.16 178.571 98.78 180.631 98.78C182.731 98.78 183.751 97.14 183.751 94.1C183.751 91.02 182.711 89.4 180.631 89.4C178.571 89.4 177.491 91.02 177.491 94.12ZM189.107 101V87.2H194.467C198.847 87.2 200.787 89.54 200.787 94.1C200.787 98.66 198.847 101 194.467 101H189.107ZM192.107 98.6H194.327C196.667 98.6 197.647 97.04 197.647 94.1C197.647 91.14 196.667 89.6 194.327 89.6H192.107V98.6Z" fill="#FA005A"/>
<path d="M7.11256 121.144C4.34456 121.144 2.79256 120.008 2.60056 117.816H5.00056C5.17656 118.936 5.96056 119.48 7.20856 119.48C8.37656 119.48 9.14456 118.936 9.14456 118.024C9.14456 117.256 8.66456 116.792 7.46456 116.472L5.51256 116.024C3.65656 115.544 2.77656 114.504 2.77656 113C2.77656 111.048 4.34456 109.784 7.11256 109.784C9.72056 109.784 11.2246 110.984 11.4006 113.048H9.03256C8.85656 111.896 8.05656 111.448 7.04856 111.448C5.92856 111.448 5.25656 111.976 5.25656 112.792C5.25656 113.448 5.65656 113.88 6.64856 114.152L8.61656 114.616C10.7926 115.176 11.6726 116.248 11.6726 117.768C11.6726 119.88 9.97656 121.144 7.11256 121.144ZM13.1546 121V112.872H15.4266V121H13.1546ZM13.0906 111.656V109.48H15.4586V111.656H13.0906ZM17.3119 121V109.48H19.5679V121H17.3119ZM23.8667 121.16C22.0427 121.16 21.0667 120.264 21.0667 118.904C21.0667 117.528 21.8987 116.664 24.0907 116.408L26.4267 116.136V115.72C26.4267 114.76 25.8987 114.248 24.9227 114.248C23.9467 114.248 23.4347 114.744 23.4187 115.64H21.2267C21.2427 113.72 22.6187 112.696 24.9707 112.696C27.4827 112.696 28.6827 113.784 28.6827 115.816V121H26.9227V120.36L27.0987 119.592H26.8587C26.4587 120.392 25.5467 121.16 23.8667 121.16ZM23.2907 118.664C23.2907 119.288 23.7227 119.624 24.4747 119.624C25.5947 119.624 26.4267 118.936 26.4267 117.88V117.448L24.5227 117.656C23.6267 117.768 23.2907 118.12 23.2907 118.664ZM34.1211 121V109.48H36.3771V112.872L35.8811 113.544L35.7211 114.248H35.9131C36.3291 113.448 37.2731 112.696 38.8571 112.696C40.7291 112.696 41.7211 113.72 41.7211 115.48V121H39.4651V115.96C39.4651 114.984 39.0011 114.472 38.1051 114.472C37.0811 114.472 36.3771 115.112 36.3771 116.248V121H34.1211ZM46.1711 121.16C44.3471 121.16 43.3711 120.136 43.3711 118.36V112.872H45.6271V117.912C45.6271 118.872 46.0751 119.4 46.9391 119.4C47.8991 119.4 48.5711 118.744 48.5711 117.608V112.872H50.8431V121H49.0671V120.376L49.2271 119.608H49.0351C48.6351 120.408 47.7231 121.16 46.1711 121.16ZM57.1044 121.16C55.6004 121.16 54.7044 120.408 54.2884 119.576H54.0804L54.2564 120.344V121H52.4804V109.48H54.7524V112.984L54.2564 113.624L54.0804 114.296H54.2884C54.7044 113.448 55.6004 112.696 57.0884 112.696C59.1524 112.696 60.4484 114.248 60.4484 116.936C60.4484 119.608 59.1684 121.16 57.1044 121.16ZM54.7044 116.92C54.7364 118.504 55.3124 119.448 56.4164 119.448C57.5204 119.448 58.1444 118.488 58.1284 116.92C58.1124 115.368 57.5364 114.408 56.4164 114.408C55.3124 114.408 54.6884 115.368 54.7044 116.92ZM64.6867 121.16C62.8627 121.16 61.8867 120.136 61.8867 118.36V112.872H64.1427V117.912C64.1427 118.872 64.5907 119.4 65.4547 119.4C66.4147 119.4 67.0867 118.744 67.0867 117.608V112.872H69.3587V121H67.5827V120.376L67.7427 119.608H67.5507C67.1507 120.408 66.2387 121.16 64.6867 121.16ZM70.9961 121V112.872H72.7561V113.496L72.5961 114.264H72.7881C73.2041 113.448 74.1161 112.696 75.7161 112.696C77.5721 112.696 78.5801 113.72 78.5801 115.48V121H76.3241V115.96C76.3241 114.984 75.8601 114.472 74.9641 114.472C73.9401 114.472 73.2521 115.128 73.2521 116.264V121H70.9961ZM83.9428 124.104C81.5428 124.104 80.2148 123.048 80.0708 121.192H82.3268C82.4228 122.008 82.9668 122.536 83.9588 122.536C85.0628 122.536 85.6388 121.896 85.6868 120.632L86.1668 119.848L86.3428 119.16H86.1508C85.7348 119.992 84.8228 120.744 83.3188 120.744C81.1748 120.744 79.9908 119.224 79.9908 116.696C79.9908 114.232 81.1748 112.696 83.3188 112.696C84.8228 112.696 85.7188 113.432 86.1348 114.248H86.3428L86.1668 113.496V112.872H88.0548V120.472C88.0548 122.728 86.7588 124.104 83.9428 124.104ZM82.3108 116.712C82.3108 118.248 82.9188 119.144 84.0228 119.144C85.1108 119.144 85.7188 118.296 85.7188 116.712C85.7188 115.176 85.1108 114.296 84.0228 114.296C82.8868 114.296 82.3108 115.24 82.3108 116.712ZM89.7952 121V112.872H92.0672V121H89.7952ZM89.7312 111.656V109.48H92.0992V111.656H89.7312ZM97.8451 121V109.96H101.973C105.173 109.96 106.517 111.464 106.517 113.976C106.517 116.504 105.157 117.976 101.973 117.992L100.245 118.008V121H97.8451ZM100.245 116.184H101.797C103.365 116.184 104.037 115.416 104.037 113.992C104.037 112.536 103.365 111.768 101.797 111.768H100.245V116.184ZM111.146 121.16C108.586 121.16 107.21 119.624 107.21 116.984C107.21 114.28 108.73 112.696 111.274 112.696C113.738 112.696 115.034 114.152 115.034 116.808V117.304H109.514C109.594 118.808 110.17 119.512 111.258 119.512C112.17 119.512 112.666 119.064 112.842 118.344H115.002C114.762 120.024 113.434 121.16 111.146 121.16ZM109.562 115.992H112.794C112.65 114.808 112.138 114.232 111.21 114.232C110.282 114.232 109.738 114.792 109.562 115.992ZM120.224 124.104C117.824 124.104 116.496 123.048 116.352 121.192H118.608C118.704 122.008 119.248 122.536 120.24 122.536C121.344 122.536 121.92 121.896 121.968 120.632L122.448 119.848L122.624 119.16H122.432C122.016 119.992 121.104 120.744 119.6 120.744C117.456 120.744 116.272 119.224 116.272 116.696C116.272 114.232 117.456 112.696 119.6 112.696C121.104 112.696 122 113.432 122.416 114.248H122.624L122.448 113.496V112.872H124.336V120.472C124.336 122.728 123.04 124.104 120.224 124.104ZM118.592 116.712C118.592 118.248 119.2 119.144 120.304 119.144C121.392 119.144 122 118.296 122 116.712C122 115.176 121.392 114.296 120.304 114.296C119.168 114.296 118.592 115.24 118.592 116.712ZM128.46 121.16C126.636 121.16 125.66 120.264 125.66 118.904C125.66 117.528 126.492 116.664 128.684 116.408L131.02 116.136V115.72C131.02 114.76 130.492 114.248 129.516 114.248C128.54 114.248 128.028 114.744 128.012 115.64H125.82C125.836 113.72 127.212 112.696 129.564 112.696C132.076 112.696 133.276 113.784 133.276 115.816V121H131.516V120.36L131.692 119.592H131.452C131.052 120.392 130.14 121.16 128.46 121.16ZM127.884 118.664C127.884 119.288 128.316 119.624 129.068 119.624C130.188 119.624 131.02 118.936 131.02 117.88V117.448L129.116 117.656C128.22 117.768 127.884 118.12 127.884 118.664ZM136.317 121L134.077 113.208V112.872H136.269L137.501 117.432L137.581 118.344H137.853L137.933 117.432L139.165 112.872H141.421L142.637 117.416L142.717 118.344H142.973L143.053 117.416L144.269 112.872H146.397V113.208L144.205 121H141.677L140.477 116.808L140.365 115.912H140.109L139.997 116.808L138.781 121H136.317ZM149.679 121.16C147.855 121.16 146.879 120.264 146.879 118.904C146.879 117.528 147.711 116.664 149.903 116.408L152.239 116.136V115.72C152.239 114.76 151.711 114.248 150.735 114.248C149.759 114.248 149.247 114.744 149.231 115.64H147.039C147.055 113.72 148.431 112.696 150.783 112.696C153.295 112.696 154.495 113.784 154.495 115.816V121H152.735V120.36L152.911 119.592H152.671C152.271 120.392 151.359 121.16 149.679 121.16ZM149.103 118.664C149.103 119.288 149.535 119.624 150.287 119.624C151.407 119.624 152.239 118.936 152.239 117.88V117.448L150.335 117.656C149.439 117.768 149.103 118.12 149.103 118.664ZM156.217 121V112.872H158.489V121H156.217ZM156.153 111.656V109.48H158.521V111.656H156.153ZM164.267 121V109.96H166.667V114.808H166.955L167.115 114.296L170.763 109.96H173.483V110.36L169.163 115.496L173.499 120.6V121H170.811L167.115 116.76L166.955 116.248H166.667V121H164.267ZM176.804 121.16C174.98 121.16 174.004 120.264 174.004 118.904C174.004 117.528 174.836 116.664 177.028 116.408L179.364 116.136V115.72C179.364 114.76 178.836 114.248 177.86 114.248C176.884 114.248 176.372 114.744 176.356 115.64H174.164C174.18 113.72 175.556 112.696 177.908 112.696C180.42 112.696 181.62 113.784 181.62 115.816V121H179.86V120.36L180.036 119.592H179.796C179.396 120.392 178.484 121.16 176.804 121.16ZM176.228 118.664C176.228 119.288 176.66 119.624 177.412 119.624C178.532 119.624 179.364 118.936 179.364 117.88V117.448L177.46 117.656C176.564 117.768 176.228 118.12 176.228 118.664ZM183.246 121V112.872H184.91V113.512L184.766 114.296H184.958C185.326 113.464 186.174 112.712 187.582 112.712C188.606 112.712 189.31 113.112 189.694 113.752L189.55 114.376H189.726C190.126 113.48 191.006 112.712 192.478 112.712C194.158 112.712 195.118 113.672 195.118 115.32V121H192.91V115.736C192.91 114.872 192.542 114.408 191.758 114.408C190.862 114.408 190.286 115.016 190.286 116.056V121H188.078V115.736C188.078 114.872 187.678 114.408 186.91 114.408C186.03 114.408 185.454 115.016 185.454 116.072V121H183.246ZM196.842 121V112.872H199.114V121H196.842ZM196.778 111.656V109.48H199.146V111.656H196.778Z" fill="black"/>
</svg>
