<svg width="202" height="113" viewBox="0 0 202 113" fill="none" xmlns="http://www.w3.org/2000/svg">
<rect x="67" width="68" height="68" rx="34" fill="#FA005A"/>
<path d="M101.5 23.6035L90.0415 43.3952H112.958L101.5 23.6035Z" stroke="white" stroke-width="2" stroke-linejoin="round"/>
<path d="M101.5 39.2279V39.7487M101.5 30.8945L101.504 36.1029" stroke="white" stroke-width="2" stroke-linecap="round"/>
<path d="M36.6477 97.84C37.4343 97.9867 38.081 98.38 38.5877 99.02C39.0943 99.66 39.3477 100.393 39.3477 101.22C39.3477 101.967 39.161 102.627 38.7877 103.2C38.4277 103.76 37.901 104.2 37.2077 104.52C36.5143 104.84 35.6943 105 34.7477 105H28.7277V91.04H34.4877C35.4343 91.04 36.2477 91.1933 36.9277 91.5C37.621 91.8067 38.141 92.2333 38.4877 92.78C38.8477 93.3267 39.0277 93.9467 39.0277 94.64C39.0277 95.4533 38.8077 96.1333 38.3677 96.68C37.941 97.2267 37.3677 97.6133 36.6477 97.84ZM31.5277 96.8H34.0877C34.7543 96.8 35.2677 96.6533 35.6277 96.36C35.9877 96.0533 36.1677 95.62 36.1677 95.06C36.1677 94.5 35.9877 94.0667 35.6277 93.76C35.2677 93.4533 34.7543 93.3 34.0877 93.3H31.5277V96.8ZM34.3477 102.72C35.0277 102.72 35.5543 102.56 35.9277 102.24C36.3143 101.92 36.5077 101.467 36.5077 100.88C36.5077 100.28 36.3077 99.8133 35.9077 99.48C35.5077 99.1333 34.9677 98.96 34.2877 98.96H31.5277V102.72H34.3477ZM44.3792 93.3V96.8H49.0792V99.02H44.3792V102.72H49.6792V105H41.5792V91.02H49.6792V93.3H44.3792ZM55.0238 102.78H59.6238V105H52.2238V91.04H55.0238V102.78ZM64.1634 91.04V99.68C64.1634 100.627 64.4101 101.353 64.9034 101.86C65.3968 102.353 66.0901 102.6 66.9834 102.6C67.8901 102.6 68.5901 102.353 69.0834 101.86C69.5768 101.353 69.8234 100.627 69.8234 99.68V91.04H72.6434V99.66C72.6434 100.847 72.3834 101.853 71.8634 102.68C71.3568 103.493 70.6701 104.107 69.8034 104.52C68.9501 104.933 67.9968 105.14 66.9434 105.14C65.9034 105.14 64.9568 104.933 64.1034 104.52C63.2634 104.107 62.5968 103.493 62.1034 102.68C61.6101 101.853 61.3634 100.847 61.3634 99.66V91.04H64.1634ZM90.5688 91.04V105H87.7688V95.92L84.0288 105H81.9088L78.1488 95.92V105H75.3488V91.04H78.5288L82.9688 101.42L87.4088 91.04H90.5688ZM102.983 91.04C104.449 91.04 105.736 91.3267 106.843 91.9C107.963 92.4733 108.823 93.2933 109.423 94.36C110.036 95.4133 110.343 96.64 110.343 98.04C110.343 99.44 110.036 100.667 109.423 101.72C108.823 102.76 107.963 103.567 106.843 104.14C105.736 104.713 104.449 105 102.983 105H98.1027V91.04H102.983ZM102.883 102.62C104.349 102.62 105.483 102.22 106.283 101.42C107.083 100.62 107.483 99.4933 107.483 98.04C107.483 96.5867 107.083 95.4533 106.283 94.64C105.483 93.8133 104.349 93.4 102.883 93.4H100.903V102.62H102.883ZM120.999 102.34H115.439L114.519 105H111.579L116.599 91.02H119.859L124.879 105H121.919L120.999 102.34ZM120.239 100.1L118.219 94.26L116.199 100.1H120.239ZM135.375 91.04V93.3H129.555V96.88H134.015V99.1H129.555V105H126.755V91.04H135.375ZM146.86 91.04V93.3H143.14V105H140.34V93.3H136.62V91.04H146.86ZM157.463 102.34H151.903L150.983 105H148.043L153.063 91.02H156.323L161.343 105H158.383L157.463 102.34ZM156.703 100.1L154.683 94.26L152.663 100.1H156.703ZM170.42 105L167.34 99.56H166.02V105H163.22V91.04H168.46C169.54 91.04 170.46 91.2333 171.22 91.62C171.98 91.9933 172.547 92.5067 172.92 93.16C173.307 93.8 173.5 94.52 173.5 95.32C173.5 96.24 173.233 97.0733 172.7 97.82C172.167 98.5533 171.373 99.06 170.32 99.34L173.66 105H170.42ZM166.02 97.46H168.36C169.12 97.46 169.687 97.28 170.06 96.92C170.433 96.5467 170.62 96.0333 170.62 95.38C170.62 94.74 170.433 94.2467 170.06 93.9C169.687 93.54 169.12 93.36 168.36 93.36H166.02V97.46Z" fill="#FA005A"/>
</svg>
