<svg width="202" height="113" viewBox="0 0 202 113" fill="none" xmlns="http://www.w3.org/2000/svg">
<rect x="67" width="68" height="68" rx="34" fill="#00E900"/>
<path fill-rule="evenodd" clip-rule="evenodd" d="M101.542 46.041C94.6384 46.041 89.042 40.4446 89.042 33.541C89.042 26.6375 94.6384 21.041 101.542 21.041C108.446 21.041 114.042 26.6375 114.042 33.541C114.042 40.4446 108.446 46.041 101.542 46.041ZM107.086 30.797C107.498 30.3037 107.431 29.5705 106.938 29.1594C106.444 28.7482 105.711 28.8149 105.3 29.3082L100.301 35.3068L97.7131 32.7188C97.2589 32.2647 96.5227 32.2647 96.0686 32.7188C95.6145 33.1729 95.6145 33.9092 96.0686 34.3632L99.557 37.8516C99.788 38.0826 100.105 38.2058 100.432 38.191C100.758 38.1761 101.063 38.0247 101.272 37.7738L107.086 30.797Z" fill="white"/>
<path d="M9.39266 107.18C5.93266 107.18 3.99266 105.76 3.75266 103.02H6.75266C6.97266 104.42 7.95266 105.1 9.51266 105.1C10.9727 105.1 11.9327 104.42 11.9327 103.28C11.9327 102.32 11.3327 101.74 9.83266 101.34L7.39266 100.78C5.07266 100.18 3.97266 98.88 3.97266 97C3.97266 94.56 5.93266 92.98 9.39266 92.98C12.6527 92.98 14.5327 94.48 14.7527 97.06H11.7927C11.5727 95.62 10.5727 95.06 9.31266 95.06C7.91266 95.06 7.07266 95.72 7.07266 96.74C7.07266 97.56 7.57266 98.1 8.81266 98.44L11.2727 99.02C13.9927 99.72 15.0927 101.06 15.0927 102.96C15.0927 105.6 12.9727 107.18 9.39266 107.18ZM22.7052 107.22C19.1452 107.22 17.1052 105.12 17.1052 101.34V93.2H20.1252V101.56C20.1252 103.56 21.0652 104.6 22.7252 104.6C24.3852 104.6 25.3252 103.58 25.3252 101.56V93.2H28.2852V101.34C28.2852 105.12 26.2452 107.22 22.7052 107.22ZM30.9333 107V93.2H36.2933C40.6733 93.2 42.6133 95.54 42.6133 100.1C42.6133 104.66 40.6733 107 36.2933 107H30.9333ZM33.9333 104.6H36.1533C38.4933 104.6 39.4733 103.04 39.4733 100.1C39.4733 97.14 38.4933 95.6 36.1533 95.6H33.9333V104.6ZM43.2159 107V106.54L47.5959 93.2H51.7159L56.0959 106.52V107H53.2359L52.4759 104.64H46.7959L46.0559 107H43.2159ZM47.5159 102.36H51.7559L50.0159 96.92L49.7959 95.56H49.4159L49.2159 96.92L47.5159 102.36ZM66.0688 107V101.4H60.7888V107H57.7887V93.2H60.7888V98.88H66.0688V93.2H69.0688V107H66.0688ZM76.4802 107V93.2H81.1002L83.7002 102.36L83.8602 103.44H84.2602L84.4002 102.36L87.0202 93.2H91.4802V107H88.8002L88.9602 97.6V96.44H88.5602L88.3802 97.48L85.5402 107H82.4802L79.6402 97.48L79.4802 96.44H79.0602V97.6L79.2202 107H76.4802ZM94.1169 107V93.2H103.497V95.58H96.8969V98.82H102.537V101.08H96.8969V104.64H103.597V107H94.1169ZM105.679 107V93.2H108.679V104.32H114.699V107H105.679ZM115.501 107V106.54L119.881 93.2H124.001L128.381 106.52V107H125.521L124.761 104.64H119.081L118.341 107H115.501ZM119.801 102.36H124.041L122.301 96.92L122.081 95.56H121.701L121.501 96.92L119.801 102.36ZM130.074 107V93.2H133.074L138.314 101.22L138.754 102.48H139.194L139.014 101.12L138.934 93.2H141.614V107H138.634L133.434 98.96L132.974 97.72H132.554L132.714 99.08L132.774 107H130.074ZM149.614 107.2C146.114 107.2 143.854 104.64 143.854 100.1C143.854 95.56 146.094 93 150.114 93C153.594 93 155.654 94.9 155.974 97.98H152.894C152.614 96.38 151.634 95.4 150.114 95.4C148.094 95.4 146.954 97.06 146.954 100.14C146.954 103.14 148.094 104.8 150.154 104.8C151.974 104.8 152.854 103.52 152.994 101.52H149.694V99.62H155.954V107H153.854V105.92L154.194 104.6H153.794C153.214 105.96 152.034 107.2 149.614 107.2ZM163.754 107.2C160.254 107.2 157.994 104.64 157.994 100.1C157.994 95.56 160.234 93 164.254 93C167.734 93 169.794 94.9 170.114 97.98H167.034C166.754 96.38 165.774 95.4 164.254 95.4C162.234 95.4 161.094 97.06 161.094 100.14C161.094 103.14 162.234 104.8 164.294 104.8C166.114 104.8 166.994 103.52 167.134 101.52H163.834V99.62H170.094V107H167.994V105.92L168.334 104.6H167.934C167.354 105.96 166.174 107.2 163.754 107.2ZM171.595 107V106.54L175.975 93.2H180.095L184.475 106.52V107H181.615L180.855 104.64H175.175L174.435 107H171.595ZM175.895 102.36H180.135L178.395 96.92L178.175 95.56H177.795L177.595 96.92L175.895 102.36ZM186.168 107V93.2H189.168L194.408 101.22L194.848 102.48H195.288L195.108 101.12L195.028 93.2H197.708V107H194.728L189.528 98.96L189.068 97.72H188.648L188.808 99.08L188.868 107H186.168Z" fill="#00E900"/>
</svg>
