<svg width="257" height="113" viewBox="0 0 257 113" fill="none" xmlns="http://www.w3.org/2000/svg">
<rect x="94.5" width="68" height="68" rx="34" fill="#FA005A"/>
<g clip-path="url(#clip0_5747_4533)">
<path d="M139.393 31.0016C138.75 30.0327 137.866 29.2552 136.836 28.7517L136.731 28.7006L136.694 28.5899C136.247 27.2563 135.395 26.0517 134.296 25.1964C133.061 24.2366 131.584 23.7285 130.026 23.7285C127.937 23.7285 125.968 24.6669 124.625 26.3012L124.477 26.4828L124.272 26.3676C123.686 26.0372 123.023 25.8618 122.354 25.8618C120.174 25.8618 118.4 27.6676 118.4 29.8878C118.4 30.0679 118.411 30.2464 118.434 30.4241L118.459 30.6087L118.298 30.7018C116.572 31.7058 115.5 33.5873 115.5 35.6128C115.5 38.7333 117.989 41.2716 121.05 41.2716H134.042C135.769 41.2716 137.392 40.585 138.612 39.3391C139.829 38.0978 140.5 36.4452 140.5 34.6881C140.5 33.366 140.117 32.0911 139.393 31.0016ZM134.042 40.3805H121.05C118.48 40.3805 116.39 38.2412 116.39 35.6128C116.39 33.7314 117.476 32.0217 119.157 31.2572L119.502 31.1016L119.402 30.7361C119.326 30.4596 119.289 30.1743 119.289 29.8877C119.289 28.1574 120.664 26.7505 122.353 26.7505C123.068 26.7505 123.737 26.9947 124.289 27.4563L124.667 27.7744L124.944 27.3632C126.094 25.6435 127.994 24.6181 130.026 24.6181C131.384 24.6181 132.671 25.0606 133.75 25.8983C134.794 26.7109 135.57 27.8637 135.935 29.1462L135.993 29.3499L136.189 29.4323C138.268 30.3219 139.61 32.3849 139.61 34.6882C139.61 37.8269 137.113 40.3805 134.042 40.3805Z" fill="white"/>
<path d="M131.577 30.9596C131.577 30.8406 131.531 30.7292 131.447 30.646C131.279 30.4774 130.986 30.4774 130.818 30.646L128.059 33.4033L125.302 30.6453C125.218 30.5614 125.107 30.5156 124.988 30.5156C124.869 30.5156 124.757 30.5614 124.673 30.6461C124.589 30.7292 124.543 30.8406 124.543 30.9597C124.543 31.0787 124.59 31.1901 124.673 31.2748L127.431 34.0328L124.673 36.79C124.5 36.9632 124.5 37.2463 124.673 37.4202C124.841 37.5881 125.134 37.5881 125.302 37.4194L128.059 34.6606L130.818 37.4194C130.986 37.588 131.279 37.588 131.447 37.4194C131.531 37.3348 131.577 37.2233 131.577 37.1043C131.577 36.9854 131.531 36.8739 131.447 36.7908L128.689 34.0328L131.447 31.2748C131.488 31.2334 131.521 31.1842 131.543 31.1301C131.565 31.0761 131.577 31.0181 131.577 30.9596Z" fill="white"/>
</g>
<path d="M12.853 95.36C12.853 96.1067 12.673 96.8067 12.313 97.46C11.9663 98.1133 11.413 98.64 10.653 99.04C9.9063 99.44 8.95964 99.64 7.81297 99.64H5.47297V105H2.67297V91.04H7.81297C8.89297 91.04 9.81297 91.2267 10.573 91.6C11.333 91.9733 11.8996 92.4867 12.273 93.14C12.6596 93.7933 12.853 94.5333 12.853 95.36ZM7.69297 97.38C8.4663 97.38 9.03964 97.2067 9.41297 96.86C9.7863 96.5 9.97297 96 9.97297 95.36C9.97297 94 9.21297 93.32 7.69297 93.32H5.47297V97.38H7.69297ZM22.0409 105L18.9609 99.56H17.6409V105H14.8409V91.04H20.0809C21.1609 91.04 22.0809 91.2333 22.8409 91.62C23.6009 91.9933 24.1676 92.5067 24.5409 93.16C24.9276 93.8 25.1209 94.52 25.1209 95.32C25.1209 96.24 24.8543 97.0733 24.3209 97.82C23.7876 98.5533 22.9943 99.06 21.9409 99.34L25.2809 105H22.0409ZM17.6409 97.46H19.9809C20.7409 97.46 21.3076 97.28 21.6809 96.92C22.0543 96.5467 22.2409 96.0333 22.2409 95.38C22.2409 94.74 22.0543 94.2467 21.6809 93.9C21.3076 93.54 20.7409 93.36 19.9809 93.36H17.6409V97.46ZM34.1334 105.14C32.8268 105.14 31.6268 104.833 30.5334 104.22C29.4401 103.607 28.5734 102.76 27.9334 101.68C27.2934 100.587 26.9734 99.3533 26.9734 97.98C26.9734 96.62 27.2934 95.4 27.9334 94.32C28.5734 93.2267 29.4401 92.3733 30.5334 91.76C31.6268 91.1467 32.8268 90.84 34.1334 90.84C35.4534 90.84 36.6534 91.1467 37.7334 91.76C38.8268 92.3733 39.6868 93.2267 40.3134 94.32C40.9534 95.4 41.2734 96.62 41.2734 97.98C41.2734 99.3533 40.9534 100.587 40.3134 101.68C39.6868 102.76 38.8268 103.607 37.7334 104.22C36.6401 104.833 35.4401 105.14 34.1334 105.14ZM34.1334 102.64C34.9734 102.64 35.7134 102.453 36.3534 102.08C36.9934 101.693 37.4934 101.147 37.8534 100.44C38.2134 99.7333 38.3934 98.9133 38.3934 97.98C38.3934 97.0467 38.2134 96.2333 37.8534 95.54C37.4934 94.8333 36.9934 94.2933 36.3534 93.92C35.7134 93.5467 34.9734 93.36 34.1334 93.36C33.2934 93.36 32.5468 93.5467 31.8934 93.92C31.2534 94.2933 30.7534 94.8333 30.3934 95.54C30.0334 96.2333 29.8534 97.0467 29.8534 97.98C29.8534 98.9133 30.0334 99.7333 30.3934 100.44C30.7534 101.147 31.2534 101.693 31.8934 102.08C32.5468 102.453 33.2934 102.64 34.1334 102.64ZM51.9766 91.04V93.3H46.1566V96.88H50.6166V99.1H46.1566V105H43.3566V91.04H51.9766ZM56.762 91.04V105H53.962V91.04H56.762ZM62.3284 102.78H66.9284V105H59.5284V91.04H62.3284V102.78ZM81.3938 97.84C82.1804 97.9867 82.8271 98.38 83.3338 99.02C83.8404 99.66 84.0938 100.393 84.0938 101.22C84.0938 101.967 83.9071 102.627 83.5338 103.2C83.1738 103.76 82.6471 104.2 81.9538 104.52C81.2604 104.84 80.4404 105 79.4938 105H73.4738V91.04H79.2338C80.1804 91.04 80.9938 91.1933 81.6738 91.5C82.3671 91.8067 82.8871 92.2333 83.2338 92.78C83.5938 93.3267 83.7738 93.9467 83.7738 94.64C83.7738 95.4533 83.5538 96.1333 83.1137 96.68C82.6871 97.2267 82.1138 97.6133 81.3938 97.84ZM76.2738 96.8H78.8338C79.5004 96.8 80.0138 96.6533 80.3738 96.36C80.7338 96.0533 80.9138 95.62 80.9138 95.06C80.9138 94.5 80.7338 94.0667 80.3738 93.76C80.0138 93.4533 79.5004 93.3 78.8338 93.3H76.2738V96.8ZM79.0938 102.72C79.7738 102.72 80.3004 102.56 80.6738 102.24C81.0604 101.92 81.2538 101.467 81.2538 100.88C81.2538 100.28 81.0538 99.8133 80.6538 99.48C80.2538 99.1333 79.7138 98.96 79.0338 98.96H76.2738V102.72H79.0938ZM89.1253 93.3V96.8H93.8253V99.02H89.1253V102.72H94.4253V105H86.3253V91.02H94.4253V93.3H89.1253ZM99.7698 102.78H104.37V105H96.9698V91.04H99.7698V102.78ZM108.91 91.04V99.68C108.91 100.627 109.156 101.353 109.65 101.86C110.143 102.353 110.836 102.6 111.73 102.6C112.636 102.6 113.336 102.353 113.83 101.86C114.323 101.353 114.57 100.627 114.57 99.68V91.04H117.39V99.66C117.39 100.847 117.13 101.853 116.61 102.68C116.103 103.493 115.416 104.107 114.55 104.52C113.696 104.933 112.743 105.14 111.69 105.14C110.65 105.14 109.703 104.933 108.85 104.52C108.01 104.107 107.343 103.493 106.85 102.68C106.356 101.853 106.11 100.847 106.11 99.66V91.04H108.91ZM135.315 91.04V105H132.515V95.92L128.775 105H126.655L122.895 95.92V105H120.095V91.04H123.275L127.715 101.42L132.155 91.04H135.315ZM150.769 97.84C151.555 97.9867 152.202 98.38 152.709 99.02C153.215 99.66 153.469 100.393 153.469 101.22C153.469 101.967 153.282 102.627 152.909 103.2C152.549 103.76 152.022 104.2 151.329 104.52C150.635 104.84 149.815 105 148.869 105H142.849V91.04H148.609C149.555 91.04 150.369 91.1933 151.049 91.5C151.742 91.8067 152.262 92.2333 152.609 92.78C152.969 93.3267 153.149 93.9467 153.149 94.64C153.149 95.4533 152.929 96.1333 152.489 96.68C152.062 97.2267 151.489 97.6133 150.769 97.84ZM145.649 96.8H148.209C148.875 96.8 149.389 96.6533 149.749 96.36C150.109 96.0533 150.289 95.62 150.289 95.06C150.289 94.5 150.109 94.0667 149.749 93.76C149.389 93.4533 148.875 93.3 148.209 93.3H145.649V96.8ZM148.469 102.72C149.149 102.72 149.675 102.56 150.049 102.24C150.435 101.92 150.629 101.467 150.629 100.88C150.629 100.28 150.429 99.8133 150.029 99.48C149.629 99.1333 149.089 98.96 148.409 98.96H145.649V102.72H148.469ZM158.5 93.3V96.8H163.2V99.02H158.5V102.72H163.8V105H155.7V91.02H163.8V93.3H158.5ZM173.545 105L170.465 99.56H169.145V105H166.345V91.04H171.585C172.665 91.04 173.585 91.2333 174.345 91.62C175.105 91.9933 175.672 92.5067 176.045 93.16C176.432 93.8 176.625 94.52 176.625 95.32C176.625 96.24 176.358 97.0733 175.825 97.82C175.292 98.5533 174.498 99.06 173.445 99.34L176.785 105H173.545ZM169.145 97.46H171.485C172.245 97.46 172.812 97.28 173.185 96.92C173.558 96.5467 173.745 96.0333 173.745 95.38C173.745 94.74 173.558 94.2467 173.185 93.9C172.812 93.54 172.245 93.36 171.485 93.36H169.145V97.46ZM184.037 91.04C185.504 91.04 186.791 91.3267 187.897 91.9C189.017 92.4733 189.877 93.2933 190.477 94.36C191.091 95.4133 191.397 96.64 191.397 98.04C191.397 99.44 191.091 100.667 190.477 101.72C189.877 102.76 189.017 103.567 187.897 104.14C186.791 104.713 185.504 105 184.037 105H179.157V91.04H184.037ZM183.937 102.62C185.404 102.62 186.537 102.22 187.337 101.42C188.137 100.62 188.537 99.4933 188.537 98.04C188.537 96.5867 188.137 95.4533 187.337 94.64C186.537 93.8133 185.404 93.4 183.937 93.4H181.957V102.62H183.937ZM202.053 102.34H196.493L195.573 105H192.633L197.653 91.02H200.913L205.933 105H202.973L202.053 102.34ZM201.293 100.1L199.273 94.26L197.253 100.1H201.293ZM216.43 91.04V93.3H210.61V96.88H215.07V99.1H210.61V105H207.81V91.04H216.43ZM227.915 91.04V93.3H224.195V105H221.395V93.3H217.675V91.04H227.915ZM238.518 102.34H232.958L232.038 105H229.098L234.118 91.02H237.378L242.398 105H239.438L238.518 102.34ZM237.758 100.1L235.738 94.26L233.718 100.1H237.758ZM251.475 105L248.395 99.56H247.075V105H244.275V91.04H249.515C250.595 91.04 251.515 91.2333 252.275 91.62C253.035 91.9933 253.601 92.5067 253.975 93.16C254.361 93.8 254.555 94.52 254.555 95.32C254.555 96.24 254.288 97.0733 253.755 97.82C253.221 98.5533 252.428 99.06 251.375 99.34L254.715 105H251.475ZM247.075 97.46H249.415C250.175 97.46 250.741 97.28 251.115 96.92C251.488 96.5467 251.675 96.0333 251.675 95.38C251.675 94.74 251.488 94.2467 251.115 93.9C250.741 93.54 250.175 93.36 249.415 93.36H247.075V97.46Z" fill="#FA005A"/>
<defs>
<clipPath id="clip0_5747_4533">
<rect width="25" height="25" fill="white" transform="translate(115.5 20)"/>
</clipPath>
</defs>
</svg>
