<svg width="366" height="143" viewBox="0 0 366 143" fill="none" xmlns="http://www.w3.org/2000/svg">
<rect x="149" width="68" height="68" rx="34" fill="#C98600"/>
<path d="M183.499 23.604L172.041 43.3957H194.958L183.499 23.604Z" stroke="white" stroke-width="2" stroke-linejoin="round"/>
<path d="M183.5 39.2288V39.7497M183.5 30.8955L183.504 36.1038" stroke="white" stroke-width="2" stroke-linecap="round"/>
<path d="M10.9467 95.36C10.9467 96.1067 10.7667 96.8067 10.4067 97.46C10.0601 98.1133 9.50672 98.64 8.74672 99.04C8.00005 99.44 7.05339 99.64 5.90672 99.64H3.56672V105H0.766719V91.04H5.90672C6.98672 91.04 7.90672 91.2267 8.66672 91.6C9.42672 91.9733 9.99339 92.4867 10.3667 93.14C10.7534 93.7933 10.9467 94.5333 10.9467 95.36ZM5.78672 97.38C6.56005 97.38 7.13339 97.2067 7.50672 96.86C7.88005 96.5 8.06672 96 8.06672 95.36C8.06672 94 7.30672 93.32 5.78672 93.32H3.56672V97.38H5.78672ZM15.7347 93.3V96.8H20.4347V99.02H15.7347V102.72H21.0347V105H12.9347V91.02H21.0347V93.3H15.7347ZM30.7792 105L27.6992 99.56H26.3792V105H23.5792V91.04H28.8192C29.8992 91.04 30.8192 91.2333 31.5792 91.62C32.3392 91.9933 32.9059 92.5067 33.2792 93.16C33.6659 93.8 33.8592 94.52 33.8592 95.32C33.8592 96.24 33.5926 97.0733 33.0592 97.82C32.5259 98.5533 31.7326 99.06 30.6792 99.34L34.0192 105H30.7792ZM26.3792 97.46H28.7192C29.4792 97.46 30.0459 97.28 30.4192 96.92C30.7926 96.5467 30.9792 96.0333 30.9792 95.38C30.9792 94.74 30.7926 94.2467 30.4192 93.9C30.0459 93.54 29.4792 93.36 28.7192 93.36H26.3792V97.46ZM51.6117 91.04V105H48.8117V95.92L45.0717 105H42.9517L39.1917 95.92V105H36.3917V91.04H39.5717L44.0117 101.42L48.4517 91.04H51.6117ZM60.86 105.14C59.5533 105.14 58.3533 104.833 57.26 104.22C56.1667 103.607 55.3 102.76 54.66 101.68C54.02 100.587 53.7 99.3533 53.7 97.98C53.7 96.62 54.02 95.4 54.66 94.32C55.3 93.2267 56.1667 92.3733 57.26 91.76C58.3533 91.1467 59.5533 90.84 60.86 90.84C62.18 90.84 63.38 91.1467 64.46 91.76C65.5533 92.3733 66.4133 93.2267 67.04 94.32C67.68 95.4 68 96.62 68 97.98C68 99.3533 67.68 100.587 67.04 101.68C66.4133 102.76 65.5533 103.607 64.46 104.22C63.3667 104.833 62.1667 105.14 60.86 105.14ZM60.86 102.64C61.7 102.64 62.44 102.453 63.08 102.08C63.72 101.693 64.22 101.147 64.58 100.44C64.94 99.7333 65.12 98.9133 65.12 97.98C65.12 97.0467 64.94 96.2333 64.58 95.54C64.22 94.8333 63.72 94.2933 63.08 93.92C62.44 93.5467 61.7 93.36 60.86 93.36C60.02 93.36 59.2733 93.5467 58.62 93.92C57.98 94.2933 57.48 94.8333 57.12 95.54C56.76 96.2333 56.58 97.0467 56.58 97.98C56.58 98.9133 56.76 99.7333 57.12 100.44C57.48 101.147 57.98 101.693 58.62 102.08C59.2733 102.453 60.02 102.64 60.86 102.64ZM81.6631 91.04V105H78.8631V99.06H72.8831V105H70.0831V91.04H72.8831V96.78H78.8631V91.04H81.6631ZM90.8991 105.14C89.5924 105.14 88.3924 104.833 87.2991 104.22C86.2057 103.607 85.3391 102.76 84.6991 101.68C84.0591 100.587 83.7391 99.3533 83.7391 97.98C83.7391 96.62 84.0591 95.4 84.6991 94.32C85.3391 93.2267 86.2057 92.3733 87.2991 91.76C88.3924 91.1467 89.5924 90.84 90.8991 90.84C92.2191 90.84 93.4191 91.1467 94.4991 91.76C95.5924 92.3733 96.4524 93.2267 97.0791 94.32C97.7191 95.4 98.0391 96.62 98.0391 97.98C98.0391 99.3533 97.7191 100.587 97.0791 101.68C96.4524 102.76 95.5924 103.607 94.4991 104.22C93.4057 104.833 92.2057 105.14 90.8991 105.14ZM90.8991 102.64C91.7391 102.64 92.4791 102.453 93.1191 102.08C93.7591 101.693 94.2591 101.147 94.6191 100.44C94.9791 99.7333 95.1591 98.9133 95.1591 97.98C95.1591 97.0467 94.9791 96.2333 94.6191 95.54C94.2591 94.8333 93.7591 94.2933 93.1191 93.92C92.4791 93.5467 91.7391 93.36 90.8991 93.36C90.0591 93.36 89.3124 93.5467 88.6591 93.92C88.0191 94.2933 87.5191 94.8333 87.1591 95.54C86.7991 96.2333 86.6191 97.0467 86.6191 97.98C86.6191 98.9133 86.7991 99.7333 87.1591 100.44C87.5191 101.147 88.0191 101.693 88.6591 102.08C89.3124 102.453 90.0591 102.64 90.8991 102.64ZM112.062 105H109.262L102.922 95.42V105H100.122V91.02H102.922L109.262 100.62V91.02H112.062V105ZM123.389 102.34H117.829L116.909 105H113.969L118.989 91.02H122.249L127.269 105H124.309L123.389 102.34ZM122.629 100.1L120.609 94.26L118.589 100.1H122.629ZM141.086 105H138.286L131.946 95.42V105H129.146V91.02H131.946L138.286 100.62V91.02H141.086V105ZM158.798 95.36C158.798 96.1067 158.618 96.8067 158.258 97.46C157.912 98.1133 157.358 98.64 156.598 99.04C155.852 99.44 154.905 99.64 153.758 99.64H151.418V105H148.618V91.04H153.758C154.838 91.04 155.758 91.2267 156.518 91.6C157.278 91.9733 157.845 92.4867 158.218 93.14C158.605 93.7933 158.798 94.5333 158.798 95.36ZM153.638 97.38C154.412 97.38 154.985 97.2067 155.358 96.86C155.732 96.5 155.918 96 155.918 95.36C155.918 94 155.158 93.32 153.638 93.32H151.418V97.38H153.638ZM163.586 93.3V96.8H168.286V99.02H163.586V102.72H168.886V105H160.786V91.02H168.886V93.3H163.586ZM183.371 105H180.571L174.231 95.42V105H171.431V91.02H174.231L180.571 100.62V91.02H183.371V105ZM191.018 91.04C192.484 91.04 193.771 91.3267 194.878 91.9C195.998 92.4733 196.858 93.2933 197.458 94.36C198.071 95.4133 198.378 96.64 198.378 98.04C198.378 99.44 198.071 100.667 197.458 101.72C196.858 102.76 195.998 103.567 194.878 104.14C193.771 104.713 192.484 105 191.018 105H186.138V91.04H191.018ZM190.918 102.62C192.384 102.62 193.518 102.22 194.318 101.42C195.118 100.62 195.518 99.4933 195.518 98.04C195.518 96.5867 195.118 95.4533 194.318 94.64C193.518 93.8133 192.384 93.4 190.918 93.4H188.938V102.62H190.918ZM209.034 102.34H203.474L202.554 105H199.614L204.634 91.02H207.894L212.914 105H209.954L209.034 102.34ZM208.274 100.1L206.254 94.26L204.234 100.1H208.274ZM223.41 91.04V93.3H217.59V96.88H222.05V99.1H217.59V105H214.79V91.04H223.41ZM234.896 91.04V93.3H231.176V105H228.376V93.3H224.656V91.04H234.896ZM245.499 102.34H239.939L239.019 105H236.079L241.099 91.02H244.359L249.379 105H246.419L245.499 102.34ZM244.739 100.1L242.719 94.26L240.699 100.1H244.739ZM258.455 105L255.375 99.56H254.055V105H251.255V91.04H256.495C257.575 91.04 258.495 91.2333 259.255 91.62C260.015 91.9933 260.582 92.5067 260.955 93.16C261.342 93.8 261.535 94.52 261.535 95.32C261.535 96.24 261.268 97.0733 260.735 97.82C260.202 98.5533 259.408 99.06 258.355 99.34L261.695 105H258.455ZM254.055 97.46H256.395C257.155 97.46 257.722 97.28 258.095 96.92C258.468 96.5467 258.655 96.0333 258.655 95.38C258.655 94.74 258.468 94.2467 258.095 93.9C257.722 93.54 257.155 93.36 256.395 93.36H254.055V97.46ZM272.628 102.34H267.068L266.148 105H263.208L268.228 91.02H271.488L276.508 105H273.548L272.628 102.34ZM271.868 100.1L269.848 94.26L267.827 100.1H271.868ZM290.324 105H287.524L281.184 95.42V105H278.384V91.02H281.184L287.524 100.62V91.02H290.324V105ZM302.737 91.04C304.203 91.04 305.49 91.3267 306.597 91.9C307.717 92.4733 308.577 93.2933 309.177 94.36C309.79 95.4133 310.097 96.64 310.097 98.04C310.097 99.44 309.79 100.667 309.177 101.72C308.577 102.76 307.717 103.567 306.597 104.14C305.49 104.713 304.203 105 302.737 105H297.857V91.04H302.737ZM302.637 102.62C304.103 102.62 305.237 102.22 306.037 101.42C306.837 100.62 307.237 99.4933 307.237 98.04C307.237 96.5867 306.837 95.4533 306.037 94.64C305.237 93.8133 304.103 93.4 302.637 93.4H300.657V102.62H302.637ZM320.753 102.34H315.193L314.273 105H311.333L316.353 91.02H319.613L324.633 105H321.673L320.753 102.34ZM319.993 100.1L317.973 94.26L315.952 100.1H319.993ZM329.309 102.78H333.909V105H326.509V91.04H329.309V102.78ZM344.249 102.34H338.689L337.769 105H334.829L339.849 91.02H343.109L348.129 105H345.169L344.249 102.34ZM343.489 100.1L341.469 94.26L339.449 100.1H343.489ZM365.225 91.04V105H362.425V95.92L358.685 105H356.565L352.805 95.92V105H350.005V91.04H353.185L357.625 101.42L362.065 91.04H365.225ZM107.998 125.36C107.998 126.107 107.818 126.807 107.457 127.46C107.111 128.113 106.558 128.64 105.798 129.04C105.051 129.44 104.104 129.64 102.958 129.64H100.618V135H97.8175V121.04H102.958C104.038 121.04 104.958 121.227 105.718 121.6C106.478 121.973 107.044 122.487 107.418 123.14C107.804 123.793 107.998 124.533 107.998 125.36ZM102.838 127.38C103.611 127.38 104.184 127.207 104.558 126.86C104.931 126.5 105.118 126 105.118 125.36C105.118 124 104.358 123.32 102.838 123.32H100.618V127.38H102.838ZM117.185 135L114.105 129.56H112.785V135H109.985V121.04H115.225C116.305 121.04 117.225 121.233 117.985 121.62C118.745 121.993 119.312 122.507 119.685 123.16C120.072 123.8 120.265 124.52 120.265 125.32C120.265 126.24 119.999 127.073 119.465 127.82C118.932 128.553 118.139 129.06 117.085 129.34L120.425 135H117.185ZM112.785 127.46H115.125C115.885 127.46 116.452 127.28 116.825 126.92C117.199 126.547 117.385 126.033 117.385 125.38C117.385 124.74 117.199 124.247 116.825 123.9C116.452 123.54 115.885 123.36 115.125 123.36H112.785V127.46ZM129.278 135.14C127.971 135.14 126.771 134.833 125.678 134.22C124.585 133.607 123.718 132.76 123.078 131.68C122.438 130.587 122.118 129.353 122.118 127.98C122.118 126.62 122.438 125.4 123.078 124.32C123.718 123.227 124.585 122.373 125.678 121.76C126.771 121.147 127.971 120.84 129.278 120.84C130.598 120.84 131.798 121.147 132.878 121.76C133.971 122.373 134.831 123.227 135.458 124.32C136.098 125.4 136.418 126.62 136.418 127.98C136.418 129.353 136.098 130.587 135.458 131.68C134.831 132.76 133.971 133.607 132.878 134.22C131.785 134.833 130.585 135.14 129.278 135.14ZM129.278 132.64C130.118 132.64 130.858 132.453 131.498 132.08C132.138 131.693 132.638 131.147 132.998 130.44C133.358 129.733 133.538 128.913 133.538 127.98C133.538 127.047 133.358 126.233 132.998 125.54C132.638 124.833 132.138 124.293 131.498 123.92C130.858 123.547 130.118 123.36 129.278 123.36C128.438 123.36 127.691 123.547 127.038 123.92C126.398 124.293 125.898 124.833 125.538 125.54C125.178 126.233 124.998 127.047 124.998 127.98C124.998 128.913 125.178 129.733 125.538 130.44C125.898 131.147 126.398 131.693 127.038 132.08C127.691 132.453 128.438 132.64 129.278 132.64ZM143.321 135.14C142.348 135.14 141.468 134.973 140.681 134.64C139.908 134.307 139.294 133.827 138.841 133.2C138.388 132.573 138.154 131.833 138.141 130.98H141.141C141.181 131.553 141.381 132.007 141.741 132.34C142.114 132.673 142.621 132.84 143.261 132.84C143.914 132.84 144.428 132.687 144.801 132.38C145.174 132.06 145.361 131.647 145.361 131.14C145.361 130.727 145.234 130.387 144.981 130.12C144.728 129.853 144.408 129.647 144.021 129.5C143.648 129.34 143.128 129.167 142.461 128.98C141.554 128.713 140.814 128.453 140.241 128.2C139.681 127.933 139.194 127.54 138.781 127.02C138.381 126.487 138.181 125.78 138.181 124.9C138.181 124.073 138.388 123.353 138.801 122.74C139.214 122.127 139.794 121.66 140.541 121.34C141.288 121.007 142.141 120.84 143.101 120.84C144.541 120.84 145.708 121.193 146.601 121.9C147.508 122.593 148.008 123.567 148.101 124.82H145.021C144.994 124.34 144.788 123.947 144.401 123.64C144.028 123.32 143.528 123.16 142.901 123.16C142.354 123.16 141.914 123.3 141.581 123.58C141.261 123.86 141.101 124.267 141.101 124.8C141.101 125.173 141.221 125.487 141.461 125.74C141.714 125.98 142.021 126.18 142.381 126.34C142.754 126.487 143.274 126.66 143.941 126.86C144.848 127.127 145.588 127.393 146.161 127.66C146.734 127.927 147.228 128.327 147.641 128.86C148.054 129.393 148.261 130.093 148.261 130.96C148.261 131.707 148.068 132.4 147.681 133.04C147.294 133.68 146.728 134.193 145.981 134.58C145.234 134.953 144.348 135.14 143.321 135.14ZM153.489 123.3V126.8H158.189V129.02H153.489V132.72H158.789V135H150.689V121.02H158.789V123.3H153.489ZM166.153 135.14C165.18 135.14 164.3 134.973 163.513 134.64C162.74 134.307 162.126 133.827 161.673 133.2C161.22 132.573 160.986 131.833 160.973 130.98H163.973C164.013 131.553 164.213 132.007 164.573 132.34C164.946 132.673 165.453 132.84 166.093 132.84C166.746 132.84 167.26 132.687 167.633 132.38C168.006 132.06 168.193 131.647 168.193 131.14C168.193 130.727 168.066 130.387 167.813 130.12C167.56 129.853 167.24 129.647 166.853 129.5C166.48 129.34 165.96 129.167 165.293 128.98C164.386 128.713 163.646 128.453 163.073 128.2C162.513 127.933 162.026 127.54 161.613 127.02C161.213 126.487 161.013 125.78 161.013 124.9C161.013 124.073 161.22 123.353 161.633 122.74C162.046 122.127 162.626 121.66 163.373 121.34C164.12 121.007 164.973 120.84 165.933 120.84C167.373 120.84 168.54 121.193 169.433 121.9C170.34 122.593 170.84 123.567 170.933 124.82H167.853C167.826 124.34 167.62 123.947 167.233 123.64C166.86 123.32 166.36 123.16 165.733 123.16C165.186 123.16 164.746 123.3 164.413 123.58C164.093 123.86 163.933 124.267 163.933 124.8C163.933 125.173 164.053 125.487 164.293 125.74C164.546 125.98 164.853 126.18 165.213 126.34C165.586 126.487 166.106 126.66 166.773 126.86C167.68 127.127 168.42 127.393 168.993 127.66C169.566 127.927 170.06 128.327 170.473 128.86C170.886 129.393 171.093 130.093 171.093 130.96C171.093 131.707 170.9 132.4 170.513 133.04C170.126 133.68 169.56 134.193 168.813 134.58C168.066 134.953 167.18 135.14 166.153 135.14ZM183.106 135.14C182.133 135.14 181.253 134.973 180.466 134.64C179.693 134.307 179.08 133.827 178.626 133.2C178.173 132.573 177.94 131.833 177.926 130.98H180.926C180.966 131.553 181.166 132.007 181.526 132.34C181.9 132.673 182.406 132.84 183.046 132.84C183.7 132.84 184.213 132.687 184.586 132.38C184.96 132.06 185.146 131.647 185.146 131.14C185.146 130.727 185.02 130.387 184.766 130.12C184.513 129.853 184.193 129.647 183.806 129.5C183.433 129.34 182.913 129.167 182.246 128.98C181.34 128.713 180.6 128.453 180.026 128.2C179.466 127.933 178.98 127.54 178.566 127.02C178.166 126.487 177.966 125.78 177.966 124.9C177.966 124.073 178.173 123.353 178.586 122.74C179 122.127 179.58 121.66 180.326 121.34C181.073 121.007 181.926 120.84 182.886 120.84C184.326 120.84 185.493 121.193 186.386 121.9C187.293 122.593 187.793 123.567 187.886 124.82H184.806C184.78 124.34 184.573 123.947 184.186 123.64C183.813 123.32 183.313 123.16 182.686 123.16C182.14 123.16 181.7 123.3 181.366 123.58C181.046 123.86 180.886 124.267 180.886 124.8C180.886 125.173 181.006 125.487 181.246 125.74C181.5 125.98 181.806 126.18 182.166 126.34C182.54 126.487 183.06 126.66 183.726 126.86C184.633 127.127 185.373 127.393 185.946 127.66C186.52 127.927 187.013 128.327 187.426 128.86C187.84 129.393 188.046 130.093 188.046 130.96C188.046 131.707 187.853 132.4 187.466 133.04C187.08 133.68 186.513 134.193 185.766 134.58C185.02 134.953 184.133 135.14 183.106 135.14ZM193.274 123.3V126.8H197.974V129.02H193.274V132.72H198.574V135H190.474V121.02H198.574V123.3H193.274ZM216.338 121.04V135H213.538V125.92L209.798 135H207.678L203.918 125.92V135H201.118V121.04H204.298L208.738 131.42L213.178 121.04H216.338ZM227.667 132.34H222.107L221.187 135H218.247L223.267 121.02H226.527L231.547 135H228.587L227.667 132.34ZM226.907 130.1L224.887 124.26L222.867 130.1H226.907ZM241.303 135L236.223 128.78V135H233.423V121.04H236.223V127.3L241.303 121.04H244.683L238.923 127.96L244.843 135H241.303ZM255.245 132.34H249.685L248.765 135H245.825L250.845 121.02H254.105L259.125 135H256.165L255.245 132.34ZM254.485 130.1L252.465 124.26L250.445 130.1H254.485ZM272.941 135H270.141L263.801 125.42V135H261.001V121.02H263.801L270.141 130.62V121.02H272.941V135Z" fill="#C98600"/>
</svg>
