<svg width="223" height="119" viewBox="0 0 223 119" fill="none" xmlns="http://www.w3.org/2000/svg">
<rect x="77.5" width="68" height="68" rx="34" fill="#009E00"/>
<path fill-rule="evenodd" clip-rule="evenodd" d="M112.041 46.0415C105.137 46.0415 99.541 40.4451 99.541 33.5415C99.541 26.6379 105.137 21.0415 112.041 21.0415C118.945 21.0415 124.541 26.6379 124.541 33.5415C124.541 40.4451 118.945 46.0415 112.041 46.0415ZM117.585 30.7975C117.997 30.3042 117.93 29.571 117.437 29.1598C116.943 28.7487 116.21 28.8154 115.799 29.3087L110.8 35.3073L108.212 32.7193C107.758 32.2652 107.022 32.2652 106.568 32.7193C106.114 33.1734 106.114 33.9096 106.568 34.3637L110.056 37.8521C110.287 38.0831 110.605 38.2063 110.931 38.1915C111.257 38.1766 111.562 38.0252 111.771 37.7743L117.585 30.7975Z" fill="white"/>
<path d="M11.2241 95.36C11.2241 96.1067 11.0441 96.8067 10.6841 97.46C10.3374 98.1133 9.78406 98.64 9.02406 99.04C8.2774 99.44 7.33073 99.64 6.18406 99.64H3.84406V105H1.04406V91.04H6.18406C7.26406 91.04 8.18406 91.2267 8.94406 91.6C9.70406 91.9733 10.2707 92.4867 10.6441 93.14C11.0307 93.7933 11.2241 94.5333 11.2241 95.36ZM6.06406 97.38C6.8374 97.38 7.41073 97.2067 7.78406 96.86C8.1574 96.5 8.34406 96 8.34406 95.36C8.34406 94 7.58406 93.32 6.06406 93.32H3.84406V97.38H6.06406ZM20.412 105L17.332 99.56H16.012V105H13.212V91.04H18.452C19.532 91.04 20.452 91.2333 21.212 91.62C21.972 91.9933 22.5387 92.5067 22.912 93.16C23.2987 93.8 23.492 94.52 23.492 95.32C23.492 96.24 23.2254 97.0733 22.692 97.82C22.1587 98.5533 21.3654 99.06 20.312 99.34L23.652 105H20.412ZM16.012 97.46H18.352C19.112 97.46 19.6787 97.28 20.052 96.92C20.4254 96.5467 20.612 96.0333 20.612 95.38C20.612 94.74 20.4254 94.2467 20.052 93.9C19.6787 93.54 19.112 93.36 18.352 93.36H16.012V97.46ZM32.5045 105.14C31.1979 105.14 29.9979 104.833 28.9045 104.22C27.8112 103.607 26.9445 102.76 26.3045 101.68C25.6645 100.587 25.3445 99.3533 25.3445 97.98C25.3445 96.62 25.6645 95.4 26.3045 94.32C26.9445 93.2267 27.8112 92.3733 28.9045 91.76C29.9979 91.1467 31.1979 90.84 32.5045 90.84C33.8245 90.84 35.0245 91.1467 36.1045 91.76C37.1979 92.3733 38.0579 93.2267 38.6845 94.32C39.3245 95.4 39.6445 96.62 39.6445 97.98C39.6445 99.3533 39.3245 100.587 38.6845 101.68C38.0579 102.76 37.1979 103.607 36.1045 104.22C35.0112 104.833 33.8112 105.14 32.5045 105.14ZM32.5045 102.64C33.3445 102.64 34.0845 102.453 34.7245 102.08C35.3645 101.693 35.8645 101.147 36.2245 100.44C36.5845 99.7333 36.7645 98.9133 36.7645 97.98C36.7645 97.0467 36.5845 96.2333 36.2245 95.54C35.8645 94.8333 35.3645 94.2933 34.7245 93.92C34.0845 93.5467 33.3445 93.36 32.5045 93.36C31.6645 93.36 30.9179 93.5467 30.2645 93.92C29.6245 94.2933 29.1245 94.8333 28.7645 95.54C28.4045 96.2333 28.2245 97.0467 28.2245 97.98C28.2245 98.9133 28.4045 99.7333 28.7645 100.44C29.1245 101.147 29.6245 101.693 30.2645 102.08C30.9179 102.453 31.6645 102.64 32.5045 102.64ZM50.3477 91.04V93.3H44.5277V96.88H48.9877V99.1H44.5277V105H41.7277V91.04H50.3477ZM55.1331 91.04V105H52.3331V91.04H55.1331ZM60.6995 102.78H65.2995V105H57.8995V91.04H60.6995V102.78ZM74.6448 91.04V105H71.8448V91.04H74.6448ZM89.3513 105H86.5513L80.2113 95.42V105H77.4113V91.02H80.2113L86.5513 100.62V91.02H89.3513V105ZM96.9383 105.14C95.9649 105.14 95.0849 104.973 94.2983 104.64C93.5249 104.307 92.9116 103.827 92.4583 103.2C92.0049 102.573 91.7716 101.833 91.7583 100.98H94.7583C94.7983 101.553 94.9983 102.007 95.3583 102.34C95.7316 102.673 96.2383 102.84 96.8783 102.84C97.5316 102.84 98.0449 102.687 98.4183 102.38C98.7916 102.06 98.9783 101.647 98.9783 101.14C98.9783 100.727 98.8516 100.387 98.5983 100.12C98.3449 99.8533 98.0249 99.6467 97.6383 99.5C97.2649 99.34 96.7449 99.1667 96.0783 98.98C95.1716 98.7133 94.4316 98.4533 93.8583 98.2C93.2983 97.9333 92.8116 97.54 92.3983 97.02C91.9983 96.4867 91.7983 95.78 91.7983 94.9C91.7983 94.0733 92.0049 93.3533 92.4183 92.74C92.8316 92.1267 93.4116 91.66 94.1583 91.34C94.9049 91.0067 95.7583 90.84 96.7183 90.84C98.1583 90.84 99.3249 91.1933 100.218 91.9C101.125 92.5933 101.625 93.5667 101.718 94.82H98.6383C98.6116 94.34 98.4049 93.9467 98.0183 93.64C97.6449 93.32 97.1449 93.16 96.5183 93.16C95.9716 93.16 95.5316 93.3 95.1983 93.58C94.8783 93.86 94.7183 94.2667 94.7183 94.8C94.7183 95.1733 94.8383 95.4867 95.0783 95.74C95.3316 95.98 95.6383 96.18 95.9983 96.34C96.3716 96.4867 96.8916 96.66 97.5583 96.86C98.4649 97.1267 99.2049 97.3933 99.7783 97.66C100.352 97.9267 100.845 98.3267 101.258 98.86C101.672 99.3933 101.878 100.093 101.878 100.96C101.878 101.707 101.685 102.4 101.298 103.04C100.912 103.68 100.345 104.193 99.5983 104.58C98.8516 104.953 97.9649 105.14 96.9383 105.14ZM113.806 91.04V93.3H110.086V105H107.286V93.3H103.566V91.04H113.806ZM118.649 91.04V105H115.849V91.04H118.649ZM130.915 91.04V93.3H127.195V105H124.395V93.3H120.675V91.04H130.915ZM135.718 91.04V99.68C135.718 100.627 135.965 101.353 136.458 101.86C136.951 102.353 137.645 102.6 138.538 102.6C139.445 102.6 140.145 102.353 140.638 101.86C141.131 101.353 141.378 100.627 141.378 99.68V91.04H144.198V99.66C144.198 100.847 143.938 101.853 143.418 102.68C142.911 103.493 142.225 104.107 141.358 104.52C140.505 104.933 139.551 105.14 138.498 105.14C137.458 105.14 136.511 104.933 135.658 104.52C134.818 104.107 134.151 103.493 133.658 102.68C133.165 101.853 132.918 100.847 132.918 99.66V91.04H135.718ZM151.723 105.14C150.75 105.14 149.87 104.973 149.083 104.64C148.31 104.307 147.697 103.827 147.243 103.2C146.79 102.573 146.557 101.833 146.543 100.98H149.543C149.583 101.553 149.783 102.007 150.143 102.34C150.517 102.673 151.023 102.84 151.663 102.84C152.317 102.84 152.83 102.687 153.203 102.38C153.577 102.06 153.763 101.647 153.763 101.14C153.763 100.727 153.637 100.387 153.383 100.12C153.13 99.8533 152.81 99.6467 152.423 99.5C152.05 99.34 151.53 99.1667 150.863 98.98C149.957 98.7133 149.217 98.4533 148.643 98.2C148.083 97.9333 147.597 97.54 147.183 97.02C146.783 96.4867 146.583 95.78 146.583 94.9C146.583 94.0733 146.79 93.3533 147.203 92.74C147.617 92.1267 148.197 91.66 148.943 91.34C149.69 91.0067 150.543 90.84 151.503 90.84C152.943 90.84 154.11 91.1933 155.003 91.9C155.91 92.5933 156.41 93.5667 156.503 94.82H153.423C153.397 94.34 153.19 93.9467 152.803 93.64C152.43 93.32 151.93 93.16 151.303 93.16C150.757 93.16 150.317 93.3 149.983 93.58C149.663 93.86 149.503 94.2667 149.503 94.8C149.503 95.1733 149.623 95.4867 149.863 95.74C150.117 95.98 150.423 96.18 150.783 96.34C151.157 96.4867 151.677 96.66 152.343 96.86C153.25 97.1267 153.99 97.3933 154.563 97.66C155.137 97.9267 155.63 98.3267 156.043 98.86C156.457 99.3933 156.663 100.093 156.663 100.96C156.663 101.707 156.47 102.4 156.083 103.04C155.697 103.68 155.13 104.193 154.383 104.58C153.637 104.953 152.75 105.14 151.723 105.14ZM161.891 91.04V105H159.091V91.04H161.891ZM177.983 102.34H172.423L171.503 105H168.563L173.583 91.02H176.843L181.863 105H178.903L177.983 102.34ZM177.223 100.1L175.203 94.26L173.183 100.1H177.223ZM191.619 105L186.539 98.78V105H183.739V91.04H186.539V97.3L191.619 91.04H194.999L189.239 97.96L195.159 105H191.619ZM206.501 91.04V93.3H202.781V105H199.981V93.3H196.261V91.04H206.501ZM211.344 91.04V105H208.544V91.04H211.344ZM222.73 91.04V93.3H216.91V96.88H221.37V99.1H216.91V105H214.11V91.04H222.73Z" fill="#009E00"/>
</svg>
