<svg width="18" height="18" viewBox="0 0 18 18" fill="none" xmlns="http://www.w3.org/2000/svg">
<path d="M9 3.37487C10.4913 3.37658 11.9211 3.96977 12.9756 5.02429C14.0301 6.07881 14.6233 7.50855 14.625 8.99987C14.625 9.14905 14.6843 9.29213 14.7898 9.39762C14.8952 9.50311 15.0383 9.56237 15.1875 9.56237C15.3367 9.56237 15.4798 9.50311 15.5852 9.39762C15.6907 9.29213 15.75 9.14905 15.75 8.99987C15.7505 7.59079 15.3099 6.2169 14.4899 5.07097C13.6699 3.92504 12.5117 3.06457 11.1779 2.61028C9.84404 2.156 8.40144 2.1307 7.05248 2.53793C5.70353 2.94516 4.51591 3.76449 3.65625 4.88096V3.83359C3.65625 3.68441 3.59699 3.54133 3.4915 3.43584C3.38601 3.33035 3.24293 3.27109 3.09375 3.27109C2.94457 3.27109 2.80149 3.33035 2.696 3.43584C2.59051 3.54133 2.53125 3.68441 2.53125 3.83359V6.4405C2.53125 6.58968 2.59051 6.73275 2.696 6.83824C2.80149 6.94373 2.94457 7.003 3.09375 7.003H5.69897C5.84815 7.003 5.99123 6.94373 6.09672 6.83824C6.20221 6.73275 6.26147 6.58968 6.26147 6.4405C6.26147 6.29131 6.20221 6.14824 6.09672 6.04275C5.99123 5.93726 5.84815 5.878 5.69897 5.878H4.32563C4.83931 5.109 5.53449 4.47836 6.34974 4.0418C7.16499 3.60523 8.07522 3.37618 9 3.37487ZM9 15.7499C10.0325 15.7485 11.0509 15.5106 11.9772 15.0545C12.9035 14.5985 13.7131 13.9363 14.3438 13.1188V14.1662C14.3438 14.3153 14.403 14.4584 14.5085 14.5639C14.614 14.6694 14.7571 14.7287 14.9062 14.7287C15.0554 14.7287 15.1985 14.6694 15.304 14.5639C15.4095 14.4584 15.4688 14.3153 15.4688 14.1662V11.5607C15.4688 11.4115 15.4095 11.2684 15.304 11.1629C15.1985 11.0574 15.0554 10.9982 14.9062 10.9982H12.301C12.1518 10.9982 12.0088 11.0574 11.9033 11.1629C11.7978 11.2684 11.7385 11.4115 11.7385 11.5607C11.7385 11.7098 11.7978 11.8529 11.9033 11.9584C12.0088 12.0639 12.1518 12.1232 12.301 12.1232H13.6744C13.0046 13.127 12.0296 13.8886 10.8935 14.2956C9.75749 14.7025 8.52064 14.7332 7.36583 14.383C6.21101 14.0328 5.19951 13.3203 4.48084 12.3509C3.76216 11.3815 3.37444 10.2066 3.375 8.99987C3.375 8.85069 3.31574 8.70761 3.21025 8.60212C3.10476 8.49663 2.96168 8.43737 2.8125 8.43737C2.66332 8.43737 2.52024 8.49663 2.41475 8.60212C2.30926 8.70761 2.25 8.85069 2.25 8.99987C2.25201 10.7895 2.96381 12.5052 4.22925 13.7706C5.49468 15.0361 7.21041 15.7479 9 15.7499Z" fill="#2624D0"/>
</svg>
