<svg width="50" height="50" viewBox="0 0 50 50" fill="none" xmlns="http://www.w3.org/2000/svg">
<g filter="url(#filter0_dd_71_3)">
<rect x="12.25" y="12.25" width="27.5" height="27.5" rx="2.75" stroke="black" stroke-opacity="0.08" stroke-width="0.5" shape-rendering="crispEdges"/>
<path d="M34.1666 13.167H17.8333C15.256 13.167 13.1666 15.2563 13.1666 17.8337V34.167C13.1666 36.7443 15.256 38.8337 17.8333 38.8337H34.1666C36.744 38.8337 38.8333 36.7443 38.8333 34.167V17.8337C38.8333 15.2563 36.744 13.167 34.1666 13.167Z" fill="white"/>
<path d="M34.1667 25.9997C34.1667 30.51 30.5104 34.1663 26 34.1663C21.4897 34.1663 17.8334 30.51 17.8334 25.9997C17.8334 21.4894 21.4897 17.833 26 17.833C28.6998 17.833 31.1027 19.0466 32.5875 20.9327" stroke="#2624D0" stroke-width="1.8" stroke-linecap="round"/>
<path d="M33.7665 19V22.0997H30.6667" stroke="#2624D0" stroke-width="1.8" stroke-linecap="round" stroke-linejoin="round"/>
</g>
<defs>
<filter id="filter0_dd_71_3" x="0" y="0" width="50" height="50" filterUnits="userSpaceOnUse" color-interpolation-filters="sRGB">
<feFlood flood-opacity="0" result="BackgroundImageFix"/>
<feColorMatrix in="SourceAlpha" type="matrix" values="0 0 0 0 0 0 0 0 0 0 0 0 0 0 0 0 0 0 127 0" result="hardAlpha"/>
<feOffset dy="4"/>
<feGaussianBlur stdDeviation="2"/>
<feComposite in2="hardAlpha" operator="out"/>
<feColorMatrix type="matrix" values="0 0 0 0 0 0 0 0 0 0 0 0 0 0 0 0 0 0 0.25 0"/>
<feBlend mode="normal" in2="BackgroundImageFix" result="effect1_dropShadow_71_3"/>
<feColorMatrix in="SourceAlpha" type="matrix" values="0 0 0 0 0 0 0 0 0 0 0 0 0 0 0 0 0 0 127 0" result="hardAlpha"/>
<feOffset dx="-1" dy="-1"/>
<feGaussianBlur stdDeviation="5.5"/>
<feComposite in2="hardAlpha" operator="out"/>
<feColorMatrix type="matrix" values="0 0 0 0 0 0 0 0 0 0 0 0 0 0 0 0 0 0 0.08 0"/>
<feBlend mode="normal" in2="effect1_dropShadow_71_3" result="effect2_dropShadow_71_3"/>
<feBlend mode="normal" in="SourceGraphic" in2="effect2_dropShadow_71_3" result="shape"/>
</filter>
</defs>
</svg>