<svg width="21" height="22" viewBox="0 0 21 22" fill="none" xmlns="http://www.w3.org/2000/svg">
<path d="M9.14853 0.933178C9.08291 0.94945 8.74658 1.0064 8.41025 1.05522C7.04033 1.27489 5.41611 1.97457 4.19385 2.87766C2.09385 4.41534 0.617285 6.71779 0.116895 9.23178C-0.0389648 9.99656 -0.0389648 12.6163 0.116895 13.3811C0.510644 15.3581 1.50322 17.1968 2.97978 18.6938C4.36611 20.1013 5.95752 20.98 8.0001 21.4844C8.68096 21.6471 8.97627 21.6716 10.42 21.6797C12.1837 21.6797 12.5118 21.639 13.8243 21.2159C16.6052 20.3291 18.9677 18.1731 20.1489 15.4557C20.7806 13.9994 21.0021 12.7139 20.9364 10.859C20.9118 10.1918 20.838 9.37009 20.7642 9.03652C19.8864 5.08248 16.7938 1.99898 12.7825 1.08776C12.2739 0.973858 9.47666 0.85182 9.14853 0.933178ZM11.4864 2.60103C12.8892 2.80443 14.2755 3.31699 15.3911 4.06549C16.113 4.55365 17.1876 5.60318 17.688 6.31913C19.5091 8.93889 19.7962 12.12 18.4591 14.9432C18.0817 15.7405 17.4255 16.7412 17.0399 17.1073L16.8103 17.327L16.4493 16.9934C15.3419 15.9439 13.529 15.2361 11.4372 15.0327C8.82041 14.7805 5.96572 15.5859 4.47275 16.9934L4.11182 17.327L3.88213 17.1073C3.49658 16.7412 2.84033 15.7405 2.46299 14.9432C1.33916 12.5756 1.33916 10.021 2.46299 7.66969C2.93877 6.66898 3.32432 6.1076 4.0626 5.33469C4.83369 4.52924 5.51455 4.01668 6.4251 3.5448C8.07393 2.7068 9.8458 2.37323 11.4864 2.60103Z" fill="#2624D0"/>
<path d="M9.56687 6.05962C8.77937 6.23861 8.19695 6.55591 7.63093 7.11729C7.08132 7.65426 6.7696 8.21563 6.56452 8.98854C6.05593 10.9493 7.17976 13.0077 9.1157 13.6667C11.0434 14.3338 13.2173 13.4633 14.0622 11.6815C14.9071 9.92417 14.3903 7.84952 12.8317 6.7105C11.9622 6.0759 10.6497 5.81555 9.56687 6.05962Z" fill="#2624D0"/>
</svg>
