<svg width="36" height="35" viewBox="0 0 36 35" fill="none" xmlns="http://www.w3.org/2000/svg">
<mask id="mask0_5556_4892" style="mask-type:luminance" maskUnits="userSpaceOnUse" x="0" y="0" width="36" height="35">
<path d="M0.5 0.000102997H35.4999V35H0.5V0.000102997Z" fill="white"/>
</mask>
<g mask="url(#mask0_5556_4892)">
<path d="M21.7982 12.4635C21.7982 13.5093 20.9504 14.3571 19.9045 14.3571H7.93109C6.88527 14.3571 6.03748 15.2049 6.03748 16.2507V32.2685C6.03748 33.3143 6.88527 34.1621 7.93109 34.1621H32.2628C33.3086 34.1621 34.1564 33.3143 34.1564 32.2685V12.4635C34.1564 11.4176 33.3086 10.5699 32.2628 10.5699H23.6918C22.646 10.5699 21.7982 11.4176 21.7982 12.4635Z" fill="#E5AE13"/>
<path d="M31.9441 5.75014H11.4374V31.9551H31.9441V5.75014Z" fill="#CBCBCB"/>
<path d="M28.6448 0.666164H8.13812V18.0547H28.6448V0.666164Z" fill="#CBCBCB"/>
<path d="M25.3455 5.75065H4.83875V18.0547H25.3455V5.75065Z" fill="#E6E6E6"/>
<path d="M17.7402 12.4635C17.7402 13.5093 16.8924 14.3571 15.8466 14.3571H3.87318C2.82735 14.3571 1.97949 15.2049 1.97949 16.2507V32.2685C1.97949 33.3143 2.82735 34.1621 3.87318 34.1621H28.2048C29.2506 34.1621 30.0984 33.3143 30.0984 32.2685V12.4635C30.0984 11.4176 29.2506 10.5699 28.2048 10.5699H19.6338C18.588 10.5699 17.7402 11.4176 17.7402 12.4635Z" fill="#F7C421"/>
<path d="M27.6376 20.9258H16.9741V17.1321H27.6376V20.9258Z" fill="black" stroke="black" stroke-miterlimit="10" stroke-linecap="round" stroke-linejoin="round"/>
</g>
</svg>
