<svg width="36" height="36" viewBox="0 0 36 36" fill="none" xmlns="http://www.w3.org/2000/svg">
<g clip-path="url(#clip0_5571_4647)">
<path d="M18 0.5C8.35046 0.5 0.5 8.35046 0.5 18C0.5 27.6495 8.35046 35.5 18 35.5C27.6495 35.5 35.5 27.6495 35.5 18C35.5 8.35046 27.6495 0.5 18 0.5ZM16.9746 6.37891C16.9746 5.81262 17.4337 5.35352 18 5.35352C18.5663 5.35352 19.0254 5.81262 19.0254 6.37891V14.582C19.0254 15.1483 18.5663 15.6074 18 15.6074C17.4337 15.6074 16.9746 15.1483 16.9746 14.582V6.37891ZM18 29.2793C11.7806 29.2793 6.7207 24.2194 6.7207 18C6.7207 13.5195 9.37687 9.46287 13.4877 7.6655C14.0065 7.43854 14.6111 7.67534 14.838 8.19419C15.0649 8.71304 14.8281 9.31761 14.3093 9.54449C10.9452 11.0154 8.77148 14.3344 8.77148 18C8.77148 23.0886 12.9114 27.2285 18 27.2285C23.0886 27.2285 27.2285 23.0886 27.2285 18C27.2285 14.3344 25.0548 11.0154 21.6908 9.54456C21.1719 9.31768 20.9352 8.71311 21.1621 8.19426C21.3889 7.67534 21.9935 7.43848 22.5124 7.66557C26.6231 9.46287 29.2793 13.5195 29.2793 18C29.2793 24.2194 24.2194 29.2793 18 29.2793Z" fill="#2FC900"/>
</g>
<defs>
<clipPath id="clip0_5571_4647">
<rect width="35" height="35" fill="white" transform="translate(0.5 0.5)"/>
</clipPath>
</defs>
</svg>
