<svg width="20" height="21" viewBox="0 0 20 21" fill="none" xmlns="http://www.w3.org/2000/svg">
<g clip-path="url(#clip0_4862_812)">
<path d="M14.375 0.679688H5.625C4.59375 0.679688 3.75 1.51652 3.75 2.53932V18.6561C3.75 19.6789 4.59375 20.5158 5.625 20.5158H14.375C15.4062 20.5158 16.25 19.6789 16.25 18.6561V2.53932C16.25 1.51652 15.4062 0.679688 14.375 0.679688ZM7.5 1.6095H12.5V2.22938H7.5V1.6095ZM10 19.276C9.66848 19.276 9.35054 19.1454 9.11612 18.9129C8.8817 18.6804 8.75 18.365 8.75 18.0362C8.75 17.7074 8.8817 17.3921 9.11612 17.1596C9.35054 16.9271 9.66848 16.7965 10 16.7965C10.3315 16.7965 10.6495 16.9271 10.8839 17.1596C11.1183 17.3921 11.25 17.7074 11.25 18.0362C11.25 18.365 11.1183 18.6804 10.8839 18.9129C10.6495 19.1454 10.3315 19.276 10 19.276ZM15 15.5567H5V3.1592H15V15.5567Z" fill="#2624D0"/>
</g>
<defs>
<clipPath id="clip0_4862_812">
<rect width="20" height="19.8361" fill="white" transform="translate(0 0.679688)"/>
</clipPath>
</defs>
</svg>
