<svg width="36" height="35" viewBox="0 0 36 35" fill="none" xmlns="http://www.w3.org/2000/svg">
<path d="M30.8625 1.53125H5.1375C3.42197 1.53125 2.03125 2.92197 2.03125 4.6375V30.3625C2.03125 32.078 3.42197 33.4688 5.1375 33.4688H30.8625C32.578 33.4688 33.9688 32.078 33.9688 30.3625V4.6375C33.9688 2.92197 32.578 1.53125 30.8625 1.53125Z" fill="url(#paint0_linear_5556_4912)"/>
<path fill-rule="evenodd" clip-rule="evenodd" d="M19.8276 8.00805V10.9612C19.8275 11.1961 19.8737 11.4288 19.9636 11.6459C20.0535 11.863 20.1853 12.0603 20.3515 12.2264C20.5177 12.3925 20.715 12.5242 20.9322 12.6139C21.1493 12.7037 21.382 12.7497 21.617 12.7495H24.5701C24.4896 12.4402 24.3284 12.1579 24.1031 11.9313L20.6458 8.47508C20.4198 8.24891 20.1373 8.08761 19.8276 8.00805ZM18.5151 7.95118V10.9623C18.5154 11.7847 18.8424 12.5734 19.4241 13.1549C20.0057 13.7364 20.7945 14.0631 21.617 14.0631H24.6281V19.5198C24.6281 19.6938 24.6973 19.8607 24.8203 19.9838C24.9434 20.1069 25.1103 20.176 25.2844 20.176C25.4584 20.176 25.6253 20.1069 25.7484 19.9838C25.8715 19.8607 25.9406 19.6938 25.9406 19.5198V13.1979C25.9391 12.3772 25.6122 11.5905 25.0317 11.0104L21.5744 7.54758C20.9942 6.96706 20.2076 6.64021 19.3869 6.63867H13.065C12.2425 6.63751 11.4532 6.96305 10.8707 7.54371C10.2882 8.12437 9.96019 8.9126 9.95874 9.73508V24.4088C9.9586 24.8161 10.0387 25.2195 10.1945 25.5958C10.3502 25.9721 10.5786 26.3141 10.8666 26.6021C11.1545 26.8902 11.4964 27.1187 11.8727 27.2746C12.2489 27.4305 12.6522 27.5107 13.0595 27.5107H17.9497C18.1237 27.5107 18.2906 27.4416 18.4137 27.3185C18.5368 27.1954 18.6059 27.0285 18.6059 26.8545C18.6059 26.6804 18.5368 26.5135 18.4137 26.3904C18.2906 26.2673 18.1237 26.1982 17.9497 26.1982H13.0595C12.5851 26.1979 12.1303 26.0093 11.7949 25.6737C11.4596 25.3382 11.2712 24.8832 11.2712 24.4088V9.73508C11.2711 9.50015 11.3172 9.26749 11.4071 9.0504C11.4969 8.83331 11.6286 8.63604 11.7946 8.46987C11.9607 8.3037 12.1579 8.17187 12.3749 8.08194C12.592 7.992 12.8246 7.94571 13.0595 7.94571L18.5151 7.95118Z" fill="white"/>
<path fill-rule="evenodd" clip-rule="evenodd" d="M22.0534 23.8831H21.1937C21.0197 23.8831 20.8528 23.9523 20.7297 24.0753C20.6066 24.1984 20.5375 24.3653 20.5375 24.5394C20.5375 24.7134 20.6066 24.8803 20.7297 25.0034C20.8528 25.1265 21.0197 25.1956 21.1937 25.1956H22.0534V26.0553C22.0534 26.2294 22.1226 26.3963 22.2456 26.5194C22.3687 26.6424 22.5356 26.7116 22.7097 26.7116C22.8837 26.7116 23.0506 26.6424 23.1737 26.5194C23.2968 26.3963 23.3659 26.2294 23.3659 26.0553V25.1956H24.2256C24.3996 25.1956 24.5666 25.1265 24.6896 25.0034C24.8127 24.8803 24.8819 24.7134 24.8819 24.5394C24.8819 24.3653 24.8127 24.1984 24.6896 24.0753C24.5666 23.9523 24.3996 23.8831 24.2256 23.8831H23.3659V23.0234C23.3659 22.8494 23.2968 22.6825 23.1737 22.5594C23.0506 22.4363 22.8837 22.3672 22.7097 22.3672C22.5356 22.3672 22.3687 22.4363 22.2456 22.5594C22.1226 22.6825 22.0534 22.8494 22.0534 23.0234V23.8831Z" fill="white"/>
<path fill-rule="evenodd" clip-rule="evenodd" d="M22.7097 21.6562C23.2794 21.6565 23.8362 21.8256 24.3098 22.1422C24.7834 22.4589 25.1525 22.9088 25.3704 23.4352C25.5883 23.9616 25.6453 24.5408 25.5341 25.0995C25.4229 25.6582 25.1486 26.1715 24.7457 26.5743C24.3429 26.9772 23.8296 27.2515 23.2709 27.3627C22.7121 27.4739 22.133 27.417 21.6066 27.199C21.0802 26.9811 20.6303 26.612 20.3136 26.1384C19.997 25.6648 19.8279 25.108 19.8276 24.5383C19.8279 23.774 20.1317 23.0411 20.6721 22.5007C21.2125 21.9603 21.9454 21.6565 22.7097 21.6562ZM22.7097 20.3438C21.8803 20.3438 21.0696 20.5897 20.38 21.0504C19.6905 21.5111 19.153 22.166 18.8355 22.9322C18.5181 23.6984 18.435 24.5415 18.5967 25.3549C18.7584 26.1683 19.1577 26.9155 19.7441 27.502C20.3304 28.0885 21.0775 28.488 21.8909 28.6499C22.7043 28.8118 23.5474 28.729 24.3137 28.4117C25.0799 28.0945 25.7349 27.5572 26.1959 26.8677C26.6568 26.1783 26.9029 25.3676 26.9031 24.5383C26.9025 23.4262 26.4606 22.3598 25.6743 21.5733C24.888 20.7869 23.8218 20.3446 22.7097 20.3438Z" fill="white"/>
<defs>
<linearGradient id="paint0_linear_5556_4912" x1="17.813" y1="1.38469" x2="18.187" y2="33.6153" gradientUnits="userSpaceOnUse">
<stop stop-color="#09C6F9"/>
<stop offset="1" stop-color="#045DE9"/>
</linearGradient>
</defs>
</svg>
