<svg width="26" height="26" viewBox="0 0 26 26" fill="none" xmlns="http://www.w3.org/2000/svg">
<path d="M22.75 13.2031C22.3968 13.2027 22.0486 13.2866 21.7344 13.4479V13C21.7344 8.86539 18.7576 6.88391 16.3648 5.29141C14.886 4.30727 13.6094 3.45312 13.6094 2.4375C13.6094 2.27588 13.5452 2.12089 13.4309 2.00661C13.3166 1.89233 13.1616 1.82812 13 1.82812C12.8384 1.82812 12.6834 1.89233 12.5691 2.00661C12.4548 2.12089 12.3906 2.27588 12.3906 2.4375C12.3906 3.45312 11.114 4.30727 9.63523 5.29141C7.24242 6.88391 4.26562 8.86539 4.26562 13V13.4479C3.92504 13.2741 3.54555 13.1906 3.16347 13.2054C2.78139 13.2202 2.4095 13.3328 2.08339 13.5325C1.75728 13.7321 1.48786 14.0121 1.30091 14.3456C1.11395 14.6792 1.01573 15.0551 1.01562 15.4375V21.125C1.01562 21.2866 1.07983 21.4416 1.19411 21.5559C1.30839 21.6702 1.46338 21.7344 1.625 21.7344H8.125C8.28662 21.7344 8.44161 21.6702 8.55589 21.5559C8.67017 21.4416 8.73438 21.2866 8.73438 21.125V17.875C8.73438 17.6056 8.84138 17.3473 9.03185 17.1568C9.22231 16.9664 9.48064 16.8594 9.75 16.8594C10.0194 16.8594 10.2777 16.9664 10.4682 17.1568C10.6586 17.3473 10.7656 17.6056 10.7656 17.875V21.125C10.7656 21.2866 10.8298 21.4416 10.9441 21.5559C11.0584 21.6702 11.2134 21.7344 11.375 21.7344H14.625C14.7866 21.7344 14.9416 21.6702 15.0559 21.5559C15.1702 21.4416 15.2344 21.2866 15.2344 21.125V17.875C15.2344 17.6056 15.3414 17.3473 15.5318 17.1568C15.7223 16.9664 15.9806 16.8594 16.25 16.8594C16.5194 16.8594 16.7777 16.9664 16.9682 17.1568C17.1586 17.3473 17.2656 17.6056 17.2656 17.875V21.125C17.2656 21.2866 17.3298 21.4416 17.4441 21.5559C17.5584 21.6702 17.7134 21.7344 17.875 21.7344H24.375C24.5366 21.7344 24.6916 21.6702 24.8059 21.5559C24.9202 21.4416 24.9844 21.2866 24.9844 21.125V15.4375C24.9844 14.8449 24.749 14.2766 24.3299 13.8576C23.9109 13.4385 23.3426 13.2031 22.75 13.2031ZM10.3106 6.30602C11.3638 5.60523 12.3805 4.92883 13 4.11531C13.6195 4.92781 14.6362 5.60523 15.6894 6.30602C17.8151 7.71875 20.2109 9.3143 20.4882 12.3906H5.5118C5.78906 9.3143 8.18492 7.71875 10.3106 6.30602ZM2.23438 15.4375C2.23438 15.1681 2.34138 14.9098 2.53184 14.7193C2.72231 14.5289 2.98064 14.4219 3.25 14.4219C3.51936 14.4219 3.77769 14.5289 3.96816 14.7193C4.15862 14.9098 4.26562 15.1681 4.26562 15.4375V20.5156H2.23438V15.4375ZM16.25 15.6406C15.6574 15.6406 15.0891 15.876 14.6701 16.2951C14.251 16.7141 14.0156 17.2824 14.0156 17.875V20.5156H11.9844V17.875C11.9844 17.2824 11.749 16.7141 11.3299 16.2951C10.9109 15.876 10.3426 15.6406 9.75 15.6406C9.15741 15.6406 8.58908 15.876 8.17006 16.2951C7.75103 16.7141 7.51562 17.2824 7.51562 17.875V20.5156H5.48438V13.6094H20.5156V20.5156H18.4844V17.875C18.4844 17.2824 18.249 16.7141 17.8299 16.2951C17.4109 15.876 16.8426 15.6406 16.25 15.6406ZM23.7656 20.5156H21.7344V15.4375C21.7344 15.1681 21.8414 14.9098 22.0318 14.7193C22.2223 14.5289 22.4806 14.4219 22.75 14.4219C23.0194 14.4219 23.2777 14.5289 23.4682 14.7193C23.6586 14.9098 23.7656 15.1681 23.7656 15.4375V20.5156Z" fill="black"/>
</svg>
