<svg width="24" height="25" viewBox="0 0 24 25" fill="none" xmlns="http://www.w3.org/2000/svg">
<path d="M12 7.40625C12.663 7.40625 13.2989 7.66964 13.7678 8.13848C14.2366 8.60732 14.5 9.24321 14.5 9.90625C14.5 10.2346 14.4353 10.5596 14.3097 10.863C14.1841 11.1663 13.9999 11.4419 13.7678 11.674C13.5356 11.9062 13.26 12.0903 12.9567 12.2159C12.6534 12.3416 12.3283 12.4062 12 12.4062C11.337 12.4062 10.7011 12.1429 10.2322 11.674C9.76339 11.2052 9.5 10.5693 9.5 9.90625C9.5 9.24321 9.76339 8.60732 10.2322 8.13848C10.7011 7.66964 11.337 7.40625 12 7.40625ZM12 2.90625C13.8565 2.90625 15.637 3.64375 16.9497 4.9565C18.2625 6.26926 19 8.04973 19 9.90625C19 15.1562 12 22.9062 12 22.9062C12 22.9062 5 15.1562 5 9.90625C5 8.04973 5.7375 6.26926 7.05025 4.9565C8.36301 3.64375 10.1435 2.90625 12 2.90625ZM12 4.90625C10.6739 4.90625 9.40215 5.43303 8.46447 6.37072C7.52678 7.3084 7 8.58017 7 9.90625C7 10.9062 7 12.9062 12 19.6162C17 12.9062 17 10.9062 17 9.90625C17 8.58017 16.4732 7.3084 15.5355 6.37072C14.5979 5.43303 13.3261 4.90625 12 4.90625Z" fill="#2624D0"/>
</svg>
