<svg width="90" height="90" viewBox="0 0 90 90" fill="none" xmlns="http://www.w3.org/2000/svg">
<g filter="url(#filter0_d_3724_6602)">
<rect x="10" y="8" width="70" height="70" rx="20" fill="white"/>
<g clip-path="url(#clip0_3724_6602)">
<path d="M53.25 25H36.75C34.9604 25.002 33.2447 25.7138 31.9792 26.9792C30.7138 28.2447 30.002 29.9604 30 31.75V55.75C30 58.645 32.355 61 35.25 61H53.25C56.9715 61 60 57.9715 60 54.25V31.75C60 28.0285 56.9715 25 53.25 25ZM58.5 31.75V50.5H37.5V26.5H53.25C56.145 26.5 58.5 28.855 58.5 31.75ZM31.5 31.75C31.5 29.113 33.462 26.944 36 26.5765V50.5H35.25C33.78 50.5 32.454 51.1105 31.5 52.087V31.75ZM53.25 59.5H35.25C33.1815 59.5 31.5 57.817 31.5 55.75C31.5 53.683 33.1815 52 35.25 52H58.5V54.25C58.5 57.145 56.145 59.5 53.25 59.5ZM48 40C50.481 40 52.5 37.981 52.5 35.5C52.5 33.019 50.481 31 48 31C45.519 31 43.5 33.019 43.5 35.5C43.5 37.981 45.519 40 48 40ZM48 32.5C49.6545 32.5 51 33.8455 51 35.5C51 37.1545 49.6545 38.5 48 38.5C46.3455 38.5 45 37.1545 45 35.5C45 33.8455 46.3455 32.5 48 32.5ZM40.5375 46.513C40.5555 46.4635 42.2745 41.5 48 41.5C53.7255 41.5 55.4445 46.4635 55.4625 46.513C55.5228 46.7008 55.5066 46.9047 55.4176 47.0807C55.3286 47.2567 55.1739 47.3905 54.9869 47.4532C54.7999 47.516 54.5958 47.5025 54.4186 47.4158C54.2415 47.3291 54.1057 47.1761 54.0405 46.99C53.985 46.828 52.6245 43 48.0015 43C43.3785 43 42.018 46.8265 41.9625 46.99C41.8973 47.1761 41.7615 47.3291 41.5844 47.4158C41.4072 47.5025 41.2031 47.516 41.0161 47.4532C40.8291 47.3905 40.6744 47.2567 40.5854 47.0807C40.4964 46.9047 40.4802 46.7008 40.5405 46.513H40.5375Z" fill="#007BFF"/>
</g>
</g>
<defs>
<filter id="filter0_d_3724_6602" x="0" y="0" width="90" height="90" filterUnits="userSpaceOnUse" color-interpolation-filters="sRGB">
<feFlood flood-opacity="0" result="BackgroundImageFix"/>
<feColorMatrix in="SourceAlpha" type="matrix" values="0 0 0 0 0 0 0 0 0 0 0 0 0 0 0 0 0 0 127 0" result="hardAlpha"/>
<feOffset dy="2"/>
<feGaussianBlur stdDeviation="5"/>
<feComposite in2="hardAlpha" operator="out"/>
<feColorMatrix type="matrix" values="0 0 0 0 0 0 0 0 0 0 0 0 0 0 0 0 0 0 0.15 0"/>
<feBlend mode="normal" in2="BackgroundImageFix" result="effect1_dropShadow_3724_6602"/>
<feBlend mode="normal" in="SourceGraphic" in2="effect1_dropShadow_3724_6602" result="shape"/>
</filter>
<clipPath id="clip0_3724_6602">
<rect width="36" height="36" fill="white" transform="translate(27 25)"/>
</clipPath>
</defs>
</svg>
