<svg width="90" height="90" viewBox="0 0 90 90" fill="none" xmlns="http://www.w3.org/2000/svg">
<g filter="url(#filter0_d_3426_439)">
<rect x="10" y="8" width="70" height="70" rx="20" fill="white"/>
<g clip-path="url(#clip0_3426_439)">
<path d="M50.997 31.336C50.793 30.2575 49.8135 29.5 48.7155 29.5H47.307C47.1025 29.5 46.9064 29.5812 46.7618 29.7258C46.6172 29.8704 46.536 30.0665 46.536 30.271V36.229C46.536 36.655 46.881 37 47.307 37H48.726C49.881 37 50.8935 36.1525 51.021 35.005C51.099 34.303 50.85 33.6475 50.3955 33.286C50.8665 32.7925 51.1425 32.1085 50.997 31.336ZM48.786 35.5H48.036V34H48.786C48.9849 34 49.1757 34.079 49.3163 34.2197C49.457 34.3603 49.536 34.5511 49.536 34.75C49.536 34.9489 49.457 35.1397 49.3163 35.2803C49.1757 35.421 48.9849 35.5 48.786 35.5ZM48.786 32.5H48.036V31H48.786C48.9849 31 49.1757 31.079 49.3163 31.2197C49.457 31.3603 49.536 31.5511 49.536 31.75C49.536 31.9489 49.457 32.1397 49.3163 32.2803C49.1757 32.421 48.9849 32.5 48.786 32.5ZM53.475 31.5625C53.4634 31.6339 53.4725 31.7072 53.5012 31.7737C53.5299 31.8401 53.577 31.8969 53.637 31.9375C53.6565 31.9375 54.4005 32.2645 55.2195 32.5675C56.739 33.1285 57.12 34.228 56.97 35.071C56.7705 36.1885 55.704 37 54.4335 37C53.7791 37.0023 53.136 36.8299 52.5705 36.5005C52.4667 36.4389 52.3787 36.3539 52.3138 36.2521C52.2489 36.1504 52.2087 36.0348 52.1966 35.9147C52.1845 35.7946 52.2008 35.6733 52.2441 35.5606C52.2874 35.448 52.3566 35.3471 52.446 35.266C52.5662 35.154 52.719 35.0832 52.8821 35.0638C53.0453 35.0443 53.2104 35.0774 53.3535 35.158C53.6685 35.344 54.045 35.4475 54.4335 35.4475C54.99 35.4475 55.383 35.1175 55.44 34.7995C55.5165 34.3705 54.879 34.1005 54.681 34.027C53.7465 33.682 52.9035 33.3055 52.9035 33.3055C52.158 32.8315 51.8295 32.101 51.9375 31.342C52.0545 30.535 52.644 29.878 53.478 29.626C54.378 29.3545 55.1715 29.599 55.713 29.8825C55.8805 29.9738 56.0065 30.126 56.0648 30.3077C56.1231 30.4893 56.1092 30.6864 56.0261 30.8582C55.9429 31.0299 55.7969 31.163 55.6182 31.2299C55.4395 31.2968 55.242 31.2923 55.0665 31.2175C54.768 31.0885 54.354 30.985 53.925 31.1125C53.5605 31.222 53.4885 31.465 53.475 31.5625ZM41.9985 30.25V34.717C41.9985 35.1085 42.285 35.458 42.6735 35.497C42.7779 35.5075 42.8832 35.496 42.9829 35.4632C43.0825 35.4304 43.1742 35.3771 43.2519 35.3067C43.3296 35.2363 43.3918 35.1504 43.4342 35.0545C43.4767 34.9586 43.4986 34.8549 43.4985 34.75V30.25C43.4985 30.0511 43.5775 29.8603 43.7182 29.7197C43.8588 29.579 44.0496 29.5 44.2485 29.5C44.4474 29.5 44.6382 29.579 44.7788 29.7197C44.9195 29.8603 44.9985 30.0511 44.9985 30.25V34.75C44.9985 36.028 43.9275 37.0615 42.636 36.997C41.427 36.937 40.4985 35.8945 40.4985 34.684V30.2485C40.4985 30.0496 40.5775 29.8588 40.7182 29.7182C40.8588 29.5775 41.0496 29.4985 41.2485 29.4985C41.4474 29.4985 41.6382 29.5775 41.7788 29.7182C41.9195 29.8588 41.9985 30.0511 41.9985 30.25ZM37.4385 34.798C37.515 34.369 36.8775 34.099 36.6795 34.0255C35.745 33.6805 34.902 33.304 34.902 33.304C34.1565 32.83 33.828 32.0995 33.936 31.3405C34.053 30.5335 34.6425 29.8765 35.4765 29.6245C36.3765 29.353 37.17 29.5975 37.7115 29.881C37.879 29.9723 38.005 30.1245 38.0633 30.3062C38.1216 30.4878 38.1077 30.6849 38.0246 30.8567C37.9414 31.0284 37.7954 31.1615 37.6167 31.2284C37.438 31.2953 37.2405 31.2908 37.065 31.216C36.7665 31.087 36.3525 30.9835 35.9235 31.111C35.559 31.2205 35.487 31.462 35.4735 31.5595C35.4619 31.6309 35.471 31.7042 35.4997 31.7707C35.5284 31.8371 35.5755 31.8939 35.6355 31.9345C35.655 31.9345 36.399 32.2615 37.218 32.5645C38.7375 33.1255 39.1185 34.225 38.9685 35.068C38.769 36.1855 37.7025 36.997 36.432 36.997C35.7776 36.9993 35.1345 36.8269 34.569 36.4975C34.4652 36.4359 34.3772 36.3509 34.3123 36.2491C34.2474 36.1474 34.2072 36.0318 34.1951 35.9117C34.183 35.7916 34.1993 35.6703 34.2426 35.5576C34.2859 35.445 34.3551 35.3441 34.4445 35.263C34.5647 35.151 34.7175 35.0802 34.8806 35.0608C35.0438 35.0413 35.2089 35.0744 35.352 35.155C35.667 35.341 36.0435 35.4445 36.432 35.4445C36.9885 35.4445 37.3815 35.116 37.4385 34.798ZM62.9985 31.75V34.75C62.9985 38.4715 59.97 41.5 56.2485 41.5H50.2485C50.0496 41.5 49.8588 41.421 49.7182 41.2803C49.5775 41.1397 49.4985 40.9489 49.4985 40.75C49.4985 40.5511 49.5775 40.3603 49.7182 40.2197C49.8588 40.079 50.0496 40 50.2485 40H56.2485C59.1435 40 61.4985 37.645 61.4985 34.75V31.75C61.4985 28.855 59.1435 26.5 56.2485 26.5H33.75C30.855 26.5 28.5 28.855 28.5 31.75V34.75C28.5 37.645 30.855 40 33.75 40H35.25C35.4489 40 35.6397 40.079 35.7803 40.2197C35.921 40.3603 36 40.5511 36 40.75C36 40.9489 35.921 41.1397 35.7803 41.2803C35.6397 41.421 35.4489 41.5 35.25 41.5H33.75C31.9604 41.498 30.2447 40.7862 28.9792 39.5208C27.7138 38.2553 27.002 36.5396 27 34.75V31.75C27 28.0285 30.0285 25 33.75 25H56.25C59.9715 25 62.9985 28.0285 62.9985 31.75ZM58.4985 60.25C58.4985 60.4489 58.4195 60.6397 58.2788 60.7803C58.1382 60.921 57.9474 61 57.7485 61C57.5496 61 57.3588 60.921 57.2182 60.7803C57.0775 60.6397 56.9985 60.4489 56.9985 60.25C56.9985 57.7945 55.5075 55.711 53.1045 54.8095L45.4845 51.952C45.3417 51.8983 45.2187 51.8023 45.1319 51.6769C45.045 51.5515 44.9985 51.4026 44.9985 51.25V43.9105C44.9985 42.727 44.196 41.704 43.131 41.5315C42.8077 41.4755 42.4761 41.4909 42.1594 41.5766C41.8426 41.6623 41.5485 41.8162 41.2975 42.0276C41.0466 42.2389 40.8449 42.5026 40.7066 42.8002C40.5683 43.0977 40.4968 43.4219 40.497 43.75V54.886C40.497 55.516 40.1445 56.0785 39.576 56.353C39.0075 56.6275 38.349 56.5525 37.8555 56.161C37.8555 56.161 35.283 54.1105 35.265 54.0925C34.8278 53.6863 34.2471 53.4705 33.6508 53.4924C33.0544 53.5143 32.4912 53.7723 32.085 54.2095C31.6788 54.6467 31.463 55.2274 31.4849 55.8237C31.5068 56.4201 31.7648 56.9833 32.202 57.3895L34.6515 59.716C34.7949 59.8519 34.8785 60.0391 34.8838 60.2366C34.8892 60.4341 34.8159 60.6256 34.68 60.769C34.5441 60.9124 34.3569 60.996 34.1594 61.0013C33.9619 61.0067 33.7704 60.9334 33.627 60.7975L31.167 58.4755C30.4464 57.7948 30.025 56.8562 29.9952 55.8654C29.9654 54.8745 30.3296 53.9123 31.008 53.1895C31.6828 52.4693 32.6142 52.0442 33.6004 52.0063C34.5866 51.9684 35.5479 52.3208 36.276 52.987L38.79 54.9895L38.997 54.889V43.753C38.997 42.652 39.4785 41.6095 40.3185 40.8955C40.7366 40.5435 41.2258 40.2859 41.7526 40.1404C42.2795 39.9949 42.8315 39.9649 43.371 40.0525C45.153 40.3435 46.497 42.0025 46.497 43.912V50.731L53.631 53.4055C56.6325 54.532 58.497 57.1555 58.497 60.25H58.4985Z" fill="#007BFF"/>
</g>
</g>
<defs>
<filter id="filter0_d_3426_439" x="0" y="0" width="90" height="90" filterUnits="userSpaceOnUse" color-interpolation-filters="sRGB">
<feFlood flood-opacity="0" result="BackgroundImageFix"/>
<feColorMatrix in="SourceAlpha" type="matrix" values="0 0 0 0 0 0 0 0 0 0 0 0 0 0 0 0 0 0 127 0" result="hardAlpha"/>
<feOffset dy="2"/>
<feGaussianBlur stdDeviation="5"/>
<feComposite in2="hardAlpha" operator="out"/>
<feColorMatrix type="matrix" values="0 0 0 0 0 0 0 0 0 0 0 0 0 0 0 0 0 0 0.15 0"/>
<feBlend mode="normal" in2="BackgroundImageFix" result="effect1_dropShadow_3426_439"/>
<feBlend mode="normal" in="SourceGraphic" in2="effect1_dropShadow_3426_439" result="shape"/>
</filter>
<clipPath id="clip0_3426_439">
<rect width="36" height="36" fill="white" transform="translate(27 25)"/>
</clipPath>
</defs>
</svg>
