<svg width="90" height="90" viewBox="0 0 90 90" fill="none" xmlns="http://www.w3.org/2000/svg">
<g filter="url(#filter0_d_3722_6483)">
<rect x="10" y="8" width="70" height="70" rx="20" fill="white"/>
<g clip-path="url(#clip0_3722_6483)">
<path d="M60.864 47.3445C58.77 45.2506 55.682 44.7423 53.1049 45.8189V33.4033C53.1049 32.8896 52.9048 32.4066 52.5416 32.0434L46.0621 25.5632C45.9106 25.4123 45.735 25.2879 45.5425 25.1949L45.5412 25.1943C45.5325 25.19 45.5237 25.1856 45.5148 25.1816C45.498 25.1733 45.4809 25.1657 45.4635 25.1589C45.2229 25.0547 44.9637 25.0006 44.7015 25H29.091C27.9703 25 27.0583 25.9118 27.0583 27.0327V58.9673C27.0583 60.0882 27.9702 61 29.091 61H51.0721C52.1453 61 53.0367 60.1609 53.1014 59.0897C53.1023 59.0756 53.1028 59.0615 53.1028 59.0474V58.9018C53.9723 59.2649 54.9053 59.4517 55.8477 59.4515C57.6643 59.4515 59.481 58.76 60.864 57.377C62.2038 56.0371 62.9418 54.2556 62.9418 52.3607C62.9418 50.4659 62.2038 48.6844 60.864 47.3445ZM50.7068 32.1952H46.0653C46.0241 32.1951 45.9846 32.1787 45.9554 32.1496C45.9263 32.1204 45.9099 32.0809 45.9098 32.0397V27.3977L50.7068 32.1952ZM51.698 59.0223C51.6697 59.345 51.398 59.5952 51.0722 59.5952H29.091C28.7448 59.5952 28.4632 59.3136 28.4632 58.9673V27.0327C28.4632 26.6864 28.7448 26.4048 29.091 26.4048H44.5052V32.0397C44.5052 32.9 45.2051 33.5999 46.0654 33.5999H51.7002V46.6053C51.3913 46.828 51.1008 47.0752 50.8315 47.3445C49.4916 48.6845 48.7537 50.4659 48.7537 52.3608C48.7537 54.2557 49.4916 56.0372 50.8315 57.3771C51.1001 57.6458 51.3899 57.8925 51.6981 58.1148V59.0223H51.698ZM59.8706 56.3837C57.6523 58.602 54.043 58.602 51.8247 56.3837C50.7501 55.3091 50.1583 53.8804 50.1583 52.3608C50.1583 50.8412 50.7501 49.4124 51.8247 48.3379C52.9338 47.2288 54.3907 46.6742 55.8476 46.6742C57.3045 46.6742 58.7614 47.2288 59.8705 48.3379C60.9451 49.4125 61.5369 50.8412 61.5369 52.3608C61.5369 53.8804 60.9452 55.3091 59.8706 56.3837Z" fill="#007BFF"/>
<path d="M32.0077 36.1946H41.7999C42.1877 36.1946 42.5023 35.8801 42.5023 35.4922C42.5023 35.1043 42.1877 34.7898 41.7999 34.7898H32.0077C31.6199 34.7898 31.3053 35.1043 31.3053 35.4922C31.3053 35.8801 31.6198 36.1946 32.0077 36.1946ZM44.2421 47.427H32.0077C31.6199 47.427 31.3053 47.7414 31.3053 48.1293C31.3053 48.5173 31.6199 48.8317 32.0077 48.8317H44.2422C44.6301 48.8317 44.9446 48.5173 44.9446 48.1293C44.9446 47.7414 44.6301 47.427 44.2421 47.427ZM44.2421 51.6394H32.0077C31.6199 51.6394 31.3053 51.9538 31.3053 52.3417C31.3053 52.7297 31.6199 53.0441 32.0077 53.0441H44.2422C44.6301 53.0441 44.9446 52.7297 44.9446 52.3417C44.9446 51.9538 44.6301 51.6394 44.2421 51.6394ZM48.1916 43.2146H32.0077C31.6199 43.2146 31.3053 43.5291 31.3053 43.917C31.3053 44.3049 31.6199 44.6194 32.0077 44.6194H48.1916C48.5794 44.6194 48.894 44.3049 48.894 43.917C48.894 43.5291 48.5794 43.2146 48.1916 43.2146ZM31.9375 40.4524H44.6094C44.9973 40.4524 45.3118 40.138 45.3118 39.75C45.3118 39.3621 44.9973 39.0476 44.6094 39.0476H31.9375C31.5496 39.0476 31.2351 39.3621 31.2351 39.75C31.2351 40.138 31.5496 40.4524 31.9375 40.4524Z" fill="#007BFF"/>
<path d="M48.1051 40.4528C48.4932 40.4528 48.8078 40.1382 48.8078 39.7501C48.8078 39.362 48.4932 39.0474 48.1051 39.0474C47.717 39.0474 47.4023 39.362 47.4023 39.7501C47.4023 40.1382 47.717 40.4528 48.1051 40.4528Z" fill="#007BFF"/>
<path d="M58.3314 49.8771C58.0571 49.6028 57.6125 49.6028 57.338 49.8771L55.8475 51.3675L54.3806 49.9006C54.1063 49.6263 53.6616 49.6263 53.3872 49.9006C53.1129 50.1748 53.1129 50.6196 53.3872 50.8939L54.8541 52.3608L53.3637 53.8513C53.0894 54.1255 53.0894 54.5703 53.3637 54.8446C53.5008 54.9817 53.6806 55.0503 53.8603 55.0503C54.0401 55.0503 54.2198 54.9817 54.357 54.8446L55.8474 53.3542L57.3144 54.8211C57.4515 54.9583 57.6313 55.0268 57.811 55.0268C57.9908 55.0268 58.1706 54.9582 58.3077 54.8211C58.582 54.5468 58.582 54.1021 58.3077 53.8278L56.8408 52.3609L58.3312 50.8705C58.6057 50.5961 58.6057 50.1514 58.3314 49.8771Z" fill="#007BFF"/>
</g>
</g>
<defs>
<filter id="filter0_d_3722_6483" x="0" y="0" width="90" height="90" filterUnits="userSpaceOnUse" color-interpolation-filters="sRGB">
<feFlood flood-opacity="0" result="BackgroundImageFix"/>
<feColorMatrix in="SourceAlpha" type="matrix" values="0 0 0 0 0 0 0 0 0 0 0 0 0 0 0 0 0 0 127 0" result="hardAlpha"/>
<feOffset dy="2"/>
<feGaussianBlur stdDeviation="5"/>
<feComposite in2="hardAlpha" operator="out"/>
<feColorMatrix type="matrix" values="0 0 0 0 0 0 0 0 0 0 0 0 0 0 0 0 0 0 0.15 0"/>
<feBlend mode="normal" in2="BackgroundImageFix" result="effect1_dropShadow_3722_6483"/>
<feBlend mode="normal" in="SourceGraphic" in2="effect1_dropShadow_3722_6483" result="shape"/>
</filter>
<clipPath id="clip0_3722_6483">
<rect width="36" height="36" fill="white" transform="translate(27 25)"/>
</clipPath>
</defs>
</svg>
