<svg width="90" height="90" viewBox="0 0 90 90" fill="none" xmlns="http://www.w3.org/2000/svg">
<g filter="url(#filter0_d_3426_525)">
<rect x="10" y="8" width="70" height="70" rx="20" fill="white"/>
<path d="M29.4166 35.2083C29.4166 34.8436 29.2717 34.4939 29.0139 34.236C28.756 33.9782 28.4063 33.8333 28.0416 33.8333C27.6769 33.8333 27.3272 33.9782 27.0693 34.236C26.8115 34.4939 26.6666 34.8436 26.6666 35.2083V59.0416C26.6666 60.3066 27.6933 61.3333 28.9583 61.3333H61.0416C62.3066 61.3333 63.3333 60.3066 63.3333 59.0416V35.2083C63.3333 34.8436 63.1884 34.4939 62.9305 34.236C62.6727 33.9782 62.3229 33.8333 61.9583 33.8333C61.5936 33.8333 61.2438 33.9782 60.986 34.236C60.7281 34.4939 60.5833 34.8436 60.5833 35.2083V44.8333H56.0036C56.6074 43.3808 56.9177 41.823 56.9166 40.25C56.9166 38.3726 56.0696 36.6933 54.9769 35.3C53.8787 33.8975 52.4506 32.6765 51.0774 31.6828C49.3822 30.4685 47.5814 29.4088 45.6966 28.5166L45.5994 28.4708L45.5719 28.458L45.5646 28.4543H45.5609C45.3839 28.3749 45.1921 28.3338 44.9981 28.3338C44.8041 28.3338 44.6123 28.3749 44.4353 28.4543H44.4316L44.4243 28.458L44.3967 28.4708L44.2996 28.5166C44.214 28.5545 44.0955 28.6114 43.9439 28.6871C42.1885 29.5431 40.5081 30.5452 38.9206 31.6828C37.5474 32.6765 36.1193 33.8975 35.0211 35.2981C33.9303 36.6933 33.0833 38.3726 33.0833 40.25C33.0833 41.8743 33.4078 43.4216 33.9963 44.8333H29.4166V35.2083ZM52.9401 44.8333H37.0616C36.257 43.4398 35.8333 41.8591 35.8333 40.25C35.8333 39.216 36.3044 38.1233 37.1881 36.994C38.0681 35.872 39.2726 34.8233 40.5358 33.9103C41.9478 32.896 43.4409 31.9996 44.9999 31.23C46.5588 31.9984 48.0519 32.8936 49.4641 33.9066C50.7273 34.8215 51.9336 35.8701 52.8118 36.9921C53.6973 38.1215 54.1666 39.2141 54.1666 40.2481C54.1666 41.9165 53.7192 43.484 52.9401 44.8315M60.5833 58.5815H49.5833V54.9148C49.5833 53.6992 49.1004 52.5335 48.2408 51.6739C47.3813 50.8144 46.2155 50.3315 44.9999 50.3315C43.7843 50.3315 42.6186 50.8144 41.759 51.6739C40.8995 52.5335 40.4166 53.6992 40.4166 54.9148V58.5815H29.4166V47.5815H60.5833V58.5815ZM43.1666 54.9148C43.1666 54.4286 43.3597 53.9623 43.7036 53.6185C44.0474 53.2746 44.5137 53.0815 44.9999 53.0815C45.4861 53.0815 45.9525 53.2746 46.2963 53.6185C46.6401 53.9623 46.8333 54.4286 46.8333 54.9148V58.5815H43.1666V54.9148ZM29.8749 30.1666C29.8749 30.6529 29.6818 31.1192 29.3379 31.463C28.9941 31.8068 28.5278 32 28.0416 32C27.5554 32 27.089 31.8068 26.7452 31.463C26.4014 31.1192 26.2083 30.6529 26.2083 30.1666C26.2083 29.6804 26.4014 29.2141 26.7452 28.8703C27.089 28.5265 27.5554 28.3333 28.0416 28.3333C28.5278 28.3333 28.9941 28.5265 29.3379 28.8703C29.6818 29.2141 29.8749 29.6804 29.8749 30.1666ZM61.9583 32C62.4445 32 62.9108 31.8068 63.2546 31.463C63.5984 31.1192 63.7916 30.6529 63.7916 30.1666C63.7916 29.6804 63.5984 29.2141 63.2546 28.8703C62.9108 28.5265 62.4445 28.3333 61.9583 28.3333C61.472 28.3333 61.0057 28.5265 60.6619 28.8703C60.3181 29.2141 60.1249 29.6804 60.1249 30.1666C60.1249 30.6529 60.3181 31.1192 60.6619 31.463C61.0057 31.8068 61.472 32 61.9583 32Z" fill="#007BFF"/>
</g>
<defs>
<filter id="filter0_d_3426_525" x="0" y="0" width="90" height="90" filterUnits="userSpaceOnUse" color-interpolation-filters="sRGB">
<feFlood flood-opacity="0" result="BackgroundImageFix"/>
<feColorMatrix in="SourceAlpha" type="matrix" values="0 0 0 0 0 0 0 0 0 0 0 0 0 0 0 0 0 0 127 0" result="hardAlpha"/>
<feOffset dy="2"/>
<feGaussianBlur stdDeviation="5"/>
<feComposite in2="hardAlpha" operator="out"/>
<feColorMatrix type="matrix" values="0 0 0 0 0 0 0 0 0 0 0 0 0 0 0 0 0 0 0.15 0"/>
<feBlend mode="normal" in2="BackgroundImageFix" result="effect1_dropShadow_3426_525"/>
<feBlend mode="normal" in="SourceGraphic" in2="effect1_dropShadow_3426_525" result="shape"/>
</filter>
</defs>
</svg>
