<svg width="16" height="21" viewBox="0 0 16 21" fill="none" xmlns="http://www.w3.org/2000/svg">
<path fill-rule="evenodd" clip-rule="evenodd" d="M3 0.892822C2.27065 0.892822 1.57118 1.18255 1.05546 1.69828C0.539731 2.214 0.25 2.91348 0.25 3.64282V17.6428C0.25 18.3722 0.539731 19.0716 1.05546 19.5874C1.57118 20.1031 2.27065 20.3928 3 20.3928H13C13.7293 20.3928 14.4288 20.1031 14.9445 19.5874C15.4603 19.0716 15.75 18.3722 15.75 17.6428V6.61082C15.75 6.22982 15.626 5.85982 15.396 5.55582L12.398 1.58782C12.2349 1.37194 12.0239 1.19682 11.7817 1.07623C11.5395 0.955639 11.2726 0.892859 11.002 0.892822H3ZM1.75 3.64282C1.75 2.95282 2.31 2.39282 3 2.39282H10.25V6.78982C10.25 7.20382 10.586 7.53982 11 7.53982H14.25V17.6428C14.25 18.3328 13.69 18.8928 13 18.8928H3C2.31 18.8928 1.75 18.3328 1.75 17.6428V3.64282Z" fill="#2624D0"/>
</svg>
