<svg width="90" height="90" viewBox="0 0 90 90" fill="none" xmlns="http://www.w3.org/2000/svg">
<g filter="url(#filter0_d_3722_6494)">
<rect x="10" y="8" width="70" height="70" rx="20" fill="white"/>
<g clip-path="url(#clip0_3722_6494)">
<path d="M58.5 33.25C58.5 33.4489 58.421 33.6397 58.2803 33.7803C58.1397 33.921 57.9489 34 57.75 34H53.25C53.0511 34 52.8603 33.921 52.7197 33.7803C52.579 33.6397 52.5 33.4489 52.5 33.25C52.5 33.0511 52.579 32.8603 52.7197 32.7197C52.8603 32.579 53.0511 32.5 53.25 32.5H57.75C57.9489 32.5 58.1397 32.579 58.2803 32.7197C58.421 32.8603 58.5 33.0511 58.5 33.25ZM57.75 37H53.25C53.0511 37 52.8603 37.079 52.7197 37.2197C52.579 37.3603 52.5 37.5511 52.5 37.75C52.5 37.9489 52.579 38.1397 52.7197 38.2803C52.8603 38.421 53.0511 38.5 53.25 38.5H57.75C57.9489 38.5 58.1397 38.421 58.2803 38.2803C58.421 38.1397 58.5 37.9489 58.5 37.75C58.5 37.5511 58.421 37.3603 58.2803 37.2197C58.1397 37.079 57.9489 37 57.75 37ZM57.75 41.5H53.25C53.0511 41.5 52.8603 41.579 52.7197 41.7197C52.579 41.8603 52.5 42.0511 52.5 42.25C52.5 42.4489 52.579 42.6397 52.7197 42.7803C52.8603 42.921 53.0511 43 53.25 43H57.75C57.9489 43 58.1397 42.921 58.2803 42.7803C58.421 42.6397 58.5 42.4489 58.5 42.25C58.5 42.0511 58.421 41.8603 58.2803 41.7197C58.1397 41.579 57.9489 41.5 57.75 41.5ZM57.75 46H53.25C53.0511 46 52.8603 46.079 52.7197 46.2197C52.579 46.3603 52.5 46.5511 52.5 46.75C52.5 46.9489 52.579 47.1397 52.7197 47.2803C52.8603 47.421 53.0511 47.5 53.25 47.5H57.75C57.9489 47.5 58.1397 47.421 58.2803 47.2803C58.421 47.1397 58.5 46.9489 58.5 46.75C58.5 46.5511 58.421 46.3603 58.2803 46.2197C58.1397 46.079 57.9489 46 57.75 46ZM49.5 40C49.5006 41.1784 49.2691 42.3454 48.8187 43.4343C48.3683 44.5233 47.7078 45.5128 46.875 46.3465C46.8705 46.351 46.869 46.3585 46.863 46.363C46.857 46.3675 46.851 46.369 46.8465 46.375C46.0129 47.208 45.0234 47.8685 43.9344 48.319C42.8455 48.7694 41.6784 49.0008 40.5 49C35.5365 49 31.5 44.9635 31.5 40C31.5 35.0365 35.5365 31 40.5 31C45.4635 31 49.5 35.0365 49.5 40ZM41.25 32.5765V39.379C41.25 39.5755 41.331 39.769 41.469 39.91L46.2795 44.7205C47.337 43.4275 47.9985 41.7985 47.9985 40.0015C47.9985 36.1225 45.0285 32.9605 41.2485 32.578L41.25 32.5765ZM40.5 47.5C42.297 47.5 43.926 46.8385 45.219 45.781L40.4085 40.9705C40.1989 40.762 40.0328 40.5139 39.9198 40.2407C39.8068 39.9675 39.749 39.6746 39.75 39.379V32.5765C35.97 32.959 33 36.1225 33 40C33 44.1355 36.3645 47.5 40.5 47.5ZM63 33.25V46.75C63 50.4715 59.9715 53.5 56.25 53.5H45.75V58H53.25C53.4489 58 53.6397 58.079 53.7803 58.2197C53.921 58.3603 54 58.5511 54 58.75C54 58.9489 53.921 59.1397 53.7803 59.2803C53.6397 59.421 53.4489 59.5 53.25 59.5H36.75C36.5511 59.5 36.3603 59.421 36.2197 59.2803C36.079 59.1397 36 58.9489 36 58.75C36 58.5511 36.079 58.3603 36.2197 58.2197C36.3603 58.079 36.5511 58 36.75 58H44.25V53.5H33.75C31.9604 53.498 30.2447 52.7862 28.9792 51.5208C27.7138 50.2553 27.002 48.5396 27 46.75V33.25C27 29.5285 30.0285 26.5 33.75 26.5H56.25C59.9715 26.5 63 29.5285 63 33.25ZM61.5 33.25C61.5 30.355 59.145 28 56.25 28H33.75C30.855 28 28.5 30.355 28.5 33.25V46.75C28.5 49.645 30.855 52 33.75 52H56.25C59.145 52 61.5 49.645 61.5 46.75V33.25Z" fill="#007BFF"/>
</g>
</g>
<defs>
<filter id="filter0_d_3722_6494" x="0" y="0" width="90" height="90" filterUnits="userSpaceOnUse" color-interpolation-filters="sRGB">
<feFlood flood-opacity="0" result="BackgroundImageFix"/>
<feColorMatrix in="SourceAlpha" type="matrix" values="0 0 0 0 0 0 0 0 0 0 0 0 0 0 0 0 0 0 127 0" result="hardAlpha"/>
<feOffset dy="2"/>
<feGaussianBlur stdDeviation="5"/>
<feComposite in2="hardAlpha" operator="out"/>
<feColorMatrix type="matrix" values="0 0 0 0 0 0 0 0 0 0 0 0 0 0 0 0 0 0 0.15 0"/>
<feBlend mode="normal" in2="BackgroundImageFix" result="effect1_dropShadow_3722_6494"/>
<feBlend mode="normal" in="SourceGraphic" in2="effect1_dropShadow_3722_6494" result="shape"/>
</filter>
<clipPath id="clip0_3722_6494">
<rect width="36" height="36" fill="white" transform="translate(27 25)"/>
</clipPath>
</defs>
</svg>
