<svg width="90" height="90" viewBox="0 0 90 90" fill="none" xmlns="http://www.w3.org/2000/svg">
<g filter="url(#filter0_d_3909_446)">
<rect x="10" y="8" width="70" height="70" rx="20" fill="white"/>
<g clip-path="url(#clip0_3909_446)">
<path d="M61.7715 39.4825C61.0302 38.8134 60.0557 38.4621 59.058 38.5045C58.5637 38.5265 58.0787 38.6463 57.6309 38.8569C57.1832 39.0675 56.7816 39.3648 56.4495 39.7315L50.8515 45.8845C50.6152 45.0548 50.1151 44.3246 49.4269 43.8044C48.7386 43.2843 47.8997 43.0024 47.037 43.0015H32.25C29.355 43.0015 27 45.3565 27 48.2515V55.7515C27 58.6465 29.355 61.0015 32.25 61.0015H41.1975C43.207 61.0007 45.1937 60.5752 47.0272 59.7529C48.8608 58.9306 50.4999 57.7301 51.837 56.23L62.046 44.7715C62.7026 44.0299 63.0418 43.0601 62.9905 42.0709C62.9391 41.0817 62.5014 40.1522 61.7715 39.4825ZM60.927 43.774L50.718 55.2325C49.5214 56.5747 48.0547 57.6488 46.414 58.3845C44.7733 59.1202 42.9956 59.5009 41.1975 59.5015H32.25C31.2558 59.5003 30.3027 59.1048 29.5997 58.4018C28.8967 57.6988 28.5012 56.7457 28.5 55.7515V48.2515C28.5 46.1845 30.1815 44.5015 32.25 44.5015H47.0355C48.393 44.5015 49.5 45.607 49.5 46.9645C49.5 48.1825 48.591 49.231 47.403 49.4005L38.1615 50.506C38.0637 50.5177 37.9692 50.5486 37.8833 50.5968C37.7974 50.6451 37.7219 50.7098 37.661 50.7872C37.6001 50.8647 37.5551 50.9533 37.5285 51.0482C37.5019 51.143 37.4943 51.2422 37.506 51.34C37.5312 51.5369 37.6327 51.7159 37.7887 51.8386C37.9448 51.9612 38.1428 52.0176 38.34 51.9955L47.5995 50.887C48.3382 50.778 49.0315 50.4638 49.6003 49.98C50.1691 49.4963 50.5907 48.8626 50.817 48.151L57.561 40.741C57.7613 40.5208 58.003 40.3422 58.2723 40.2156C58.5417 40.0889 58.8334 40.0166 59.1307 40.0028C59.428 39.989 59.7252 40.034 60.0051 40.1352C60.285 40.2364 60.5422 40.3918 60.762 40.5925C61.6755 41.425 61.749 42.8515 60.927 43.7755V43.774ZM34.5 29.866C34.5008 28.9738 34.8555 28.1183 35.4862 27.4873C36.117 26.8563 36.9723 26.5012 37.8645 26.5H39V25.75C39 25.5511 39.079 25.3603 39.2197 25.2197C39.3603 25.079 39.5511 25 39.75 25C39.9489 25 40.1397 25.079 40.2803 25.2197C40.421 25.3603 40.5 25.5511 40.5 25.75V26.5H41.3265C42.0504 26.5014 42.7613 26.6926 43.3882 27.0545C44.0152 27.4164 44.5362 27.9363 44.8995 28.5625C44.9491 28.6477 44.9814 28.7419 44.9945 28.8396C45.0076 28.9373 45.0012 29.0367 44.9756 29.1319C44.9501 29.2272 44.906 29.3164 44.8458 29.3945C44.7856 29.4726 44.7106 29.538 44.625 29.587C44.4526 29.6856 44.2481 29.7121 44.0562 29.6607C43.8643 29.6093 43.7005 29.4841 43.6005 29.3125C43.3691 28.9138 43.0372 28.5828 42.6379 28.3525C42.2386 28.1222 41.7859 28.0007 41.325 28H37.863C37.4202 28.0007 36.9921 28.1588 36.6552 28.446C36.3182 28.7333 36.0944 29.131 36.0237 29.5681C35.953 30.0052 36.0401 30.4532 36.2693 30.832C36.4985 31.2108 36.855 31.4958 37.275 31.636L42.6975 33.4435C43.3679 33.6661 43.9511 34.0944 44.3641 34.6674C44.7772 35.2405 44.9992 35.9291 44.9985 36.6355C44.9977 37.5277 44.643 38.3832 44.0123 39.0142C43.3815 39.6452 42.5262 40.0003 41.634 40.0015H40.4985V40.7515C40.4985 40.9504 40.4195 41.1412 40.2788 41.2818C40.1382 41.4225 39.9474 41.5015 39.7485 41.5015C39.5496 41.5015 39.3588 41.4225 39.2182 41.2818C39.0775 41.1412 38.9985 40.9504 38.9985 40.7515V40.0015H38.172C37.448 40.0006 36.737 39.8096 36.1099 39.4476C35.4829 39.0857 34.9619 38.5655 34.599 37.939C34.5498 37.8537 34.5178 37.7595 34.5049 37.6619C34.4921 37.5643 34.4986 37.465 34.5241 37.3699C34.5496 37.2748 34.5935 37.1856 34.6535 37.1074C34.7134 37.0293 34.7882 36.9637 34.8735 36.9145C34.9588 36.8653 35.053 36.8333 35.1506 36.8204C35.2482 36.8076 35.3475 36.8141 35.4426 36.8396C35.5377 36.8651 35.6269 36.909 35.7051 36.969C35.7832 37.0289 35.8488 37.1037 35.898 37.189C36.366 37.999 37.239 38.5015 38.1735 38.5015H41.6355C42.0783 38.5008 42.5064 38.3427 42.8433 38.0555C43.1803 37.7682 43.4041 37.3705 43.4748 36.9334C43.5455 36.4963 43.4584 36.0483 43.2292 35.6695C43 35.2907 42.6435 35.0057 42.2235 34.8655L36.801 33.058C36.1306 32.8354 35.5474 32.4071 35.1344 31.8341C34.7213 31.261 34.4993 30.5724 34.5 29.866ZM46.5 31.75C46.5 31.5511 46.579 31.3603 46.7197 31.2197C46.8603 31.079 47.0511 31 47.25 31H56.586L52.713 27.0235C52.5767 26.8804 52.5024 26.6894 52.5062 26.4918C52.51 26.2942 52.5916 26.1061 52.7333 25.9684C52.8749 25.8307 53.0653 25.7544 53.2628 25.7562C53.4604 25.758 53.6493 25.8377 53.7885 25.978L57.84 30.1375C58.206 30.5035 58.5 31.039 58.5 31.75C58.5 32.461 58.1805 32.9635 57.8325 33.313L53.7915 37.5205C53.7238 37.5924 53.6424 37.6501 53.5521 37.6902C53.4618 37.7302 53.3644 37.7519 53.2657 37.7538C53.1669 37.7558 53.0687 37.738 52.9769 37.7015C52.8851 37.6651 52.8015 37.6107 52.731 37.5415C52.66 37.4732 52.6031 37.3917 52.5636 37.3014C52.5241 37.2112 52.5028 37.1141 52.5009 37.0156C52.4989 36.9171 52.5164 36.8192 52.5522 36.7275C52.5881 36.6358 52.6417 36.552 52.71 36.481L56.5335 32.5H47.25C47.0511 32.5 46.8603 32.421 46.7197 32.2803C46.579 32.1397 46.5 31.9489 46.5 31.75Z" fill="#007BFF"/>
</g>
</g>
<defs>
<filter id="filter0_d_3909_446" x="0" y="0" width="90" height="90" filterUnits="userSpaceOnUse" color-interpolation-filters="sRGB">
<feFlood flood-opacity="0" result="BackgroundImageFix"/>
<feColorMatrix in="SourceAlpha" type="matrix" values="0 0 0 0 0 0 0 0 0 0 0 0 0 0 0 0 0 0 127 0" result="hardAlpha"/>
<feOffset dy="2"/>
<feGaussianBlur stdDeviation="5"/>
<feComposite in2="hardAlpha" operator="out"/>
<feColorMatrix type="matrix" values="0 0 0 0 0 0 0 0 0 0 0 0 0 0 0 0 0 0 0.15 0"/>
<feBlend mode="normal" in2="BackgroundImageFix" result="effect1_dropShadow_3909_446"/>
<feBlend mode="normal" in="SourceGraphic" in2="effect1_dropShadow_3909_446" result="shape"/>
</filter>
<clipPath id="clip0_3909_446">
<rect width="36" height="36" fill="white" transform="translate(27 25)"/>
</clipPath>
</defs>
</svg>
