<svg width="90" height="90" viewBox="0 0 90 90" fill="none" xmlns="http://www.w3.org/2000/svg">
<g filter="url(#filter0_d_3722_6451)">
<rect x="10" y="8" width="70" height="70" rx="20" fill="white"/>
<g clip-path="url(#clip0_3722_6451)">
<path d="M33.75 26.5H42.0225C42.5235 26.5 43.017 26.545 43.5 26.632V34.75C43.5 36.817 45.183 38.5 47.25 38.5H55.3665C55.416 38.767 55.452 39.0385 55.473 39.3115C55.4917 39.5088 55.5867 39.691 55.7377 39.8193C55.8887 39.9476 56.0838 40.0119 56.2815 39.9985C56.3797 39.9905 56.4754 39.9633 56.5631 39.9184C56.6507 39.8734 56.7287 39.8117 56.7925 39.7366C56.8563 39.6615 56.9047 39.5746 56.9349 39.4808C56.9651 39.387 56.9765 39.2882 56.9685 39.19C56.7806 36.8845 55.7796 34.7207 54.144 33.085L48.9165 27.8575C48.0133 26.9492 46.9389 26.2292 45.7556 25.7389C44.5722 25.2487 43.3034 24.998 42.0225 25.0015H33.75C31.9605 25.0031 30.2448 25.7146 28.9793 26.9798C27.7138 28.245 27.002 29.9605 27 31.75V54.25C27 57.9715 30.0285 61 33.75 61H39.75C39.9489 61 40.1397 60.921 40.2803 60.7803C40.421 60.6397 40.5 60.4489 40.5 60.25C40.5 60.0511 40.421 59.8603 40.2803 59.7197C40.1397 59.579 39.9489 59.5 39.75 59.5H33.75C30.855 59.5 28.5 57.145 28.5 54.25V31.75C28.5 28.855 30.855 26.5 33.75 26.5ZM53.0835 34.144C53.8952 34.9564 54.5287 35.9291 54.9435 37H47.25C46.0095 37 45 35.9905 45 34.75V27.052C46.0717 27.4673 47.0446 28.1024 47.856 28.9165L53.0835 34.144ZM61.9005 42.598C60.486 41.182 58.0125 41.182 56.598 42.598L45.0375 54.1585C44.5485 54.6449 44.1608 55.2235 43.8969 55.8607C43.6329 56.498 43.4981 57.1813 43.5 57.871V60.25C43.5 60.4489 43.579 60.6397 43.7197 60.7803C43.8603 60.921 44.0511 61 44.25 61H46.629C48.0315 61 49.35 60.454 50.3415 59.4625L61.902 47.902C62.61 47.194 63 46.252 63 45.25C63 44.248 62.6085 43.306 61.9005 42.598ZM60.84 46.84L49.2795 58.4005C48.5715 59.1085 47.6295 59.4985 46.6275 59.4985H44.9985V57.8695C44.9985 56.8675 45.3885 55.927 46.0965 55.2175L57.657 43.657C58.506 42.808 59.9895 42.808 60.8385 43.657C61.263 44.0815 61.497 44.647 61.497 45.2485C61.497 45.85 61.2645 46.414 60.84 46.84Z" fill="#007BFF"/>
</g>
</g>
<defs>
<filter id="filter0_d_3722_6451" x="0" y="0" width="90" height="90" filterUnits="userSpaceOnUse" color-interpolation-filters="sRGB">
<feFlood flood-opacity="0" result="BackgroundImageFix"/>
<feColorMatrix in="SourceAlpha" type="matrix" values="0 0 0 0 0 0 0 0 0 0 0 0 0 0 0 0 0 0 127 0" result="hardAlpha"/>
<feOffset dy="2"/>
<feGaussianBlur stdDeviation="5"/>
<feComposite in2="hardAlpha" operator="out"/>
<feColorMatrix type="matrix" values="0 0 0 0 0 0 0 0 0 0 0 0 0 0 0 0 0 0 0.15 0"/>
<feBlend mode="normal" in2="BackgroundImageFix" result="effect1_dropShadow_3722_6451"/>
<feBlend mode="normal" in="SourceGraphic" in2="effect1_dropShadow_3722_6451" result="shape"/>
</filter>
<clipPath id="clip0_3722_6451">
<rect width="36" height="36" fill="white" transform="translate(27 25)"/>
</clipPath>
</defs>
</svg>
