<svg width="24" height="20" viewBox="0 0 24 20" fill="none" xmlns="http://www.w3.org/2000/svg">
<path d="M21.7344 11.375C21.3812 11.3746 21.033 11.4585 20.7188 11.6198V11.1719C20.7188 7.03727 17.742 5.05578 15.3491 3.46328C13.8704 2.47914 12.5938 1.625 12.5938 0.609375C12.5938 0.447759 12.5295 0.292762 12.4153 0.178482C12.301 0.0642017 12.146 0 11.9844 0C11.8228 0 11.6678 0.0642017 11.5535 0.178482C11.4392 0.292762 11.375 0.447759 11.375 0.609375C11.375 1.625 10.0984 2.47914 8.61961 3.46328C6.2268 5.05578 3.25 7.03727 3.25 11.1719V11.6198C2.90942 11.446 2.52993 11.3625 2.14785 11.3773C1.76577 11.3921 1.39388 11.5047 1.06777 11.7043C0.741656 11.904 0.472234 12.184 0.285282 12.5175C0.0983299 12.8511 0.000102849 13.227 0 13.6094V19.2969C0 19.4585 0.0642018 19.6135 0.178482 19.7278C0.292762 19.842 0.447759 19.9062 0.609375 19.9062H7.10938C7.27099 19.9062 7.42599 19.842 7.54027 19.7278C7.65455 19.6135 7.71875 19.4585 7.71875 19.2969V16.0469C7.71875 15.7775 7.82575 15.5192 8.01622 15.3287C8.20669 15.1383 8.46501 15.0312 8.73438 15.0312C9.00374 15.0312 9.26206 15.1383 9.45253 15.3287C9.643 15.5192 9.75 15.7775 9.75 16.0469V19.2969C9.75 19.4585 9.8142 19.6135 9.92848 19.7278C10.0428 19.842 10.1978 19.9062 10.3594 19.9062H13.6094C13.771 19.9062 13.926 19.842 14.0403 19.7278C14.1545 19.6135 14.2188 19.4585 14.2188 19.2969V16.0469C14.2188 15.7775 14.3258 15.5192 14.5162 15.3287C14.7067 15.1383 14.965 15.0312 15.2344 15.0312C15.5037 15.0312 15.7621 15.1383 15.9525 15.3287C16.143 15.5192 16.25 15.7775 16.25 16.0469V19.2969C16.25 19.4585 16.3142 19.6135 16.4285 19.7278C16.5428 19.842 16.6978 19.9062 16.8594 19.9062H23.3594C23.521 19.9062 23.676 19.842 23.7903 19.7278C23.9045 19.6135 23.9688 19.4585 23.9688 19.2969V13.6094C23.9688 13.0168 23.7333 12.4485 23.3143 12.0294C22.8953 11.6104 22.327 11.375 21.7344 11.375ZM9.295 4.47789C10.3482 3.77711 11.3648 3.1007 11.9844 2.28719C12.6039 3.09969 13.6205 3.77711 14.6737 4.47789C16.7995 5.89062 19.1953 7.48617 19.4726 10.5625H4.49617C4.77344 7.48617 7.1693 5.89062 9.295 4.47789ZM1.21875 13.6094C1.21875 13.34 1.32575 13.0817 1.51622 12.8912C1.70669 12.7008 1.96501 12.5938 2.23438 12.5938C2.50374 12.5938 2.76206 12.7008 2.95253 12.8912C3.143 13.0817 3.25 13.34 3.25 13.6094V18.6875H1.21875V13.6094ZM15.2344 13.8125C14.6418 13.8125 14.0735 14.0479 13.6544 14.4669C13.2354 14.886 13 15.4543 13 16.0469V18.6875H10.9688V16.0469C10.9688 15.4543 10.7333 14.886 10.3143 14.4669C9.89529 14.0479 9.32697 13.8125 8.73438 13.8125C8.14178 13.8125 7.57346 14.0479 7.15443 14.4669C6.73541 14.886 6.5 15.4543 6.5 16.0469V18.6875H4.46875V11.7812H19.5V18.6875H17.4688V16.0469C17.4688 15.4543 17.2333 14.886 16.8143 14.4669C16.3953 14.0479 15.827 13.8125 15.2344 13.8125ZM22.75 18.6875H20.7188V13.6094C20.7188 13.34 20.8258 13.0817 21.0162 12.8912C21.2067 12.7008 21.465 12.5938 21.7344 12.5938C22.0037 12.5938 22.2621 12.7008 22.4525 12.8912C22.643 13.0817 22.75 13.34 22.75 13.6094V18.6875Z" fill="#2624D0"/>
</svg>
