<svg width="24" height="24" viewBox="0 0 24 24" fill="none" xmlns="http://www.w3.org/2000/svg">
<path d="M3 13.9153V9.9481C3 6.20801 3 4.33747 4.172 3.17607C5.343 2.01367 7.229 2.01367 11 2.01367H13C16.771 2.01367 18.657 2.01367 19.828 3.17607C20.482 3.82371 20.771 4.69154 20.898 5.98089M21 9.9481V13.9153C21 17.6554 21 19.5259 19.828 20.6873C18.657 21.8497 16.771 21.8497 13 21.8497H11C7.229 21.8497 5.343 21.8497 4.172 20.6873C3.518 20.0397 3.229 19.1719 3.102 17.8825M8 13.9153H13M8 9.9481H9M16 9.9481H12" stroke="#2624D0" stroke-width="1.6" stroke-linecap="round"/>
</svg>
